<svg width="580" height="400" xmlns="http://www.w3.org/2000/svg">
	<!-- Created with Method Draw - http://github.com/duopixel/Method-Draw/ -->
	<defs>
		<filter id="svg_1_blur">
			<feGaussianBlur stdDeviation="0.1" in="SourceGraphic"/>
		</filter>
	</defs>
	<g>
		<title>background</title>
		<rect fill="#56aaff" id="canvas_background" height="402" width="582" y="-1" x="-1"/>
		<g display="none" overflow="visible" y="0" x="0" height="100%" width="100%" id="canvasGrid">
			<rect fill="url(#gridpattern)" stroke-width="0" y="0" x="0" height="100%" width="100%"/>
		</g>
	</g>
	<g>
		<title>Layer 1</title>
		<text font-weight="normal" font-style="normal" filter="url(#svg_1_blur)" transform="rotate(-14, 275.002, 200.641) matrix(13.9379, 0, 0, 8.76805, -547.939, -1227.02)" stroke-dasharray="5,2,2,2,2,2" xml:space="preserve" text-anchor="start" font-family="'Simonetta', serif" font-size="24" id="svg_1" y="171.208314" x="50.659971" stroke="#000" fill="#000000">T</text>
		<path id="svg_2"
			  d="m117.384018,193.494141c-5.082382,-8.660507 -11.30069,-15.673538 -17.537949,-20.5793c-7.278046,5.027802 -16.141693,8.090149 -25.805405,8.090149c-9.683136,0 -18.559753,-3.068024 -25.824646,-8.090149c-6.237297,4.905762 -12.461967,11.918793 -17.557106,20.5793c-11.826584,20.108185 -13.128387,40.734299 -2.913109,46.082703c4.575424,2.409576 9.372124,0.613037 14.327599,-3.889603c-0.869019,4.566559 -1.375946,9.516037 -1.375946,14.692917c0,23.003357 9.472992,41.636993 21.147675,41.636993c7.036804,0 10.520676,-6.784424 12.195534,-17.173431c1.667702,10.389008 5.152054,17.173431 12.163162,17.173431c11.694519,0 21.167526,-18.633636 21.167526,-41.636993c0,-5.17688 -0.507767,-10.126358 -1.395966,-14.692917c4.967758,4.50264 9.75853,6.299179 14.3461,3.889603c10.20903,-5.348404 8.889832,-25.974518 -2.937469,-46.082703zm-43.355415,-20.336655c19.644295,0 35.576317,-15.030792 35.576317,-33.569534s-15.932022,-33.570816 -35.576317,-33.570816c-19.651199,0 -35.596802,15.032181 -35.596802,33.570816s15.945602,33.569534 35.596802,33.569534z"
			  stroke-width="1.5" stroke="#000" fill="#fff"/>
		<path id="svg_5"
			  d="m424.02887,146.658142c-1.675812,9.190613 -5.959106,17.973785 -6.249176,27.453217c0.386078,5.487534 -3.418976,8.435043 -8.626587,8.331894c-5.597351,5.619064 0.690918,14.500229 7.028839,16.769516c6.465057,4.20076 14.489258,-0.495117 20.894409,3.274994c8.505768,6.436523 12.055603,17.847427 9.122009,27.852844c-2.918762,8.259735 12.016785,5.255463 6.398499,-1.346069c-4.336609,-6.454544 8.179596,-4.32193 4.977356,1.805084c-0.606201,4.917664 3.744476,6.511353 1.809967,11.274231c5.044617,2.800568 -0.424896,4.371002 -3.499786,4.897064c-7.195129,3.473541 1.303711,-6.222534 -4.399872,-9.087463c-5.222076,1.095917 -1.682922,9.561951 -3.475616,8.584625c-3.687592,-2.797943 -3.687592,-13.254761 -9.880157,-6.431427c-2.054993,-8.406677 1.696716,-17.164001 -1.194366,-25.521667c1.183624,-6.243118 -8.997925,-8.396362 -7.708832,-1.155273c0.510162,11.049866 -2.954132,22.076477 -0.963531,33.072266c2.738617,6.782043 10.401581,9.83786 15.21225,15.072723c3.949921,4.033142 9.069244,8.347382 15.219116,7.07605c6.971771,-0.291382 13.957977,-0.915436 20.901855,0.157318c8.729034,0.268188 15.396149,-6.415863 22.846588,-9.845581c8.760376,-6.733154 7.382629,-18.760376 6.507507,-28.340424c-1.069824,-5.912979 1.278992,-11.831161 0.843201,-17.690048c-6.316528,-7.480911 -11.499329,5.66806 -9.699463,11.315475c0,7.10437 1.409546,16.258911 -5.594177,20.887756c-5.777771,-0.141846 -11.27597,1.890198 -17.100311,0.827759c-4.726074,2.715393 -12.378204,2.645782 -13.936615,-3.819153c-0.623627,-5.742798 2.065216,-11.764191 -1.58728,-17.122742c3.209778,2.676697 8.807251,-2.310547 5.685699,3.687561c-3.804413,4.884094 3.224457,12.406311 5.867004,5.1987c0.878357,-4.83252 -3.794342,-11.250961 3.889801,-10.216888c1.565796,1.707123 -5.352936,13.636292 4.105927,10.621765c6.74173,-1.431213 -1.200867,-11.668732 7.928253,-11.702255c4.421265,-5.036255 3.230774,-14.474426 9.98999,-18.296112c7.535522,-4.935699 19.304199,-1.371887 24.681763,-9.734726c4.584656,-4.278122 2.426636,-16.135162 -5.480286,-12.205154c-9.880432,0.930923 -2.040649,-12.955566 -2.313354,-18.159454c2.327576,-4.533417 -2.826904,-14.074738 -1.052063,-15.085602c3.354797,4.966644 4.555725,10.776535 3.83313,16.583847c-0.060303,4.922806 -2.21759,18.27034 4.853271,10.041595c2.394531,-5.732529 1.696899,-12.225784 3.400696,-18.190399c3.291199,-12.875626 -2.599854,-25.761566 -9.164673,-36.667038c-5.593994,-5.87178 -12.693054,-10.552185 -19.360596,-15.162964c-11.212494,-4.082138 -23.597229,-4.81192 -35.440063,-3.790741c-10.475739,1.758698 -21.553497,3.612808 -29.900299,10.526398c-8.133667,4.641724 -15.92392,10.802322 -19.140778,19.71701c-2.802185,7.179199 -7.708862,14.495071 -5.477081,22.4711c2.13269,6.650558 0.999146,13.556412 1.346466,20.353958c3.634888,7.767151 7.067505,-3.97641 6.727356,-7.859985c0.201874,-7.364868 4.215912,-13.88649 7.174011,-20.423584l0,0zm66.785706,15.80249c7.475098,0.515747 16.944702,4.548889 17.146423,12.952988c1.137207,8.432465 -5.901978,16.604477 -14.921509,15.779282c-8.194092,-0.65242 -13.433472,-7.50412 -12.888245,-15.206802c-2.745453,-5.521072 1.523163,-11.436691 7.251495,-12.705429c1.112976,-0.363602 2.253204,-0.634369 3.411835,-0.820038l0,0zm-50.461151,0.716888c8.67569,-1.493088 18.54538,3.715958 18.573944,13.00972c0.814819,8.986893 -9.040497,10.74559 -15.764679,12.996826c-4.651703,2.908813 -9.483917,0.201141 -13.348846,-2.728302c-5.012848,-5.082687 -3.539154,-15.320267 1.757172,-19.956833c2.56488,-1.841217 5.746246,-2.563263 8.78241,-3.321411zm29.683594,23.703735c4.19809,5.58812 9.239563,14.105682 3.808411,20.446793c-4.817871,3.744324 -5.42746,-5.32251 -10.486328,-1.052124c-4.747101,-4.022827 -0.368378,-12.212891 2.961731,-16.300186c1.098267,-1.178482 2.3526,-2.215134 3.716187,-3.094482z"
			  fill-opacity="null" stroke-opacity="null" stroke-width="1.5" stroke="#000" fill="#fff"/>
	</g>
</svg>
