<?xml version="1.0" encoding="iso-8859-1"?>
<!-- Generator: Adobe Illustrator 19.0.0, SVG Export Plug-In . SVG Version: 6.00 Build 0)  -->
<svg xmlns="http://www.w3.org/2000/svg" xmlns:xlink="http://www.w3.org/1999/xlink" version="1.1" id="Layer_1" x="0px" y="0px" viewBox="0 0 512 512" style="enable-background:new 0 0 512 512;" xml:space="preserve">
<g>
	<g>
		<path d="M511.723,382.372c-0.556-2.076-1.915-3.847-3.775-4.921l-56.147-32.415c-3.877-2.236-8.833-0.911-11.07,2.966l-1.53,2.651    l-16.978-9.803c-5.034-22.13-40.289-42.587-47.976-46.812l-30.273-17.479c-9.68-5.586-22.111-2.262-27.717,7.448l-0.231,0.403    c-0.693,1.198-1.254,2.447-1.685,3.73l-8.085-4.666c-3.392-1.96-7.187-2.862-11.008-2.692    c7.201-3.116,12.255-10.285,12.255-18.615v-0.51v-34.536v-4.91c4.199,3.827,9.1,6.991,14.528,8.163    c1.565,0.338,3.124,0.506,4.666,0.506c5.102,0,10.033-1.835,14.469-5.422c0.057-0.045,0.112-0.091,0.166-0.138    c0.639-0.545,15.407-13.64-3.658-39.769c-6.155-8.437-7.242-14.393-8.498-21.29c-2.038-11.176-4.143-22.715-25.061-39.47v-11.348    h1.531c4.477,0,8.104-3.627,8.104-8.104V66.6c0-4.477-3.627-8.104-8.104-8.104c-4.477,0-8.104,3.627-8.104,8.104v30.636h-83.921    V48.613h92.025c4.477,0,8.104-3.627,8.104-8.104c0-4.477-3.627-8.104-8.104-8.104H205.519c-4.476,0-8.104,3.627-8.104,8.104    v64.832c0,4.477,3.628,8.104,8.104,8.104h3.061v19.604c-16.649,15.425-16.736,56.185-16.553,64.954v34.957    c0,11.182,9.098,20.281,20.281,20.281h0.493c1.394,0,2.756-0.142,4.073-0.411v9.339c0,3.801,1.071,7.35,2.898,10.394    c-6.122-3.689-14.017-4.038-20.632-0.22l-0.435,0.251c-0.001,0.001-0.003,0.002-0.005,0.003l-34.161,19.723    c1.216-5.55,1.505-11.376-0.195-16.663c-2.11-6.564-6.891-11.446-13.825-14.115c-0.068-0.025-0.135-0.051-0.204-0.075    c-0.79-0.281-19.517-6.52-32.612,23.051c-4.229,9.55-8.845,13.469-14.188,18.006c-8.66,7.353-17.601,14.945-21.652,41.438    l-9.828,5.674l-0.765-1.326c-2.237-3.877-7.195-5.202-11.07-2.966l-33.549,19.37c-3.876,2.238-5.204,7.194-2.966,11.07    c2.237,3.877,7.196,5.203,11.07,2.966l26.531-15.318l41.96,72.678l-42.109,24.312l-46.011-79.697    c-2.237-3.877-7.196-5.203-11.07-2.966c-3.876,2.238-5.204,7.194-2.966,11.07l50.064,86.714c1.074,1.862,2.845,3.219,4.921,3.775    c0.69,0.186,1.395,0.277,2.097,0.277c1.41,0,2.809-0.368,4.052-1.086l56.146-32.416c3.876-2.238,5.204-7.194,2.966-11.07    l-1.53-2.651l16.978-9.802c21.678,6.709,57.025-13.599,64.528-18.142l30.274-17.479c9.683-5.592,13.013-18.02,7.417-27.712    l-0.242-0.417c-0.698-1.207-1.501-2.317-2.392-3.322l8.088-4.669c2.606-1.505,4.735-3.515,6.371-5.823    c0.049,1.551,0.255,3.105,0.667,4.642c1.403,5.232,4.758,9.606,9.449,12.314l0.431,0.249c0.003,0.002,0.006,0.004,0.01,0.006    l34.16,19.722c-5.413,1.723-10.603,4.386-14.332,8.501c-4.631,5.11-6.467,11.689-5.311,19.029    c0.011,0.071,0.023,0.143,0.036,0.214c0.141,0.757,3.485,17.131,28.941,17.129c2.263-0.001,4.704-0.13,7.327-0.412    c10.385-1.113,16.087,0.924,22.688,3.285c10.696,3.823,21.742,7.77,46.711-1.968l9.829,5.674l-0.765,1.326    c-2.238,3.876-0.91,8.832,2.966,11.07l33.548,19.37c3.878,2.237,8.833,0.911,11.07-2.966c2.238-3.876,0.91-8.832-2.966-11.07    l-26.53-15.318l40.427-70.024c0.001-0.001,0.002-0.002,0.002-0.003c0.001-0.001,0.001-0.003,0.002-0.004l1.528-2.646    l42.111,24.311l-46.012,79.697c-2.238,3.876-0.91,8.832,2.966,11.07c1.277,0.737,2.67,1.087,4.044,1.087    c2.801,0,5.525-1.453,7.026-4.053l50.064-86.715C511.989,386.661,512.281,384.449,511.723,382.372z M216.874,203.31v29.65    c-0.001,2.245-1.827,4.073-4.073,4.073h-0.493c-2.245,0-4.073-1.826-4.073-4.073v-35.044c0-0.056-0.001-0.116-0.002-0.172    c-0.384-18.439,3.347-48.27,12.58-53.734c2.464-1.459,3.976-4.11,3.976-6.974v-23.591h63.12v15.308    c0,2.537,1.189,4.928,3.21,6.461c18.897,14.316,20.317,22.1,22.114,31.957c1.34,7.353,3.008,16.503,11.351,27.937    c7.518,10.303,7.246,16.2,5.969,18.078c-2.24,1.66-3.828,1.621-5.09,1.35c-7.263-1.557-15.82-14.326-18.826-20.266    c-2.011-3.991-6.879-5.602-10.875-3.593c-3.004,1.508-4.661,4.634-4.449,7.791c-0.004,0.116-0.017,0.23-0.017,0.347v28.309v34.536    v0.51c0,2.244-1.826,4.071-4.071,4.071h-0.493c-2.244,0-4.071-1.827-4.071-4.071c0-0.086-0.011-0.17-0.013-0.255    c0.002-0.084,0.013-0.167,0.013-0.254v-58.349c0-4.477-3.627-8.104-8.104-8.104c-4.477,0-8.104,3.627-8.104,8.104v58.349    c0,0.086,0.011,0.17,0.013,0.254c-0.002,0.085-0.013,0.169-0.013,0.255v11.886c0,2.244-1.826,4.071-4.071,4.071h-0.493    c-2.244,0-4.071-1.826-4.071-4.071v-9.797c0.07-0.687,0.108-1.383,0.108-2.089v-15.096c0-0.43-0.043-0.848-0.108-1.26V203.31    c0-4.477-3.627-8.104-8.104-8.104c-4.477,0-8.104,3.627-8.104,8.104v47.184c0,0.429,0.043,0.848,0.108,1.26    c-0.065,0.412-0.108,0.831-0.108,1.26v10.054c-0.412,1.812-2.029,3.172-3.964,3.172h-0.493c-2.244,0-4.071-1.827-4.071-4.071    v-24.282v-4.927v-29.65c0-4.477-3.627-8.104-8.104-8.104C220.501,195.206,216.874,198.833,216.874,203.31z M238.248,334.321    c-0.162,0.608-0.626,1.738-1.897,2.472l-22.01,12.709l-3.281,1.894c-0.001,0-0.002,0-0.003,0.001s-0.002,0.001-0.003,0.002    l-25.676,14.824c-3.876,2.238-5.204,7.194-2.966,11.07c1.501,2.6,4.225,4.053,7.026,4.053c1.374,0,2.769-0.35,4.044-1.087    l25.693-14.834c1.945-1.11,4.428-0.439,5.553,1.51l0.242,0.417c1.123,1.945,0.454,4.44-1.491,5.563l-30.348,17.522    c-0.051,0.029-0.102,0.059-0.151,0.09c-12.403,7.524-32.188,16.357-44.624,17.212c-0.096-0.047-0.192-0.092-0.289-0.137    c-0.069-0.03-0.136-0.068-0.205-0.097l-0.231-0.102c-1.541-0.592-3.296-0.574-4.826,0.045c-0.989-0.214-1.884-0.52-2.646-0.95    c-2.496-1.405-5.547-1.39-8.028,0.043l-20.432,11.796l-31.561-54.664l13.258-7.655c2.197-1.269,3.673-3.492,3.988-6.01    c2.95-23.523,8.982-28.646,16.62-35.13c5.697-4.838,12.787-10.857,18.518-23.799c5.166-11.664,10.377-14.364,12.674-14.208    c2.557,1.109,3.316,2.503,3.714,3.734c2.282,7.067-4.493,20.855-8.134,26.432c-2.455,3.74-1.417,8.761,2.323,11.219    c2.817,1.853,6.367,1.718,8.997-0.062c0.094-0.05,0.191-0.086,0.284-0.14l24.512-14.152c0.001-0.001,0.003-0.002,0.005-0.003    l30.35-17.523c1.943-1.12,4.439-0.454,5.567,1.501l0.242,0.417c0.734,1.271,0.569,2.481,0.406,3.088    c-0.162,0.608-0.626,1.737-1.897,2.472c-0.076,0.044-0.145,0.096-0.219,0.142c-0.072,0.04-0.149,0.071-0.222,0.113l-50.532,29.174    c-3.876,2.238-5.204,7.194-2.966,11.07c1.501,2.6,4.225,4.053,7.026,4.053c1.374,0,2.769-0.35,4.044-1.087l50.532-29.174    c0.076-0.044,0.146-0.096,0.22-0.143c0.072-0.039,0.148-0.07,0.22-0.112c0.001,0,0.003-0.001,0.004-0.002l10.289-5.941    c1.943-1.123,4.439-0.452,5.556,1.48l0.252,0.439c0.735,1.271,0.569,2.48,0.407,3.088c-0.162,0.608-0.626,1.737-1.897,2.471    l-8.488,4.9c-0.629,0.282-1.25,0.598-1.861,0.95l-13.073,7.548c-0.372,0.214-0.712,0.461-1.036,0.722l-36.809,21.252    c-3.876,2.238-5.204,7.194-2.966,11.07c1.501,2.6,4.225,4.053,7.026,4.053c1.374,0,2.769-0.35,4.044-1.087l40.863-23.591    c0.372-0.214,0.712-0.461,1.036-0.723c0.389-0.15,0.774-0.322,1.145-0.537l8.724-5.037c0.938-0.286,1.77-0.164,2.239-0.039    c0.608,0.162,1.739,0.626,2.478,1.907l0.242,0.417C238.575,332.502,238.412,333.713,238.248,334.321z M255.907,306.352    l-0.262,0.451c-4.241,7.35-3.346,16.277,1.564,22.6c-0.977,0.949-1.858,2.004-2.637,3.152c-0.108-3.219-0.978-6.457-2.698-9.436    l-0.242-0.417c-0.944-1.637-2.097-3.075-3.387-4.336c1.646-2.112,2.871-4.55,3.585-7.215c1.401-5.232,0.682-10.697-2.021-15.378    l-0.252-0.438c-4.243-7.35-12.43-11.046-20.354-9.947c-0.456-1.801-1.164-3.552-2.12-5.207l-0.242-0.417    c-0.055-0.095-0.12-0.179-0.176-0.272c3.064,1.862,6.645,2.954,10.487,2.954h0.493c1.895,0,3.722-0.281,5.465-0.769    c3.02,7.411,10.293,12.655,18.779,12.655h0.493c8.489,0,15.777-5.243,18.795-12.66c1.767,0.504,3.631,0.774,5.557,0.774h0.493    c0.321,0,0.632-0.034,0.949-0.049c-4.029,1.708-7.394,4.643-9.624,8.508l-0.239,0.416c-0.936,1.621-1.618,3.338-2.074,5.102    c-2.649-0.367-5.37-0.209-8.029,0.502C262.975,298.328,258.602,301.683,255.907,306.352z M400.797,417.163l-6.722-3.88    c-0.214-0.123-0.435-0.233-0.661-0.331l-0.016-0.008c-1.586-0.675-3.425-0.699-5.031-0.04l-2.092-1.207    c-2.193-1.265-4.857-1.431-7.195-0.446c-12.738,5.369-20.58,6.697-26.777,6.207c-1.158-0.373-2.309-0.764-3.464-1.177    c-0.143-0.051-0.283-0.1-0.426-0.151c-0.579-0.206-1.17-0.418-1.77-0.628c-0.076-0.027-0.151-0.054-0.228-0.08    c-0.615-0.215-1.245-0.431-1.888-0.644c-0.056-0.019-0.111-0.037-0.167-0.055c-3.132-1.03-6.617-1.987-10.745-2.538    c-5.906-1.715-13.192-2.968-23.136-1.901c-12.683,1.357-17.652-1.826-18.641-3.87c-0.318-2.769,0.51-4.123,1.377-5.084    c4.981-5.512,20.317-6.543,26.964-6.17c4.445,0.256,8.29-3.156,8.549-7.622c0.196-3.356-1.682-6.354-4.523-7.747    c-0.098-0.063-0.191-0.13-0.293-0.189l-24.516-14.154c0,0,0-0.001-0.001-0.001l-30.349-17.523    c-1.272-0.735-1.734-1.865-1.898-2.472c-0.162-0.609-0.327-1.819,0.414-3.1l0.24-0.417c0.734-1.271,1.864-1.733,2.471-1.896    c0.609-0.163,1.819-0.326,3.088,0.406l0.001,0.001c0.077,0.044,0.157,0.078,0.234,0.119c0.07,0.044,0.135,0.093,0.207,0.135    l50.532,29.174c1.277,0.737,2.67,1.087,4.044,1.087c2.801,0,5.525-1.453,7.026-4.053c2.238-3.876,0.91-8.832-2.966-11.07    l-50.532-29.174c-0.077-0.044-0.158-0.079-0.237-0.121c-0.07-0.042-0.134-0.091-0.205-0.132c0-0.001-0.001-0.001-0.001-0.001    l-10.292-5.942c-1.945-1.124-2.613-3.621-1.504-5.541l0.26-0.449c0.734-1.272,1.864-1.734,2.471-1.897    c0.607-0.163,1.818-0.327,3.089,0.407l8.494,4.903c0.56,0.403,1.14,0.783,1.745,1.132l13.073,7.548    c0.373,0.215,0.757,0.387,1.146,0.537l36.806,21.252c1.276,0.737,2.67,1.087,4.044,1.087c2.801,0,5.524-1.453,7.026-4.053    c2.238-3.876,0.91-8.832-2.966-11.07l-40.861-23.593c-0.372-0.215-0.755-0.386-1.144-0.536c-0.325-0.261-0.666-0.509-1.038-0.724    l-8.723-5.036c-0.719-0.67-1.029-1.45-1.155-1.919c-0.162-0.609-0.327-1.819,0.414-3.1l0.24-0.417    c0.734-1.271,1.864-1.733,2.471-1.896c0.609-0.162,1.82-0.326,3.089,0.407l25.291,14.601c0.001,0.001,0.002,0.001,0.003,0.002    c0.002,0.001,0.004,0.002,0.005,0.003l25.675,14.823c1.277,0.737,2.67,1.087,4.044,1.087c2.801,0,5.525-1.453,7.026-4.053    c2.238-3.876,0.91-8.832-2.966-11.07l-25.682-14.828c-1.942-1.124-2.608-3.617-1.473-5.584l0.23-0.402    c1.124-1.945,3.62-2.615,5.565-1.491l30.348,17.521c0.051,0.029,0.103,0.058,0.153,0.086c16.16,8.868,40.126,27,40.241,37.757    c0.031,2.863,1.572,5.499,4.052,6.931l20.432,11.797L400.797,417.163z"/>
	</g>
</g>
<g>
</g>
<g>
</g>
<g>
</g>
<g>
</g>
<g>
</g>
<g>
</g>
<g>
</g>
<g>
</g>
<g>
</g>
<g>
</g>
<g>
</g>
<g>
</g>
<g>
</g>
<g>
</g>
<g>
</g>
</svg>
