<?xml version="1.0" encoding="iso-8859-1"?>
<!-- Generator: Adobe Illustrator 19.0.0, SVG Export Plug-In . SVG Version: 6.00 Build 0)  -->
<svg xmlns="http://www.w3.org/2000/svg" xmlns:xlink="http://www.w3.org/1999/xlink" version="1.1" id="Layer_1" x="0px" y="0px" viewBox="0 0 511.999 511.999" style="enable-background:new 0 0 511.999 511.999;" xml:space="preserve">
<g>
	<g>
		<g>
			<path d="M95.751,412.49v-0.001c0.01,0,0.018,0.002,0.026,0.002c0.011,0,0.02-0.002,0.03-0.002h36.195h0.021h0.034     c0.01,0,0.02,0.002,0.03,0.002c0.009,0,0.017-0.002,0.025-0.002h14.572h71.815c4.463,0,8.079-3.693,8.079-8.155v-38.643     c0-34.957-24.058-52.469-37.041-56.971l-26.955-11.233l-18.138-11.969v-4.437c13.868-7.601,24.009-21.168,26.97-37.224     c12.179-2.223,21.441-12.905,21.441-25.715c0-6.716-2.547-12.848-6.723-17.484v-25.47c0-38.448-31.279-69.727-69.726-69.727     h-5.139c-38.445,0-69.724,31.28-69.724,69.727v25.593c-4.112,4.621-6.617,10.703-6.617,17.362     c0,12.811,9.264,23.492,21.442,25.715c2.961,16.055,13.102,29.624,26.971,37.224v3.963l-18.196,12.007     c-0.238,0.074-0.474,0.157-0.709,0.254L37.039,308.72C24.057,313.222,0,330.733,0,365.691v38.71c0,4.463,3.616,8.089,8.079,8.089     h53.056c4.463,0,8.079-3.616,8.079-8.079s-3.616-8.079-8.079-8.079h-7.814v-32.401c0-4.463-3.616-8.079-8.079-8.079     c-4.463,0-8.079,3.616-8.079,8.079v32.401H16.158v-30.639c0-32.158,25.291-41.392,26.319-41.753     c0.181-0.061,0.359-0.127,0.534-0.201l19.505-8.129l22.67,80.93c-3.596,0.819-6.281,4.028-6.281,7.872     c0,4.463,3.616,8.079,8.079,8.079H95.751z M172.317,209.879c2.641,1.8,4.381,4.831,4.381,8.262c0,3.43-1.74,6.461-4.381,8.261     V209.879z M55.466,226.403c-2.642-1.8-4.382-4.831-4.382-8.262c0-3.432,1.74-6.464,4.382-8.263V226.403z M93.655,366.867     l-4.341-15.499c0.683-0.258,1.341-0.59,1.941-1.032l2.473-1.819l2.084,4.976L93.655,366.867z M105.268,396.331l5.767-35.753     h5.711l5.767,35.753H105.268z M113.592,312.274l-14.094-13.728v-9.071c0-0.002,0-0.005,0-0.009v-2.691     c3.077,0.553,6.236,0.856,9.468,0.856h9.854c3.232,0,6.392-0.304,9.467-0.856v10.247L113.592,312.274z M120.139,338.802     l-2.109,5.618h-8.499l-2.413-5.761l6.413-4.72L120.139,338.802z M134.157,367.052l-2.214-13.719l1.718-4.575l2.147,1.578     c0.813,0.599,1.726,1.012,2.676,1.269L134.157,367.052z M165.213,316.087l18.354,7.649c0.143,0.06,0.339,0.133,0.486,0.184     c1.076,0.378,26.367,9.612,26.367,41.769v30.639h-21.006v-32.401c0-4.463-3.616-8.079-8.079-8.079     c-4.463,0-8.079,3.616-8.079,8.079v32.401h-26.571h-3.949L165.213,316.087z M149.077,307.935l-11.502,23.638l-2.758-2.029     c-0.005-0.004-0.012-0.009-0.017-0.013l-9.01-6.63l16.393-17.017c0.498-0.516,0.904-1.085,1.237-1.683L149.077,307.935z      M63.575,187.37h-0.003c-0.01,0-0.02,0-0.029,0c-0.279,0-0.553,0.014-0.824,0.041c-0.072,0.008-0.143,0.024-0.214,0.032     c-0.197,0.025-0.394,0.051-0.587,0.089c-0.093,0.019-0.181,0.048-0.274,0.071c-0.167,0.041-0.336,0.078-0.499,0.128     c-0.113,0.036-0.223,0.082-0.334,0.122c-0.136,0.048-0.275,0.093-0.407,0.149c-0.128,0.054-0.249,0.12-0.375,0.18     c-0.11,0.054-0.223,0.101-0.331,0.159c-0.126,0.069-0.247,0.148-0.368,0.223c-0.099,0.06-0.201,0.115-0.296,0.18     c-0.117,0.08-0.227,0.169-0.34,0.254c-0.094,0.07-0.192,0.136-0.281,0.21c-0.103,0.085-0.199,0.179-0.297,0.268     c-0.092,0.084-0.188,0.164-0.277,0.251c-0.048,0.048-0.093,0.102-0.14,0.153v-14.697c0.002-29.536,24.032-53.568,53.568-53.568     h5.139c29.538,0,53.568,24.032,53.568,53.569v14.579c-0.064-0.065-0.135-0.125-0.2-0.187c-0.103-0.098-0.207-0.195-0.316-0.288     c-0.088-0.074-0.179-0.144-0.27-0.214c-0.113-0.089-0.227-0.177-0.346-0.26c-0.1-0.069-0.204-0.134-0.307-0.199     c-0.114-0.072-0.229-0.144-0.348-0.211c-0.122-0.069-0.248-0.13-0.374-0.193c-0.107-0.052-0.21-0.106-0.32-0.154     c-0.152-0.067-0.306-0.125-0.462-0.182c-0.092-0.033-0.181-0.07-0.274-0.1c-0.176-0.057-0.354-0.104-0.534-0.15     c-0.067-0.017-0.128-0.04-0.195-0.055c-16.758-3.812-22.027-25.54-22.072-25.732c-0.7-3.096-3.151-5.495-6.261-6.13     c-3.112-0.639-6.305,0.608-8.165,3.18C109.132,187.087,64.18,187.37,63.575,187.37z M71.624,234.134v-31.02     c13.665-1.208,41.595-5.917,61.672-24.306c4.154,8.082,11.287,17.691,22.862,22.501v32.826c0,20.589-16.751,37.34-37.339,37.34     h-9.854C88.375,271.473,71.624,254.722,71.624,234.134z M77.986,307.934l5.674-3.743c0.376,1.306,1.078,2.536,2.121,3.551     l15.532,15.13l-11.826,8.703L77.986,307.934z"/>
			<path d="M92.059,81.027c44.559-41.728,102.725-64.709,163.781-64.709c54.96,0,107.571,18.629,150.031,52.784h-13.016     c-4.463,0-8.079,3.617-8.079,8.079s3.616,8.079,8.079,8.079h32.289c4.463,0,8.079-3.617,8.079-8.079V48.096     c0-4.462-3.616-8.079-8.079-8.079c-4.463,0-8.079,3.617-8.079,8.079v9.264C371.555,20.353,314.969,0.159,255.84,0.159     c-65.173,0-127.261,24.531-174.827,69.073c-3.256,3.05-3.424,8.163-0.375,11.42C83.688,83.909,88.802,84.077,92.059,81.027z"/>
			<path d="M413.112,436.863c-43.581,37.929-99.435,58.818-157.272,58.818c-52.005,0-102.401-16.897-143.719-47.876h13.431     c4.462,0,8.079-3.616,8.079-8.079s-3.617-8.079-8.079-8.079H93.264c-4.463,0-8.079,3.616-8.079,8.079v29.085     c0,4.463,3.616,8.079,8.079,8.079s8.079-3.616,8.079-8.079v-8.884c44.307,33.589,98.532,51.912,154.497,51.912     c61.736,0,121.358-22.299,167.881-62.788c3.365-2.929,3.72-8.032,0.79-11.398C421.58,434.288,416.481,433.933,413.112,436.863z"/>
			<path d="M474.959,308.72l-26.955-11.233l-18.138-11.969v-4.437c13.868-7.601,24.009-21.168,26.97-37.224     c12.179-2.223,21.441-12.905,21.441-25.715c0-6.716-2.547-12.848-6.723-17.484v-25.47c0-38.448-31.279-69.727-69.726-69.727     h-5.141c-38.446,0-69.724,31.28-69.724,69.727v25.593c-4.112,4.621-6.617,10.703-6.617,17.362     c0,12.811,9.264,23.492,21.442,25.715c2.962,16.055,13.103,29.624,26.971,37.224v3.963l-18.198,12.007     c-0.238,0.074-0.474,0.157-0.709,0.254l-27.394,11.415c-12.984,4.502-37.04,22.014-37.04,56.971v38.71     c0,4.463,3.616,8.089,8.079,8.089h53.056c4.463,0,8.079-3.616,8.079-8.079c0-4.463-3.616-8.079-8.079-8.079h-7.814v-32.401     c0-4.463-3.616-8.079-8.079-8.079c-4.463,0-8.079,3.616-8.079,8.079v32.401h-21.003v-30.639     c0-32.158,25.291-41.392,26.319-41.753c0.181-0.061,0.359-0.127,0.534-0.201l19.505-8.129l22.669,80.929     c-3.595,0.819-6.28,4.028-6.28,7.872c0,4.463,3.616,8.079,8.079,8.079h8.768c0.009,0,0.017,0.002,0.025,0.002     c0.011,0,0.022-0.002,0.03-0.002h36.195h0.022h0.034c0.011,0,0.019,0.002,0.03,0.002c0.009,0,0.017-0.002,0.026-0.002h14.57     h71.815c4.463,0,8.079-3.693,8.079-8.155v-38.643C512,330.733,487.942,313.222,474.959,308.72z M457.737,209.879     c2.642,1.8,4.381,4.831,4.381,8.262c0,3.43-1.739,6.461-4.381,8.261V209.879z M340.887,226.403     c-2.642-1.8-4.382-4.831-4.382-8.262c0-3.432,1.74-6.464,4.382-8.263V226.403z M348.997,187.37h-0.003c-0.01,0-0.021,0-0.029,0     c-0.278,0-0.554,0.014-0.824,0.041c-0.072,0.008-0.143,0.024-0.214,0.032c-0.197,0.025-0.394,0.051-0.586,0.089     c-0.094,0.019-0.183,0.048-0.275,0.071c-0.167,0.041-0.335,0.078-0.499,0.128c-0.113,0.036-0.222,0.082-0.334,0.122     c-0.137,0.048-0.275,0.093-0.407,0.149c-0.127,0.054-0.249,0.12-0.374,0.18c-0.111,0.054-0.224,0.101-0.332,0.159     c-0.126,0.069-0.247,0.148-0.37,0.223c-0.098,0.06-0.2,0.115-0.296,0.18c-0.117,0.08-0.228,0.169-0.34,0.254     c-0.094,0.07-0.191,0.136-0.281,0.21c-0.103,0.085-0.199,0.179-0.296,0.268c-0.093,0.084-0.19,0.164-0.278,0.251     c-0.049,0.048-0.093,0.102-0.14,0.153v-14.697c0.002-29.536,24.032-53.568,53.568-53.568h5.141     c29.537,0,53.568,24.032,53.568,53.569v14.579c-0.065-0.065-0.135-0.125-0.2-0.187c-0.104-0.098-0.207-0.195-0.316-0.288     c-0.087-0.074-0.18-0.144-0.27-0.214c-0.113-0.089-0.227-0.177-0.346-0.26c-0.1-0.069-0.204-0.134-0.307-0.199     c-0.114-0.072-0.229-0.144-0.348-0.211c-0.122-0.069-0.248-0.13-0.375-0.193c-0.106-0.052-0.21-0.106-0.319-0.154     c-0.151-0.067-0.306-0.125-0.462-0.182c-0.092-0.033-0.181-0.07-0.274-0.1c-0.174-0.057-0.354-0.104-0.534-0.15     c-0.066-0.017-0.128-0.04-0.195-0.055c-16.758-3.812-22.027-25.54-22.072-25.732c-0.7-3.096-3.151-5.495-6.261-6.13     c-3.111-0.639-6.306,0.608-8.165,3.18C394.554,187.087,349.601,187.37,348.997,187.37z M357.045,234.134v-31.021     c13.665-1.208,41.598-5.919,61.672-24.306c4.154,8.082,11.287,17.691,22.862,22.501v32.826c0,20.589-16.751,37.34-37.339,37.34     h-9.853C373.796,271.473,357.045,254.722,357.045,234.134z M392.539,338.658l6.414-4.72l6.608,4.864l-2.109,5.618h-8.499v0     L392.539,338.658z M399.011,312.274l-14.094-13.728v-9.071h0.001c0-0.002,0-0.005,0-0.009v-2.691     c3.074,0.553,6.236,0.856,9.468,0.856h9.853c3.232,0,6.392-0.304,9.467-0.856v10.247L399.011,312.274z M379.074,366.867     l-4.341-15.499c0.683-0.258,1.341-0.59,1.942-1.032l2.473-1.819l2.084,4.976L379.074,366.867z M374.909,331.574l-11.501-23.639     l5.674-3.744c0.375,1.306,1.078,2.536,2.121,3.551l15.532,15.13L374.909,331.574z M390.689,396.331l5.767-35.753h5.711     l5.769,35.753H390.689z M427.604,305.884c0.498-0.516,0.903-1.085,1.236-1.683l5.656,3.734l-11.5,23.638l-2.758-2.029     c-0.005-0.004-0.011-0.009-0.017-0.013l-9.01-6.63L427.604,305.884z M419.578,367.052l-2.214-13.719l1.718-4.575l2.147,1.578     c0.813,0.599,1.726,1.012,2.676,1.269L419.578,367.052z M495.842,396.331h-21.006V363.93c0-4.463-3.616-8.079-8.079-8.079     s-8.079,3.616-8.079,8.079v32.401h-26.572h-3.948l22.476-80.242l18.354,7.649c0.143,0.06,0.338,0.133,0.486,0.184     c1.076,0.378,26.368,9.612,26.368,41.769V396.331z"/>
		</g>
	</g>
</g>
<g>
</g>
<g>
</g>
<g>
</g>
<g>
</g>
<g>
</g>
<g>
</g>
<g>
</g>
<g>
</g>
<g>
</g>
<g>
</g>
<g>
</g>
<g>
</g>
<g>
</g>
<g>
</g>
<g>
</g>
</svg>
