<?xml version="1.0" encoding="iso-8859-1"?>
<!-- Generator: Adobe Illustrator 19.0.0, SVG Export Plug-In . SVG Version: 6.00 Build 0)  -->
<svg xmlns="http://www.w3.org/2000/svg" xmlns:xlink="http://www.w3.org/1999/xlink" version="1.1" id="Layer_1" x="0px" y="0px" viewBox="0 0 512 512" style="enable-background:new 0 0 512 512;" xml:space="preserve">
<g>
	<g>
		<g>
			<path d="M503.916,202.797h-44.118c-4.865-18.692-12.273-36.558-22.086-53.264l31.212-31.216c3.157-3.157,3.157-8.275,0-11.432     l-63.808-63.808c-1.517-1.516-3.572-2.367-5.717-2.367c-2.144,0-4.199,0.852-5.717,2.368l-31.213,31.214     c-16.704-9.813-34.569-17.223-53.264-22.086V8.085c0-4.466-3.618-8.084-8.084-8.084h-90.24c-4.466,0-8.084,3.618-8.084,8.084     v44.119c-18.695,4.865-36.559,12.273-53.264,22.086l-31.213-31.214c-1.517-1.517-3.572-2.368-5.717-2.368     c-2.144,0-4.199,0.852-5.717,2.368l-63.81,63.811c-1.516,1.517-2.367,3.572-2.367,5.717c0,2.144,0.852,4.201,2.368,5.717     l31.213,31.21c-9.814,16.706-17.223,34.572-22.086,53.264H8.084c-4.466,0-8.084,3.618-8.084,8.084v90.24     c0,4.465,3.619,8.084,8.084,8.084h44.119c4.865,18.694,12.273,36.56,22.087,53.266l-31.215,31.21     c-1.517,1.516-2.368,3.573-2.368,5.717s0.852,4.199,2.367,5.717l63.81,63.808c3.157,3.155,8.276,3.157,11.432,0l31.214-31.212     c16.704,9.813,34.57,17.222,53.264,22.087v44.115c0,4.466,3.618,8.084,8.084,8.084h90.24c4.466,0,8.084-3.618,8.084-8.084V459.8     c18.694-4.867,36.56-12.275,53.264-22.087l31.214,31.212c3.156,3.156,8.275,3.156,11.432,0l63.808-63.808     c3.157-3.158,3.157-8.276,0-11.432L437.71,362.47c9.813-16.703,17.221-34.57,22.085-53.263h44.12c4.465,0,8.084-3.62,8.084-8.084     v-90.24C512,206.415,508.38,202.797,503.916,202.797z M495.832,293.036h-42.383c-3.774,0-7.045,2.611-7.883,6.291     c-4.845,21.296-13.225,41.503-24.903,60.061c-2.009,3.194-1.544,7.352,1.125,10.021l29.985,29.989l-52.376,52.376l-29.987-29.985     c-2.669-2.668-6.826-3.136-10.021-1.125c-18.558,11.677-38.766,20.056-60.065,24.905c-3.679,0.836-6.289,4.109-6.289,7.883     v42.379h-74.072v-42.379c0-3.774-2.611-7.045-6.29-7.883c-21.298-4.848-41.506-13.228-60.065-24.905     c-3.193-2.008-7.352-1.542-10.021,1.125l-29.987,29.985l-52.377-52.376l29.987-29.984c2.67-2.669,3.137-6.828,1.126-10.022     c-11.679-18.561-20.059-38.77-24.904-60.066c-0.838-3.68-4.11-6.291-7.883-6.291H16.168v-74.072h42.383     c3.774,0,7.045-2.611,7.883-6.291c4.845-21.294,13.224-41.502,24.903-60.064c2.01-3.194,1.544-7.353-1.126-10.022l-29.986-29.984     l52.378-52.38l29.986,29.988c2.67,2.67,6.828,3.138,10.023,1.126c18.557-11.679,38.765-20.057,60.062-24.905     c3.68-0.838,6.291-4.11,6.291-7.883V16.168h74.072v42.383c0,3.774,2.611,7.045,6.291,7.883     c21.297,4.846,41.505,13.225,60.062,24.905c3.197,2.011,7.356,1.544,10.023-1.126l29.986-29.988l52.376,52.376l-29.985,29.989     c-2.669,2.669-3.135,6.827-1.125,10.021c11.679,18.561,20.056,38.77,24.903,60.064c0.838,3.68,4.11,6.291,7.883,6.291h42.382     V293.036z"/>
			<path d="M403.226,250.695c-0.03-0.904-0.067-1.808-0.113-2.715c-0.018-0.336-0.04-0.672-0.063-1.008l-0.033-0.522     c-0.054-0.827-0.11-1.649-0.175-2.455c-0.033-0.414-0.07-0.827-0.108-1.237l-0.031-0.358c-0.073-0.792-0.151-1.581-0.237-2.389     c-0.06-0.545-0.122-1.091-0.18-1.551c-0.092-0.795-0.195-1.59-0.301-2.392c-0.07-0.522-0.143-1.044-0.218-1.55     c-0.117-0.808-0.245-1.614-0.379-2.437l-0.069-0.425c-0.056-0.343-0.111-0.687-0.171-1.026c-0.15-0.858-0.308-1.711-0.462-2.497     l-0.038-0.202c-0.071-0.382-0.141-0.761-0.217-1.135c-0.198-0.977-0.407-1.949-0.61-2.863l-0.043-0.202     c-0.056-0.264-0.112-0.528-0.157-0.719c-0.581-2.543-1.24-5.106-1.95-7.583l-0.213-0.724c-0.293-1.004-0.593-2.005-0.922-3.049     l-0.33-1.009c-0.281-0.871-0.568-1.736-0.86-2.587c-0.142-0.42-0.292-0.839-0.421-1.196c-0.29-0.827-0.589-1.654-0.87-2.397     c-0.119-0.324-0.243-0.648-0.365-0.97l-0.132-0.345c-0.306-0.789-0.612-1.576-0.933-2.365l-0.495-1.212     c-0.326-0.781-0.656-1.558-0.988-2.321c-0.175-0.403-0.349-0.804-0.523-1.193c-0.358-0.805-0.728-1.604-1.108-2.42l-0.101-0.222     c-0.088-0.196-0.177-0.392-0.271-0.586c-0.041-0.086-0.085-0.174-0.13-0.26c-6.221-13.017-14.305-25.033-24.034-35.722     c-0.059-0.068-0.119-0.135-0.179-0.201l-0.861-0.921c-0.503-0.543-1.009-1.089-1.48-1.577c-0.244-0.255-0.488-0.507-0.736-0.757     l-0.296-0.302c-0.511-0.524-1.021-1.046-1.544-1.565c-0.268-0.267-0.538-0.529-0.807-0.79l-0.291-0.283     c-0.502-0.488-1.004-0.977-1.511-1.459c-3.242-3.069-8.358-2.933-11.429,0.307c-3.071,3.241-2.933,8.358,0.307,11.43     c0.456,0.431,0.906,0.87,1.35,1.301l0.979,0.957c0.46,0.458,0.914,0.922,1.367,1.387l0.344,0.35     c0.182,0.184,0.363,0.369,0.585,0.603c0.44,0.455,0.871,0.922,1.299,1.384l0.714,0.762c0.033,0.038,0.068,0.075,0.101,0.112     c8.779,9.617,16.06,20.442,21.64,32.177c0.032,0.069,0.066,0.137,0.102,0.205l0.245,0.536c0.331,0.704,0.655,1.409,0.977,2.131     c0.154,0.344,0.303,0.689,0.458,1.046c0.303,0.7,0.604,1.401,0.88,2.064l0.462,1.134c0.285,0.701,0.558,1.406,0.816,2.067     l0.125,0.33c0.095,0.246,0.19,0.493,0.307,0.815c0.264,0.702,0.521,1.412,0.791,2.181c0.119,0.333,0.239,0.667,0.358,1.014     c0.264,0.771,0.52,1.542,0.78,2.351l0.298,0.908c0.28,0.894,0.549,1.79,0.789,2.615l0.203,0.683     c0.639,2.232,1.224,4.51,1.758,6.844l0.152,0.702c0.194,0.868,0.379,1.735,0.558,2.618c0.059,0.291,0.112,0.583,0.167,0.876     l0.052,0.275c0.146,0.749,0.286,1.502,0.418,2.258l0.211,1.281c0.116,0.719,0.231,1.437,0.338,2.171     c0.066,0.448,0.128,0.899,0.188,1.339c0.093,0.698,0.184,1.4,0.275,2.188c0.058,0.457,0.11,0.914,0.157,1.351     c0.075,0.71,0.147,1.422,0.209,2.112l0.125,1.437c0.06,0.73,0.11,1.464,0.156,2.176l0.037,0.577     c0.018,0.262,0.036,0.524,0.049,0.778c0.042,0.805,0.073,1.616,0.102,2.44l0.045,1.131c0.03,1.198,0.051,2.4,0.051,3.604     c0,7.797-0.691,15.612-2.051,23.235c-0.382,2.143-0.821,4.293-1.307,6.396c-0.245,1.056-0.502,2.109-0.773,3.163     c-0.532,2.073-1.12,4.142-1.748,6.162c-2.271-1.35-4.074-2.075-4.812-2.344l-21.153-8.481v-0.233     c5.66-3.665,10.089-9.07,12.523-15.458c8.714-1.463,15.38-9.038,15.38-18.159c0-5.323-2.28-10.11-5.899-13.477v-8.986     c0-22.373-18.201-40.575-40.574-40.575h-2.708c-9.881,0-18.945,3.555-25.991,9.448c-6.889-21.143-26.779-36.471-50.191-36.471     h-3.725c-23.46,0-43.385,15.388-50.235,36.599c-7.067-5.968-16.188-9.576-26.139-9.576h-2.708     c-22.373,0-40.575,18.202-40.575,40.575v8.931c-3.654,3.371-5.959,8.181-5.959,13.532c0,9.189,6.767,16.808,15.576,18.188     c2.436,6.374,6.859,11.768,12.51,15.428v0.184l-21.751,8.518c-0.642,0.234-2.21,0.855-4.225,1.996     c-0.273-0.888-0.563-1.769-0.818-2.667c-0.293-1.046-0.578-2.099-0.848-3.139c-0.538-2.092-1.03-4.228-1.463-6.344     c-1.769-8.645-2.666-17.542-2.666-26.445c0-1.2,0.018-2.398,0.048-3.558l0.045-1.175c0.029-0.808,0.059-1.616,0.103-2.436     l0.086-1.369c0.047-0.72,0.094-1.442,0.155-2.181l0.123-1.404c0.067-0.716,0.137-1.429,0.209-2.117     c0.051-0.474,0.107-0.947,0.164-1.427c0.083-0.698,0.172-1.398,0.271-2.125c0.061-0.462,0.127-0.925,0.192-1.372     c0.104-0.703,0.213-1.404,0.328-2.099l0.231-1.386c0.122-0.728,0.262-1.451,0.405-2.199l0.049-0.263     c0.057-0.3,0.112-0.6,0.174-0.9c0.168-0.831,0.345-1.658,0.523-2.458l0.205-0.939c0.518-2.266,1.099-4.526,1.737-6.751     l0.218-0.731c0.249-0.848,0.501-1.693,0.77-2.551c0.073-0.235,0.151-0.468,0.227-0.701l0.113-0.345     c0.235-0.724,0.472-1.449,0.737-2.214c0.079-0.234,0.161-0.466,0.244-0.695l0.152-0.43c0.246-0.689,0.494-1.374,0.758-2.083     c0.147-0.398,0.297-0.79,0.439-1.159c0.258-0.667,0.52-1.331,0.799-2.022c0.161-0.399,0.323-0.799,0.48-1.179     c0.275-0.662,0.556-1.318,0.846-1.987c0.167-0.389,0.337-0.777,0.498-1.138c0.3-0.67,0.607-1.334,0.908-1.979l0.296-0.648     c0.037-0.072,0.073-0.148,0.109-0.221c5.575-11.729,12.855-22.553,21.639-32.173c0.028-0.031,0.057-0.064,0.085-0.095     l0.537-0.572c0.5-0.541,1.002-1.083,1.514-1.618l0.852-0.871c0.478-0.49,0.957-0.982,1.404-1.429l1.401-1.365     c0.312-0.303,0.624-0.608,0.928-0.894l1.04-0.967c0.446-0.415,0.895-0.831,1.355-1.243c0.357-0.321,0.716-0.637,1.058-0.941     c0.471-0.413,0.943-0.827,1.355-1.184l1.129-0.952c0.463-0.388,0.929-0.777,1.399-1.16c0.309-0.252,0.622-0.503,0.933-0.752     l1.802-1.419c0.316-0.243,0.633-0.486,0.987-0.752c0.466-0.352,0.933-0.703,1.417-1.058c0.397-0.293,0.792-0.584,1.191-0.871     c0.484-0.346,0.968-0.689,1.434-1.014l0.15-0.105c0.369-0.257,0.734-0.512,1.074-0.745c0.49-0.333,0.983-0.661,1.498-1.001     c0.418-0.278,0.838-0.556,1.229-0.811c0.499-0.321,1.002-0.637,1.516-0.958l0.175-0.11c0.361-0.227,0.722-0.455,1.092-0.681     c0.501-0.307,1.009-0.607,1.528-0.914l0.393-0.235c0.277-0.165,0.553-0.332,0.895-0.526c0.446-0.259,0.898-0.512,1.35-0.764     l0.732-0.41c0.248-0.14,0.498-0.281,0.755-0.421c0.412-0.224,0.828-0.442,1.242-0.66l1.02-0.539     c0.207-0.11,0.414-0.221,0.624-0.33c0.61-0.313,1.223-0.613,1.837-0.917l1.442-0.704c0.856-0.409,1.715-0.812,2.608-1.214     c0.271-0.123,0.542-0.241,0.815-0.36l0.863-0.377c0.439-0.193,0.877-0.385,1.333-0.579c0.278-0.117,0.557-0.23,0.836-0.342     l0.948-0.385c0.417-0.17,0.831-0.341,1.244-0.503c0.329-0.129,0.659-0.252,0.99-0.377l0.761-0.288     c0.445-0.168,0.89-0.337,1.314-0.492l1.651-0.581c0.496-0.174,0.991-0.346,1.507-0.518c0.409-0.137,0.822-0.271,1.234-0.403     l0.655-0.209c0.418-0.134,0.835-0.266,1.263-0.397c0.518-0.16,1.041-0.313,1.541-0.46c0.553-0.16,1.108-0.321,1.647-0.472     c0.53-0.148,1.058-0.288,1.581-0.427c0.55-0.147,1.104-0.29,1.679-0.434c0.521-0.133,1.047-0.259,1.581-0.386     c0.553-0.132,1.104-0.258,1.671-0.385c0.528-0.119,1.057-0.234,1.612-0.35c0.452-0.096,0.907-0.188,1.361-0.278l0.298-0.06     c0.541-0.106,1.085-0.211,1.63-0.312c0.57-0.106,1.144-0.204,1.734-0.304c0.534-0.093,1.066-0.181,1.589-0.263     c0.582-0.092,1.166-0.177,1.763-0.261l0.31-0.045c0.426-0.063,0.853-0.123,1.291-0.18c0.49-0.065,0.982-0.122,1.476-0.181     l0.939-0.109c0.323-0.038,0.648-0.076,0.992-0.112c0.459-0.049,0.92-0.091,1.381-0.133l1.033-0.094     c0.322-0.029,0.646-0.06,0.992-0.086c0.564-0.044,1.126-0.079,1.69-0.114l1.738-0.111c0.64-0.032,1.281-0.055,1.921-0.076     l0.846-0.033c0.24-0.01,0.48-0.022,0.693-0.026c1.129-0.028,2.263-0.044,3.383-0.046h0.211c1.135,0.002,2.268,0.018,3.37,0.045     l1.584,0.061c0.635,0.023,1.271,0.044,1.866,0.074l1.775,0.112c0.565,0.035,1.127,0.07,1.711,0.116     c0.324,0.025,0.649,0.055,0.972,0.084l1.039,0.095c0.459,0.041,0.917,0.083,1.394,0.134c0.362,0.038,0.722,0.08,1.084,0.122     l0.513,0.06c0.596,0.069,1.191,0.139,1.801,0.219c0.44,0.056,0.878,0.119,1.317,0.182l0.582,0.085     c0.482,0.069,0.964,0.14,1.442,0.214c0.545,0.086,1.092,0.178,1.627,0.268c0.576,0.098,1.15,0.198,1.689,0.295     c0.546,0.102,1.094,0.208,1.633,0.315c0.565,0.112,1.13,0.224,1.674,0.337c0.538,0.114,1.076,0.231,1.644,0.36     c0.548,0.122,1.095,0.247,1.635,0.377c0.541,0.128,1.079,0.26,1.63,0.399c0.55,0.137,1.096,0.281,1.633,0.422     c0.527,0.139,1.055,0.28,1.584,0.428c0.538,0.15,1.073,0.306,1.644,0.473c0.517,0.151,1.035,0.302,1.562,0.465     c0.529,0.161,1.055,0.329,1.597,0.504c0.522,0.167,1.044,0.335,1.548,0.502c0.527,0.178,1.053,0.361,1.599,0.553l0.372,0.129     c0.39,0.136,0.783,0.272,1.163,0.41c0.47,0.17,0.933,0.347,1.396,0.523l0.482,0.182c0.403,0.152,0.807,0.303,1.207,0.46     c0.393,0.155,0.786,0.315,1.176,0.474l0.947,0.385c0.31,0.126,0.62,0.251,0.924,0.38c0.49,0.206,0.975,0.421,1.463,0.636     l0.65,0.285c0.303,0.13,0.608,0.263,0.897,0.392c0.78,0.352,1.554,0.716,2.356,1.101c0.527,0.249,1.052,0.507,1.566,0.759     l0.301,0.149c0.542,0.266,1.083,0.531,1.638,0.819c0.279,0.142,0.554,0.29,0.829,0.434l0.764,0.404     c0.434,0.23,0.869,0.457,1.29,0.687c0.288,0.156,0.571,0.317,0.856,0.476l0.702,0.395c0.43,0.24,0.863,0.481,1.285,0.727     c0.428,0.248,0.852,0.502,1.312,0.777l0.292,0.172c0.401,0.237,0.802,0.473,1.209,0.724c0.306,0.189,0.611,0.379,0.916,0.57     l0.38,0.238c0.492,0.308,0.983,0.617,1.447,0.916c0.435,0.283,0.868,0.569,1.299,0.855c3.72,2.465,8.736,1.444,11.203-2.279     c2.464-3.723,1.444-8.739-2.279-11.204c-0.466-0.308-0.93-0.615-1.423-0.937c-0.55-0.356-1.106-0.704-1.671-1.057l-0.366-0.23     c-0.351-0.221-0.703-0.441-1.047-0.651c-0.476-0.292-0.96-0.579-1.442-0.864l-0.246-0.144c-0.489-0.293-0.98-0.586-1.478-0.876     c-0.498-0.289-1.004-0.57-1.506-0.852l-0.653-0.368c-0.347-0.196-0.696-0.391-1.056-0.589c-0.497-0.269-0.996-0.532-1.497-0.797     l-0.696-0.368c-0.35-0.188-0.701-0.374-1.036-0.544c-0.625-0.323-1.258-0.635-1.893-0.946l-0.304-0.15     c-0.591-0.29-1.182-0.58-1.747-0.847c-0.88-0.421-1.76-0.832-2.659-1.24c-0.369-0.165-0.738-0.326-1.107-0.486l-0.563-0.247     c-0.568-0.25-1.134-0.499-1.71-0.742c-0.374-0.157-0.748-0.309-1.124-0.462l-0.918-0.374c-0.459-0.188-0.919-0.374-1.38-0.555     c-0.47-0.184-0.941-0.362-1.413-0.54l-0.433-0.164c-0.538-0.204-1.078-0.409-1.631-0.609c-0.452-0.163-0.908-0.322-1.361-0.48     l-0.334-0.115c-0.599-0.211-1.198-0.42-1.816-0.627c-0.579-0.193-1.16-0.379-1.722-0.559c-0.609-0.197-1.22-0.391-1.823-0.576     c-0.597-0.183-1.195-0.36-1.765-0.524c-0.607-0.179-1.214-0.355-1.817-0.524c-0.604-0.168-1.207-0.331-1.821-0.493     c-0.609-0.16-1.216-0.319-1.815-0.469c-0.6-0.152-1.203-0.297-1.813-0.444c-0.621-0.148-1.244-0.292-1.837-0.423     c-0.611-0.139-1.223-0.272-1.854-0.405c-0.62-0.13-1.243-0.253-1.871-0.379c-0.605-0.12-1.211-0.237-1.851-0.356     c-0.633-0.114-1.267-0.225-1.91-0.335c-0.604-0.102-1.209-0.204-1.815-0.299c-0.54-0.085-1.082-0.164-1.625-0.245l-0.61-0.088     c-0.521-0.074-1.042-0.15-1.548-0.213c-0.665-0.087-1.333-0.165-2.016-0.246l-0.489-0.057c-0.433-0.051-0.866-0.101-1.281-0.144     c-0.535-0.057-1.07-0.107-1.607-0.156l-1.04-0.094c-0.404-0.038-0.808-0.073-1.19-0.104c-0.647-0.052-1.295-0.093-1.947-0.134     l-1.925-0.121c-0.722-0.037-1.449-0.064-2.174-0.087l-0.732-0.029c-0.319-0.014-0.638-0.026-0.986-0.037     c-1.25-0.03-2.508-0.049-3.783-0.051h-0.239c-1.261,0.002-2.519,0.02-3.797,0.052c-0.323,0.01-0.644,0.024-0.963,0.037     l-0.71,0.027c-0.731,0.025-1.459,0.052-2.23,0.091l-1.885,0.119c-0.649,0.041-1.295,0.082-1.92,0.132     c-0.411,0.031-0.817,0.068-1.224,0.106l-1.021,0.094c-0.541,0.05-1.08,0.099-1.599,0.154c-0.392,0.041-0.783,0.085-1.172,0.13     l-0.978,0.113c-0.554,0.067-1.105,0.131-1.644,0.203c-0.513,0.066-1.023,0.139-1.533,0.212l-0.288,0.042     c-0.656,0.094-1.315,0.19-1.983,0.294c-0.61,0.097-1.219,0.198-1.81,0.3c-0.642,0.11-1.286,0.221-1.927,0.338     c-0.603,0.111-1.207,0.227-1.846,0.352l-0.328,0.066c-0.518,0.105-1.038,0.208-1.53,0.313c-0.613,0.129-1.227,0.262-1.822,0.397     c-0.629,0.141-1.257,0.285-1.873,0.432c-0.608,0.144-1.215,0.292-1.797,0.439c-0.617,0.156-1.233,0.316-1.856,0.48     c-0.592,0.157-1.179,0.315-1.782,0.482c-0.605,0.169-1.212,0.345-1.839,0.528c-0.581,0.17-1.162,0.342-1.734,0.516     c-0.481,0.148-0.96,0.3-1.44,0.453l-0.707,0.226c-0.474,0.153-0.952,0.306-1.406,0.459c-0.571,0.191-1.139,0.388-1.708,0.587     l-0.625,0.219c-0.388,0.136-0.778,0.273-1.192,0.421c-0.52,0.19-1.034,0.384-1.549,0.579l-0.707,0.267     c-0.403,0.152-0.807,0.303-1.215,0.464c-0.494,0.194-0.983,0.393-1.473,0.595l-0.854,0.347c-0.374,0.151-0.747,0.302-1.105,0.454     c-0.511,0.216-1.016,0.438-1.522,0.66l-0.811,0.355c-0.355,0.154-0.708,0.308-1.03,0.455c-0.98,0.44-1.953,0.896-2.935,1.366     l-1.597,0.781c-0.693,0.341-1.384,0.682-2.07,1.034c-0.286,0.147-0.568,0.296-0.853,0.448l-0.94,0.496     c-0.489,0.258-0.978,0.515-1.457,0.776c-0.317,0.172-0.632,0.349-0.945,0.526l-0.694,0.388c-0.529,0.296-1.057,0.593-1.52,0.861     c-0.379,0.216-0.752,0.438-1.126,0.662l-0.337,0.202c-0.584,0.344-1.167,0.69-1.739,1.04c-0.421,0.258-0.839,0.52-1.258,0.784     l-0.162,0.101c-0.558,0.35-1.116,0.7-1.703,1.079c-0.469,0.304-0.932,0.611-1.376,0.908c-0.548,0.362-1.091,0.724-1.662,1.111     c-0.41,0.28-0.815,0.562-1.222,0.846l-0.171,0.12c-0.529,0.373-1.055,0.742-1.583,1.121c-0.464,0.332-0.922,0.668-1.366,0.996     c-0.532,0.391-1.066,0.79-1.56,1.165c-0.371,0.278-0.738,0.56-1.105,0.842l-2.059,1.62c-0.35,0.281-0.702,0.564-1.049,0.845     c-0.517,0.424-1.033,0.852-1.554,1.288l-1.272,1.073c-0.502,0.435-1.002,0.873-1.514,1.323c-0.396,0.348-0.79,0.698-1.177,1.046     c-0.527,0.472-1.048,0.954-1.562,1.432l-1.122,1.043c-0.37,0.349-0.735,0.703-1.099,1.059l-1.535,1.496     c-0.53,0.531-1.057,1.071-1.57,1.596l-0.246,0.25c-0.239,0.243-0.476,0.484-0.711,0.73c-0.583,0.608-1.154,1.223-1.715,1.83     l-0.213,0.227c-0.161,0.17-0.323,0.342-0.481,0.516c-0.037,0.041-0.073,0.082-0.11,0.124     c-9.743,10.695-17.836,22.713-24.055,35.731c-0.06,0.113-0.117,0.229-0.172,0.345l-0.403,0.882     c-0.346,0.742-0.689,1.483-1.036,2.257c-0.194,0.439-0.386,0.877-0.571,1.305c-0.317,0.733-0.63,1.462-0.943,2.216     c-0.185,0.448-0.369,0.899-0.537,1.323c-0.301,0.741-0.595,1.486-0.894,2.259c-0.174,0.453-0.346,0.906-0.507,1.339     c-0.285,0.761-0.562,1.527-0.847,2.33l-0.142,0.4c-0.109,0.307-0.217,0.613-0.306,0.876c-0.282,0.818-0.554,1.643-0.811,2.438     l-0.093,0.281c-0.107,0.322-0.212,0.645-0.307,0.951c-0.292,0.932-0.571,1.868-0.847,2.807l-0.076,0.254     c-0.064,0.215-0.128,0.428-0.181,0.614c-0.71,2.476-1.367,5.025-1.928,7.49c-0.061,0.253-0.115,0.509-0.169,0.764l-0.068,0.314     c-0.207,0.928-0.405,1.858-0.595,2.79c-0.077,0.382-0.149,0.761-0.22,1.143l-0.041,0.222c-0.161,0.839-0.32,1.678-0.456,2.481     c-0.066,0.378-0.128,0.758-0.191,1.138l-0.059,0.362c-0.129,0.791-0.254,1.586-0.373,2.392c-0.077,0.531-0.154,1.066-0.219,1.572     c-0.105,0.774-0.204,1.552-0.296,2.325c-0.066,0.541-0.127,1.079-0.189,1.643c-0.081,0.775-0.157,1.551-0.235,2.371l-0.042,0.474     c-0.033,0.369-0.067,0.736-0.094,1.084c-0.067,0.806-0.12,1.617-0.177,2.487l-0.032,0.511c-0.023,0.336-0.044,0.672-0.061,0.99     c-0.049,0.898-0.082,1.8-0.115,2.709l-0.049,1.302c-0.036,1.337-0.056,2.677-0.056,4.022c0,9.99,1.008,19.977,2.993,29.684     c0.486,2.38,1.039,4.779,1.648,7.149c0.302,1.165,0.615,2.326,0.945,3.496c8.583,30.22,27.112,57.445,52.175,76.66     c25.891,19.851,56.863,30.342,89.572,30.342c63.235,0,119.33-40.217,139.583-100.069c0.388-1.145,0.762-2.296,1.119-3.445     c0.715-2.291,1.384-4.648,1.989-7.002c0.303-1.178,0.593-2.361,0.866-3.543c0.548-2.365,1.043-4.789,1.471-7.199     c1.528-8.552,2.303-17.324,2.303-26.073c0-1.339-0.022-2.675-0.057-4.056L403.226,250.695z M334.043,203.411h2.708     c13.456,0,24.406,10.948,24.406,24.407v0.081c-4.432-2.824-6.176-9.482-6.184-9.512c-0.702-3.099-3.153-5.499-6.264-6.135     c-3.111-0.632-6.309,0.608-8.17,3.182c-7.205,9.957-21.36,12.477-27.927,13.114c-0.619-0.652-1.273-1.269-1.965-1.842v-5.814     h-0.002C313.637,210.798,322.991,203.411,334.043,203.411z M338.04,272.838h-5.164c-8.666,0-15.717-7.051-15.717-15.718v-3.463     c0-0.419-0.042-0.829-0.104-1.231c1.076-2.59,1.683-5.423,1.699-8.396c7.243-1.164,17.303-3.855,25.863-10.122     c2.281,3.237,5.296,6.275,9.139,8.411v14.801C353.758,265.788,346.707,272.838,338.04,272.838z M338.701,288.99l-3.488,3.621     l-3.449-3.36v-0.273c0.37,0.013,0.739,0.028,1.111,0.028h5.164C338.262,289.007,338.482,288.994,338.701,288.99z      M302.592,243.907c0,1.852-0.827,3.512-2.127,4.641v-8.921c0.165,0.045,0.33,0.092,0.499,0.125     C301.972,240.849,302.592,242.305,302.592,243.907z M298.395,266.13c1.273-0.112,2.509-0.345,3.711-0.662     c2.087,7.675,6.971,14.209,13.49,18.43v0.184l-21.736,8.511c-0.833,0.301-3.097,1.202-5.883,2.989l-7.607-3.049v-4.062     C288.789,283.486,295.267,275.568,298.395,266.13z M259.635,277.981h-7.104c-13.599,0-24.662-11.064-24.662-24.662v-20.317     c10.165-1.131,27.85-4.722,41.591-16.054c3.105,5.235,7.846,10.833,14.838,14.169v22.202     C284.297,266.917,273.233,277.981,259.635,277.981z M264.202,293.886v3.862l-8.388,8.705l-7.851-7.649v-4.918     c1.502,0.167,3.023,0.262,4.568,0.262h7.104C261.179,294.149,262.702,294.055,264.202,293.886z M217.52,213.003L217.52,213.003     c0-20.19,16.425-36.616,36.616-36.616h3.725c20.189,0,36.615,16.425,36.615,36.616v4.624c-0.026-0.008-0.052-0.014-0.078-0.02     c-0.074-0.019-0.147-0.046-0.223-0.064c-10.672-2.427-14.185-16.742-14.21-16.848c-0.702-3.098-3.153-5.498-6.265-6.134     c-3.109-0.637-6.31,0.608-8.17,3.181c-14.006,19.361-45.268,19.599-45.719,19.6c-0.01,0-0.019,0-0.028,0     c-0.278,0-0.554,0.014-0.825,0.041c-0.088,0.01-0.172,0.028-0.259,0.04c-0.182,0.024-0.364,0.046-0.542,0.082     c-0.122,0.025-0.239,0.063-0.359,0.093c-0.094,0.023-0.188,0.044-0.279,0.071V213.003z M210.78,239.939     c0.314-0.053,0.621-0.119,0.921-0.206v9.023c-1.444-1.128-2.378-2.879-2.378-4.847     C209.322,242.395,209.873,241.012,210.78,239.939z M209.82,265.471c1.278,0.335,2.598,0.569,3.955,0.673     c3.129,9.431,9.605,17.344,18.019,22.328v4.013l-8.264,3.236c-2.839-1.85-5.177-2.792-6.053-3.112l-21.145-8.478v-0.233     C202.848,279.678,207.733,273.145,209.82,265.471z M150.648,228.75v-0.932c0-13.458,10.948-24.407,24.407-24.407h2.708     c11.296,0,20.822,7.717,23.591,18.156v5.073c-0.132,0.109-0.258,0.224-0.387,0.335c-3.544-3.132-4.976-8.561-4.982-8.589     c-0.702-3.099-3.153-5.499-6.265-6.135c-3.11-0.632-6.309,0.608-8.17,3.182C172.862,227.436,154.06,228.632,150.648,228.75z      M179.05,272.838h-5.164c-8.666,0-15.717-7.051-15.717-15.718v-12.852c7.305-1.014,18.25-3.616,27.459-10.36     c1.979,2.807,4.521,5.453,7.666,7.501c-0.092,0.82-0.141,1.652-0.141,2.497c0,2.947,0.576,5.761,1.619,8.336     c0,0.019-0.004,0.037-0.004,0.055v4.821C194.768,265.788,187.718,272.838,179.05,272.838z M179.712,288.99l-3.488,3.621     l-3.449-3.36v-0.273c0.37,0.013,0.739,0.028,1.111,0.028h5.164C179.272,289.007,179.491,288.994,179.712,288.99z      M171.708,348.171v8.17c-14.87-12.461-27.019-28.201-35.225-46.289c2.066-1.562,3.792-2.219,3.786-2.219     c0.193-0.06,0.184-0.063,0.372-0.136l19.9-7.793l10.225,9.96c1.51,1.471,3.534,2.294,5.641,2.294c0.042,0,0.085,0,0.128-0.001     c2.151-0.033,4.199-0.924,5.693-2.474l9.585-9.947l10.603,4.252l-2.511,0.983C196.888,306.062,171.708,316.142,171.708,348.171z      M323.421,368.534c-19.908,11.917-43.067,18.629-67.426,18.629c-24.596,0-48.031-6.978-68.12-19.223v-19.767     c0-21.493,16.789-27.732,17.436-27.964c0.125-0.042,0.249-0.087,0.372-0.136l29.2-11.434l15.472,15.069     c1.51,1.471,3.534,2.294,5.641,2.294c0.042,0,0.085,0,0.128-0.001c2.15-0.033,4.199-0.924,5.692-2.474l14.607-15.158     l29.128,11.68c0.142,0.058,0.219,0.087,0.364,0.137c0.716,0.254,17.505,6.493,17.505,27.988V368.534z M339.59,357.11v-8.938     c0-31.904-24.985-42.029-28.161-43.187l-2.407-0.966l10.508-4.114l10.225,9.96c1.51,1.471,3.534,2.294,5.641,2.294     c0.042,0,0.085,0,0.128-0.001c2.151-0.033,4.199-0.924,5.693-2.474l9.585-9.947l19.791,7.937     c0.207,0.084,0.122,0.061,0.337,0.126c0.026,0.011,2.085,0.784,4.408,2.67C366.971,328.827,354.651,344.67,339.59,357.11z"/>
		</g>
	</g>
</g>
<g>
</g>
<g>
</g>
<g>
</g>
<g>
</g>
<g>
</g>
<g>
</g>
<g>
</g>
<g>
</g>
<g>
</g>
<g>
</g>
<g>
</g>
<g>
</g>
<g>
</g>
<g>
</g>
<g>
</g>
</svg>
