<?xml version="1.0" encoding="iso-8859-1"?>
<!-- Generator: Adobe Illustrator 19.0.0, SVG Export Plug-In . SVG Version: 6.00 Build 0)  -->
<svg xmlns="http://www.w3.org/2000/svg" xmlns:xlink="http://www.w3.org/1999/xlink" version="1.1" id="Layer_1" x="0px" y="0px" viewBox="0 0 512 512" style="enable-background:new 0 0 512 512;" xml:space="preserve">
<g>
	<g>
		<g>
			<path d="M503.916,104.624c4.466,0,8.084-3.619,8.084-8.084V64.042c0-4.466-3.618-8.084-8.084-8.084H79.666     c-4.466,0-8.084,3.619-8.084,8.084v32.497c0,4.466,3.619,8.084,8.084,8.084h5.222V248.88c-3.815,0.65-6.721,3.961-6.721,7.961     v13.255c-5.079,1.569-9.994,3.608-14.704,6.097l-9.377-9.378c-1.517-1.516-3.572-2.367-5.717-2.367     c-2.144,0-4.202,0.852-5.717,2.368l-24.594,24.596c-3.157,3.157-3.157,8.276,0.001,11.432l9.377,9.376     c-2.491,4.71-4.528,9.626-6.098,14.704H8.084c-4.466,0-8.084,3.618-8.084,8.084v34.783c0,4.466,3.619,8.084,8.084,8.084h13.255     c1.569,5.079,3.608,9.994,6.097,14.705l-9.377,9.377c-3.157,3.158-3.157,8.276,0,11.433l24.594,24.594     c3.157,3.155,8.276,3.157,11.433,0l9.378-9.378c4.708,2.49,9.623,4.527,14.704,6.098v13.254c0,4.466,3.619,8.084,8.084,8.084     h34.783c4.466,0,8.084-3.618,8.084-8.084v-13.254c5.08-1.57,9.995-3.608,14.704-6.097l9.378,9.377     c3.156,3.156,8.275,3.157,11.432-0.001l24.593-24.594c3.157-3.157,3.157-8.275,0-11.431l-9.376-9.378     c0.191-0.361,0.361-0.733,0.548-1.096h323.518c4.466,0,8.084-3.618,8.084-8.084v-32.499c0-4.465-3.618-8.084-8.084-8.084h-5.222     V104.624H503.916z M191.119,361.705h-11.37c-3.774,0-7.045,2.611-7.883,6.29c-1.745,7.665-4.76,14.936-8.961,21.609     c-2.009,3.194-1.544,7.353,1.125,10.022l8.044,8.047l-13.16,13.163l-8.047-8.045c-2.668-2.668-6.827-3.136-10.022-1.125     c-6.673,4.202-13.945,7.214-21.607,8.961c-3.679,0.836-6.29,4.109-6.29,7.883v11.367H94.336v-11.369     c0-3.774-2.611-7.045-6.29-7.883c-7.663-1.745-14.932-4.76-21.609-8.961c-3.195-2.01-7.353-1.542-10.021,1.125l-8.046,8.045     l-13.162-13.162l8.045-8.044c2.669-2.669,3.135-6.828,1.125-10.022c-4.203-6.68-7.216-13.95-8.958-21.609     c-0.836-3.68-4.108-6.292-7.883-6.292h-11.37v-18.614h11.37c3.775,0,7.046-2.612,7.883-6.292     c1.741-7.656,4.755-14.926,8.959-21.607c2.009-3.195,1.541-7.353-1.128-10.022l-8.044-8.043l13.162-13.164l8.045,8.046     c2.67,2.668,6.827,3.136,10.022,1.125c6.678-4.202,13.947-7.215,21.606-8.957c3.68-0.836,6.292-4.11,6.292-7.884v-11.37h18.614     v11.37c0,3.775,2.612,7.046,6.292,7.884c7.658,1.741,14.929,4.755,21.605,8.957c3.195,2.01,7.353,1.542,10.023-1.125l8.045-8.046     l13.161,13.163l-8.044,8.045c-2.669,2.669-3.135,6.827-1.125,10.021c4.202,6.677,7.215,13.947,8.961,21.61     c0.836,3.679,4.109,6.289,7.883,6.289h11.369V361.705z M495.832,375.315H205.093c1.356-1.445,2.192-3.386,2.192-5.524v-9.307     h283.324c1.745,0,3.358-0.558,4.679-1.499h0.543V375.315z M495.832,88.455h-59.321c-4.466,0-8.084,3.619-8.084,8.084     s3.618,8.084,8.084,8.084h46.014v238.193H207.287v-7.808c0-4.466-3.619-8.084-8.084-8.084h-13.255     c-1.569-5.079-3.609-9.995-6.098-14.705l9.377-9.377c3.157-3.157,3.157-8.275,0-11.431l-24.593-24.595     c-1.516-1.517-3.572-2.368-5.717-2.368s-4.199,0.852-5.717,2.367l-9.377,9.378c-4.709-2.49-9.625-4.527-14.704-6.097v-13.255     c0-4.465-3.619-8.084-8.084-8.084h-19.978V104.624h307.434c4.465,0,8.084-3.619,8.084-8.084s-3.62-8.084-8.084-8.084H87.75     V72.126h408.081V88.455z"/>
			<path d="M270.837,217.792H238.34c-4.466,0-8.084,3.618-8.084,8.084v86.716c0,4.466,3.618,8.084,8.084,8.084h32.497     c4.466,0,8.084-3.619,8.084-8.084v-86.716C278.921,221.411,275.302,217.792,270.837,217.792z M262.753,304.507h-16.329V233.96     h16.329V304.507z"/>
			<path d="M328.936,178.445h-32.497c-4.466,0-8.084,3.618-8.084,8.084v126.063c0,4.466,3.618,8.084,8.084,8.084h32.497     c4.466,0,8.084-3.618,8.084-8.084V186.53C337.02,182.065,333.401,178.445,328.936,178.445z M320.852,304.508h-16.329V194.614     h16.329V304.508z"/>
			<path d="M387.034,198.925h-32.497c-4.466,0-8.084,3.618-8.084,8.084v105.583c0,4.466,3.618,8.084,8.084,8.084h32.497     c4.466,0,8.084-3.618,8.084-8.084V207.01C395.118,202.545,391.5,198.925,387.034,198.925z M378.95,304.508h-16.329v-89.415     h16.329V304.508z"/>
			<path d="M404.551,140.146v172.448c0,4.466,3.618,8.084,8.084,8.084h32.497c4.466,0,8.084-3.618,8.084-8.084V140.146     c0-4.466-3.618-8.084-8.084-8.084h-32.497C408.171,132.062,404.551,135.681,404.551,140.146z M420.72,148.23h16.329v156.28     H420.72V148.23z"/>
			<path d="M134.727,168.557h43.089c4.466,0,8.084-3.618,8.084-8.084c0-4.466-3.618-8.084-8.084-8.084h-43.089     c-4.466,0-8.084,3.618-8.084,8.084C126.643,164.937,130.262,168.557,134.727,168.557z"/>
			<path d="M201.358,177.899h-66.63c-4.466,0-8.084,3.618-8.084,8.084c0,4.466,3.618,8.084,8.084,8.084h66.63     c4.466,0,8.084-3.618,8.084-8.084C209.442,181.517,205.823,177.899,201.358,177.899z"/>
			<path d="M201.358,203.408h-66.63c-4.466,0-8.084,3.618-8.084,8.084c0,4.466,3.618,8.084,8.084,8.084h66.63     c4.466,0,8.084-3.618,8.084-8.084C209.442,207.027,205.823,203.408,201.358,203.408z"/>
			<path d="M201.358,228.919h-66.63c-4.466,0-8.084,3.618-8.084,8.084c0,4.466,3.618,8.084,8.084,8.084h66.63     c4.466,0,8.084-3.618,8.084-8.084C209.442,232.537,205.823,228.919,201.358,228.919z"/>
			<path d="M103.642,301.764c-27.921,0-50.637,22.716-50.637,50.637c0,11.129,3.543,21.689,10.246,30.54     c2.695,3.558,7.765,4.261,11.325,1.563c3.559-2.696,4.259-7.766,1.563-11.325c-4.556-6.018-6.966-13.202-6.966-20.777     c0-19.007,15.463-34.469,34.47-34.469s34.469,15.462,34.469,34.469c0,11.496-5.705,22.196-15.269,28.629     c-0.384,0.259-0.774,0.508-1.169,0.75l-0.423,0.252c-0.306,0.182-0.615,0.36-0.932,0.535l-0.403,0.224     c-0.425,0.227-0.853,0.448-1.361,0.695c-0.01,0.004-0.025,0.012-0.043,0.02c-0.425,0.203-0.853,0.395-1.274,0.575l-0.452,0.189     c-0.335,0.138-0.674,0.271-1.031,0.405l-0.429,0.161c-0.459,0.165-0.922,0.324-1.389,0.47c-0.026,0.008-0.051,0.016-0.075,0.024     v-0.001c-0.47,0.147-0.945,0.278-1.436,0.407l-0.445,0.11c-0.36,0.089-0.721,0.174-1.096,0.252l-0.467,0.099     c-0.49,0.098-0.983,0.19-1.4,0.253c-0.067,0.01-0.069,0.01-0.137,0.022c-0.505,0.077-1.013,0.139-1.535,0.194l-0.471,0.044     c-0.383,0.036-0.767,0.065-1.156,0.088l-0.472,0.027c-1.043,0.047-2.16,0.049-3.186,0.001l-0.496-0.029     c-0.387-0.023-0.772-0.052-1.175-0.088l-0.46-0.044c-0.495-0.053-0.987-0.112-1.492-0.188c-0.032-0.005-0.068-0.011-0.091-0.015     c-0.497-0.075-0.99-0.167-1.497-0.268l-0.462-0.098c-0.362-0.077-0.723-0.161-1.164-0.271l-0.377-0.094     c-0.453-0.119-0.904-0.245-1.427-0.405c-0.024-0.008-0.049-0.015-0.071-0.023c-0.469-0.147-0.93-0.305-1.393-0.472l-0.427-0.16     c-4.176-1.582-8.791,0.547-10.37,4.723c-1.579,4.176,0.577,8.86,4.752,10.438l0.565,0.21c0.68,0.246,1.368,0.48,2.061,0.696     c0.036,0.012,0.068,0.022,0.093,0.029c0.696,0.216,1.404,0.415,2.101,0.598c0.211,0.055,0.426,0.109,0.688,0.172     c0.532,0.132,1.068,0.255,1.594,0.369l0.688,0.146c0.683,0.137,1.369,0.262,2.126,0.38c0.044,0.009,0.112,0.019,0.153,0.025     c0.742,0.112,1.488,0.204,2.227,0.285c0.206,0.023,0.415,0.041,0.704,0.068c0.564,0.053,1.13,0.095,1.699,0.128l0.7,0.04     c0.773,0.034,1.55,0.058,2.344,0.058c0.78,0,1.556-0.024,2.352-0.059l0.677-0.038c0.57-0.035,1.136-0.077,1.781-0.137     c0.208-0.019,0.417-0.038,0.613-0.059c0.749-0.081,1.496-0.172,2.311-0.296c0.742-0.113,1.473-0.248,2.187-0.39l0.688-0.144     c0.539-0.114,1.075-0.239,1.657-0.383c0.212-0.052,0.427-0.106,0.625-0.157c0.709-0.186,1.416-0.386,2.073-0.589     c0.04-0.013,0.091-0.028,0.142-0.044c0.692-0.216,1.374-0.449,2.049-0.692l0.651-0.242c0.504-0.19,1.002-0.385,1.53-0.604     l0.601-0.251c0.652-0.279,1.298-0.569,1.937-0.874c0.042-0.021,0.109-0.054,0.152-0.074c0.632-0.305,1.254-0.625,1.911-0.978     l0.579-0.32c0.459-0.254,0.914-0.515,1.383-0.794l0.567-0.341c0.599-0.367,1.189-0.743,1.759-1.129     c14.03-9.437,22.405-25.152,22.405-42.039C154.281,324.48,131.565,301.764,103.642,301.764z"/>
		</g>
	</g>
</g>
<g>
</g>
<g>
</g>
<g>
</g>
<g>
</g>
<g>
</g>
<g>
</g>
<g>
</g>
<g>
</g>
<g>
</g>
<g>
</g>
<g>
</g>
<g>
</g>
<g>
</g>
<g>
</g>
<g>
</g>
</svg>
