<?xml version="1.0" encoding="iso-8859-1"?>
<!-- Generator: Adobe Illustrator 19.0.0, SVG Export Plug-In . SVG Version: 6.00 Build 0)  -->
<svg xmlns="http://www.w3.org/2000/svg" xmlns:xlink="http://www.w3.org/1999/xlink" version="1.1" id="Layer_1" x="0px" y="0px" viewBox="0 0 512 512" style="enable-background:new 0 0 512 512;" xml:space="preserve">
<g>
	<g>
		<path d="M503.846,374.504h-6.858l-14.91-54.997c-0.963-3.553-4.188-6.02-7.869-6.02h-6.775l-4.299-24.151    c-0.406-2.282-1.742-4.195-3.57-5.391c-19.625-54.734-19.212-91.901-17.975-106.13h10.52c10.375,0,18.818-8.441,18.818-18.817    v-10.242c0-10.374-8.442-18.815-18.818-18.815h-0.712c3.473-7.684,5.314-16.081,5.314-24.61c0-30.148-22.469-55.131-51.537-59.121    V29.386c0-4.504-3.65-8.154-8.154-8.154c-4.504,0-8.154,3.65-8.154,8.154v16.826c-29.068,3.99-51.537,28.974-51.537,59.121    c0,8.528,1.841,16.925,5.314,24.61h-0.712c-10.377,0-18.819,8.44-18.819,18.815v10.242c0,10.376,8.442,18.817,18.819,18.817    h10.551c1.278,14.122,1.732,51.056-18.024,106.141c-1.82,1.198-3.149,3.104-3.553,5.38l-4.299,24.151h-6.776    c-3.682,0-6.907,2.468-7.871,6.021l-1.857,6.851c-11.006-40.178-10.549-67.684-9.526-79.463h10.52    c10.375,0,18.817-8.441,18.817-18.817v-10.242c0-10.375-8.441-18.817-18.817-18.817h-0.714c3.473-7.682,5.314-16.08,5.314-24.609    c0-30.148-22.469-55.131-51.537-59.121V98.465c0-4.504-3.65-8.154-8.154-8.154c-4.503,0-8.154,3.65-8.154,8.154v16.827    c-29.068,3.99-51.537,28.973-51.537,59.121c0,8.528,1.841,16.925,5.313,24.609h-0.714c-10.375,0-18.817,8.441-18.817,18.817    v10.242c0,10.376,8.441,18.817,18.817,18.817h10.521c1.023,11.779,1.48,39.285-9.53,79.466l-1.858-6.854    c-0.963-3.553-4.188-6.02-7.87-6.02h-6.772l-4.301-24.151c-0.407-2.281-1.741-4.191-3.567-5.389    c-19.626-54.735-19.213-91.903-17.976-106.131h10.518c10.375,0,18.818-8.441,18.818-18.817V148.76    c0-10.374-8.441-18.816-18.818-18.816h-0.712c3.474-7.685,5.315-16.082,5.315-24.61c0-30.148-22.47-55.131-51.538-59.121V29.386    c0-4.504-3.651-8.154-8.154-8.154s-8.154,3.65-8.154,8.154v16.826c-29.067,3.99-51.536,28.974-51.536,59.121    c0,8.529,1.841,16.925,5.313,24.61h-0.713c-10.377,0-18.818,8.441-18.818,18.816V159c0,10.375,8.442,18.817,18.818,18.817h10.551    c1.279,14.122,1.734,51.056-18.024,106.142c-1.819,1.197-3.146,3.104-3.552,5.379l-4.3,24.151h-6.777    c-3.682,0-6.907,2.468-7.87,6.021l-14.906,54.996H8.154c-4.503,0-8.154,3.651-8.154,8.154v30.875c0,4.504,3.651,8.154,8.154,8.154    h153.812l-5.935,21.895h-6.858c-4.503,0-8.154,3.65-8.154,8.154v30.875c0,4.504,3.651,8.154,8.154,8.154h213.656    c4.504,0,8.154-3.65,8.154-8.154v-30.875c0-4.504-3.65-8.154-8.154-8.154h-6.859l-5.936-21.896h153.813    c4.504,0,8.154-3.65,8.154-8.154v-30.875C512,378.155,508.35,374.504,503.846,374.504z M341.925,161.508    c-1.382,0-2.507-1.125-2.507-2.508v-10.242c0-1.381,1.125-2.506,2.51-2.506h10.958h4.347h54.299c4.504,0,8.154-3.65,8.154-8.154    c0-4.504-3.65-8.154-8.154-8.154h-50.245c-4.957-7.202-7.653-15.808-7.653-24.61c0-23.921,19.462-43.383,43.383-43.383    s43.383,19.462,43.383,43.383c0,10.045-3.512,19.839-9.891,27.577c-2.008,2.435-2.429,5.811-1.083,8.665    c1.346,2.855,4.22,4.676,7.375,4.676h15.305c1.383,0,2.509,1.124,2.509,2.506v10.242c0,1.382-1.125,2.508-2.509,2.508h-92.562    c-0.008,0-0.015,0-0.023,0H341.925z M368.851,177.816h56.334c-1.3,16.39-1.056,52.572,16.641,104.796h-89.616    C369.904,230.388,370.15,194.206,368.851,177.816z M345.761,298.92h102.515l2.593,14.567H343.168L345.761,298.92z     M319.695,353.302l6.369-23.506h7.369h127.169c0.007,0,0.015,0,0.022,0h7.346l12.121,44.708H327.724h-2.741l-2.864-16.089    c-0.328-1.847-1.268-3.451-2.582-4.632C319.591,353.625,319.65,353.467,319.695,353.302z M200.905,230.587    c-1.381,0-2.506-1.125-2.506-2.508v-10.242c0-1.382,1.125-2.508,2.508-2.508h10.962h4.347h54.298c4.504,0,8.154-3.65,8.154-8.154    s-3.65-8.154-8.154-8.154H220.27c-4.958-7.201-7.654-15.807-7.654-24.609c0-23.921,19.462-43.383,43.383-43.383    c23.921,0,43.383,19.462,43.383,43.383c0,10.045-3.512,19.839-9.892,27.576c-2.008,2.434-2.429,5.81-1.083,8.665    s4.218,4.676,7.375,4.676h15.308c1.383,0,2.508,1.125,2.508,2.508v10.242c0,1.382-1.125,2.508-2.508,2.508h-17.598    c-0.008,0-0.014,0-0.02,0H200.905z M227.833,246.896h56.336c-1.3,16.39-1.057,52.572,16.638,104.794h-89.615    C228.888,299.467,229.133,263.286,227.833,246.896z M204.742,367.999h102.517l2.593,14.568H202.149L204.742,367.999z     M319.586,398.876c0.007,0,0.015,0,0.022,0h7.344l12.121,44.708H172.927l12.119-44.708h7.368H319.586z M59.892,161.509    c-1.384,0-2.51-1.125-2.51-2.508v-10.242c0-1.382,1.126-2.507,2.509-2.507H70.85h4.347h54.298c4.503,0,8.154-3.65,8.154-8.154    c0-4.504-3.651-8.154-8.154-8.154h-50.24c-4.957-7.201-7.653-15.808-7.653-24.61c0-23.921,19.461-43.383,43.382-43.383    c23.922,0,43.384,19.462,43.384,43.383c0,10.043-3.514,19.837-9.893,27.578c-2.007,2.435-2.428,5.81-1.082,8.665    c1.346,2.854,4.219,4.675,7.375,4.675h15.305c1.383,0,2.509,1.124,2.509,2.507V159c0,1.382-1.125,2.508-2.509,2.508h-17.598    c-0.007,0-0.013,0-0.02,0H77.533c-0.02,0-0.039,0-0.059,0H59.892z M86.815,177.817h56.336c-1.3,16.391-1.056,52.572,16.64,104.796    H70.176C87.869,230.388,88.114,194.207,86.815,177.817z M63.725,298.921H166.24l2.594,14.567H61.132L63.725,298.921z     M44.029,329.797h7.369h127.17c0.008,0,0.014,0,0.022,0h7.343l6.405,23.628c0.034,0.125,0.08,0.245,0.12,0.368    c-1.31,1.18-2.246,2.781-2.575,4.624l-2.864,16.09H31.91L44.029,329.797z M16.309,405.382v-14.567h4.944h149.084l-3.949,14.567    H16.309z M354.674,459.894v14.567H157.327v-14.567h4.942h187.464c0.005-0.001,0.012-0.001,0.023,0H354.674z M495.691,405.381    L495.691,405.381H345.612l-3.95-14.567H490.75h4.942V405.381z"/>
	</g>
</g>
<g>
</g>
<g>
</g>
<g>
</g>
<g>
</g>
<g>
</g>
<g>
</g>
<g>
</g>
<g>
</g>
<g>
</g>
<g>
</g>
<g>
</g>
<g>
</g>
<g>
</g>
<g>
</g>
<g>
</g>
</svg>
