<?xml version="1.0" encoding="iso-8859-1"?>
<!-- Generator: Adobe Illustrator 19.0.0, SVG Export Plug-In . SVG Version: 6.00 Build 0)  -->
<svg xmlns="http://www.w3.org/2000/svg" xmlns:xlink="http://www.w3.org/1999/xlink" version="1.1" id="Layer_1" x="0px" y="0px" viewBox="0 0 512 512" style="enable-background:new 0 0 512 512;" xml:space="preserve">
<g>
	<g>
		<g>
			<path d="M473.707,184.484c4.465,0,8.084-3.619,8.084-8.084v-30.051c0-4.466-3.62-8.084-8.084-8.084H328.568     c-4.465,0-8.084,3.619-8.084,8.084v128.069H183.431c-4.466,0-8.084,3.619-8.084,8.084v118.415H38.293     c-4.466,0-8.084,3.618-8.084,8.084v94.914c0,4.466,3.618,8.084,8.084,8.084H183.43h145.137h145.139     c4.465,0,8.084-3.618,8.084-8.084v-295.72c0-4.466-3.62-8.084-8.084-8.084c-4.466,0-8.084,3.619-8.084,8.084v287.636h-128.97     V282.504v-128.07h128.97V176.4C465.622,180.866,469.241,184.484,473.707,184.484z M175.346,495.832H46.378v-78.746h128.968     V495.832z M320.484,495.832H191.515v-86.83V290.588h128.968V495.832z"/>
			<path d="M69.524,454.812h80.842c4.466,0,8.084-3.618,8.084-8.084c0-4.465-3.618-8.084-8.084-8.084H69.524     c-4.466,0-8.084,3.619-8.084,8.084C61.44,451.194,65.059,454.812,69.524,454.812z"/>
			<path d="M215.17,328.316h80.842c4.466,0,8.084-3.618,8.084-8.084c0-4.466-3.618-8.084-8.084-8.084H215.17     c-4.466,0-8.084,3.619-8.084,8.084C207.086,324.697,210.704,328.316,215.17,328.316z"/>
			<path d="M360.715,175.991c-4.466,0-8.084,3.619-8.084,8.084c0,4.466,3.618,8.084,8.084,8.084h80.842     c4.465,0,8.084-3.618,8.084-8.084c0-4.466-3.62-8.084-8.084-8.084H360.715z"/>
			<path d="M38.72,373.496c2.068,0,4.138-0.789,5.717-2.367L387.959,27.604V71.22c0,4.465,3.618,8.084,8.084,8.084     s8.084-3.62,8.084-8.084V8.085c0-4.465-3.618-8.084-8.084-8.084L332.906,0c-4.465,0-8.084,3.62-8.084,8.084     s3.618,8.084,8.084,8.084l43.62,0.001L33.003,359.694c-3.157,3.158-3.157,8.276,0,11.433     C34.582,372.707,36.652,373.496,38.72,373.496z"/>
		</g>
	</g>
</g>
<g>
</g>
<g>
</g>
<g>
</g>
<g>
</g>
<g>
</g>
<g>
</g>
<g>
</g>
<g>
</g>
<g>
</g>
<g>
</g>
<g>
</g>
<g>
</g>
<g>
</g>
<g>
</g>
<g>
</g>
</svg>
