<?xml version="1.0" encoding="iso-8859-1"?>
<!-- Generator: Adobe Illustrator 19.0.0, SVG Export Plug-In . SVG Version: 6.00 Build 0)  -->
<svg xmlns="http://www.w3.org/2000/svg" xmlns:xlink="http://www.w3.org/1999/xlink" version="1.1" id="Layer_1" x="0px" y="0px" viewBox="0 0 511.999 511.999" style="enable-background:new 0 0 511.999 511.999;" xml:space="preserve">
<g>
	<g>
		<g>
			<path d="M474.076,329.142c-27.289-27.286-66.602-37.668-103.637-27.681l-21.287-21.288c-0.03-0.031-0.062-0.063-0.093-0.094     L214.293,145.31c4.311-11.537,6.673-24.019,6.673-37.04c0-0.558-0.058-1.102-0.165-1.628     c-0.059-14.806-3.166-29.596-9.324-43.356c-1.81-4.048-6.561-5.86-10.607-4.048c-4.046,1.81-5.861,6.56-4.049,10.607     c10.466,23.39,10.574,50.284,0.295,73.782c-0.371,0.848-0.57,1.736-0.636,2.626c-10.3,22.054-29.271,39.26-52.507,47.23     c-0.852-0.012-1.712,0.095-2.55,0.363c-32.651,10.406-67.96,1.848-92.148-22.341c-16.555-16.554-25.966-38.864-26.622-61.944     l36.362,36.364c1.838,1.837,4.444,2.671,7.009,2.242l60.413-10.159c3.408-0.574,6.066-3.264,6.6-6.678l9.31-59.563     c0.396-2.533-0.442-5.104-2.254-6.917L93.54,18.296c30.203-6.836,62.282,2.13,84.545,24.397c2.387,2.386,4.658,4.92,6.753,7.533     c2.773,3.461,7.826,4.021,11.285,1.245c3.46-2.772,4.018-7.826,1.245-11.285c-2.461-3.071-5.128-6.047-7.927-8.847     C159.657,1.553,114.948-7.998,75.538,7.001c-2.544,0.969-4.425,3.161-4.995,5.823c-0.57,2.661,0.248,5.432,2.173,7.357     l53.137,53.136l-7.786,49.813l-50.623,8.513L21.503,85.701c-2.135-2.135-5.284-2.892-8.153-1.961     c-2.871,0.93-4.976,3.391-5.453,6.37c-5.411,33.864,5.813,68.535,30.024,92.748c20.402,20.401,47.523,31.347,75.395,31.401     c0.49,0.093,0.994,0.147,1.51,0.147c9.359,0,18.438-1.224,27.088-3.508l20.977,20.976c0.021,0.021,0.042,0.043,0.064,0.064     l134.807,134.809c-1.394,3.716-2.597,7.52-3.569,11.414c-0.199,0.8-0.271,1.6-0.229,2.383     c-5.797,24.643-2.704,50.605,9.141,73.539c1.427,2.762,4.233,4.346,7.14,4.346c1.241,0,2.5-0.289,3.678-0.897     c3.94-2.035,5.484-6.879,3.45-10.817c-12.463-24.129-13.395-53.415-2.491-78.341c0.349-0.797,0.551-1.629,0.629-2.465     c10.363-22.162,29.536-39.522,53.055-47.396c0.671-0.035,1.345-0.147,2.004-0.356c32.652-10.411,67.964-1.849,92.154,22.341     c16.554,16.555,25.965,38.862,26.621,61.94l-36.36-36.362c-1.837-1.836-4.449-2.667-7.008-2.24l-60.415,10.158     c-3.409,0.573-6.067,3.264-6.602,6.678l-9.31,59.564c-0.396,2.533,0.442,5.104,2.255,6.917l46.55,46.55     c-30.198,6.834-62.279-2.136-84.544-24.397c-0.868-0.868-1.741-1.775-2.589-2.695c-3.007-3.256-8.085-3.46-11.346-0.455     c-3.258,3.008-3.461,8.087-0.455,11.346c0.994,1.077,2.016,2.14,3.036,3.16c20.432,20.429,47.88,31.338,75.827,31.338     c12.794,0,25.7-2.29,38.073-6.998c2.546-0.968,4.426-3.16,4.996-5.822c0.57-2.662-0.248-5.433-2.173-7.358l-53.137-53.137     l7.784-49.815l50.625-8.512l45.94,45.941c2.134,2.132,5.283,2.889,8.153,1.96c2.871-0.93,4.977-3.391,5.453-6.37     C509.511,388.025,498.288,353.355,474.076,329.142z M305.03,351.305L174.29,220.563c-0.001,0-0.001-0.001-0.002-0.001     c-0.006-0.006-0.012-0.012-0.018-0.018l-15.616-15.615c20.386-9.28,37.34-24.823,48.39-44.158l130.612,130.612     c0.025,0.025,0.049,0.05,0.074,0.075l15.753,15.755C333.055,316.466,316.092,332.019,305.03,351.305z"/>
			<path d="M202.35,209.57c-3.117-3.155-8.201-3.181-11.353-0.065c-3.154,3.117-3.184,8.201-0.066,11.353l99.302,100.453     c1.57,1.589,3.64,2.385,5.71,2.385c2.039,0,4.078-0.773,5.643-2.319c3.154-3.117,3.184-8.201,0.065-11.353L202.35,209.57z"/>
			<path d="M221.342,190.56c-3.124-3.148-8.207-3.169-11.353-0.047c-3.148,3.122-3.17,8.206-0.047,11.353l100.022,100.845     c1.57,1.583,3.635,2.375,5.7,2.375c2.044,0,4.088-0.776,5.653-2.328c3.148-3.122,3.17-8.206,0.047-11.354L221.342,190.56z"/>
			<path d="M181.353,310.724c-1.434-2.483-4.084-4.014-6.953-4.014H87.879c-2.869,0-5.518,1.531-6.953,4.014l-43.264,74.932     c-1.434,2.484-1.434,5.545,0,8.029l43.264,74.93c1.434,2.483,4.084,4.014,6.953,4.014H174.4c2.869,0,5.518-1.531,6.953-4.014     l43.263-74.93c1.434-2.484,1.434-5.545,0-8.029L181.353,310.724z M169.765,456.572H92.514L53.885,389.67l38.629-66.904h77.251     l38.628,66.904L169.765,456.572z"/>
			<path d="M131.138,344.139c-25.106,0-45.531,20.424-45.531,45.53c0,7.557,1.895,15.045,5.477,21.656     c2.113,3.9,6.986,5.346,10.885,3.233c3.899-2.113,5.345-6.986,3.233-10.884c-2.313-4.268-3.537-9.111-3.537-14.004     c0-16.252,13.223-29.473,29.476-29.473c16.253,0,29.474,13.222,29.474,29.473c0,10.418-5.597,20.168-14.633,25.46l-0.388,0.223     c-0.644,0.363-1.175,0.644-1.671,0.883c-0.014,0.008-0.03,0.016-0.048,0.024c-0.49,0.234-1.033,0.469-1.693,0.736l-0.459,0.182     c-0.718,0.275-1.289,0.476-1.798,0.635c-0.028,0.01-0.056,0.018-0.083,0.026c-0.505,0.156-1.082,0.31-1.801,0.483l-0.476,0.11     c-1.274,0.283-2.585,0.483-3.896,0.594l-0.5,0.039c-1.59,0.108-2.474,0.108-4.042,0l-0.508-0.039     c-1.316-0.11-2.628-0.312-3.905-0.595l-0.464-0.107c-0.727-0.174-1.305-0.33-1.809-0.485c-0.028-0.009-0.056-0.017-0.083-0.026     c-0.508-0.157-1.08-0.36-1.776-0.626l-0.481-0.191c-4.114-1.653-8.791,0.338-10.445,4.452c-1.655,4.115,0.338,8.791,4.452,10.445     l0.699,0.276c1.023,0.393,1.889,0.698,2.718,0.958c0.032,0.01,0.064,0.02,0.096,0.03c0.859,0.265,1.769,0.513,2.878,0.78     c0.245,0.059,0.49,0.115,0.734,0.168c1.972,0.438,3.999,0.747,6.033,0.919c0.25,0.021,0.499,0.04,0.763,0.058     c1.165,0.079,2.154,0.116,3.112,0.116c0.957,0,1.945-0.036,3.124-0.116c0.25-0.018,0.499-0.036,0.755-0.058     c2.029-0.172,4.056-0.482,6.023-0.918c0.247-0.055,0.493-0.11,0.747-0.171c1.099-0.265,2.011-0.513,2.87-0.779     c0.032-0.011,0.064-0.021,0.096-0.03c0.829-0.259,1.696-0.564,2.74-0.966l0.69-0.273c0.999-0.404,1.873-0.786,2.674-1.171     c0.021-0.011,0.052-0.025,0.08-0.039c0.791-0.383,1.625-0.823,2.569-1.357c0.212-0.12,0.424-0.242,0.61-0.351     c13.911-8.147,22.551-23.207,22.551-39.301C176.671,364.564,156.245,344.139,131.138,344.139z"/>
			<path d="M330.712,200.997c1.434,2.483,4.084,4.014,6.953,4.014h86.521c2.869,0,5.518-1.531,6.953-4.014l43.263-74.93     c1.434-2.483,1.434-5.545,0-8.028l-43.263-74.933c-1.434-2.483-4.084-4.014-6.953-4.014h-86.521     c-2.869,0-5.518,1.531-6.953,4.014l-43.264,74.933c-1.434,2.483-1.434,5.545,0,8.028L330.712,200.997z M342.3,55.148h77.251     l38.628,66.904l-38.628,66.902H342.3l-38.629-66.902L342.3,55.148z"/>
			<path d="M351.754,146.939c3.899-2.113,5.345-6.986,3.233-10.884c-2.313-4.268-3.537-9.111-3.537-14.004     c0-16.252,13.223-29.473,29.476-29.473s29.474,13.222,29.474,29.473c0,10.417-5.597,20.168-14.633,25.46l-0.388,0.223     c-0.644,0.363-1.175,0.644-1.671,0.883c-0.014,0.008-0.03,0.016-0.048,0.025c-0.49,0.234-1.033,0.469-1.693,0.737l-0.459,0.182     c-0.718,0.275-1.289,0.476-1.798,0.635c-0.028,0.01-0.056,0.018-0.083,0.026c-0.505,0.155-1.082,0.31-1.801,0.483l-0.476,0.109     c-1.273,0.283-2.585,0.483-3.896,0.594l-0.501,0.039c-1.584,0.106-2.472,0.107-4.041,0l-0.508-0.039     c-1.316-0.111-2.628-0.312-3.905-0.595l-0.464-0.107c-0.727-0.174-1.305-0.33-1.809-0.485c-0.028-0.009-0.056-0.017-0.083-0.026     c-0.51-0.158-1.08-0.36-1.776-0.626l-0.481-0.191c-4.112-1.654-8.791,0.338-10.445,4.452c-1.655,4.115,0.338,8.791,4.452,10.445     l0.699,0.276c1.023,0.393,1.889,0.698,2.718,0.958c0.032,0.01,0.064,0.02,0.096,0.03c0.859,0.265,1.77,0.513,2.878,0.78     c0.244,0.059,0.49,0.115,0.734,0.168c1.972,0.438,3.999,0.747,6.033,0.919c0.25,0.021,0.499,0.04,0.763,0.058     c1.165,0.079,2.154,0.116,3.112,0.116s1.946-0.036,3.124-0.116c0.25-0.018,0.499-0.036,0.755-0.058     c2.029-0.172,4.056-0.482,6.015-0.916c0.25-0.056,0.499-0.112,0.756-0.173c1.099-0.266,2.011-0.513,2.87-0.778     c0.032-0.011,0.064-0.021,0.096-0.03c0.828-0.259,1.696-0.564,2.74-0.966l0.69-0.273c0.999-0.404,1.873-0.786,2.674-1.171     c0.023-0.011,0.052-0.026,0.08-0.039c0.791-0.383,1.625-0.822,2.569-1.357c0.212-0.12,0.425-0.242,0.61-0.351     c13.911-8.147,22.551-23.207,22.551-39.301c0-25.106-20.427-45.53-45.533-45.53c-25.106,0-45.531,20.424-45.531,45.53     c0,7.556,1.895,15.045,5.477,21.656C342.982,147.606,347.855,149.052,351.754,146.939z"/>
		</g>
	</g>
</g>
<g>
</g>
<g>
</g>
<g>
</g>
<g>
</g>
<g>
</g>
<g>
</g>
<g>
</g>
<g>
</g>
<g>
</g>
<g>
</g>
<g>
</g>
<g>
</g>
<g>
</g>
<g>
</g>
<g>
</g>
</svg>
