<?xml version="1.0" encoding="iso-8859-1"?>
<!-- Generator: Adobe Illustrator 19.0.0, SVG Export Plug-In . SVG Version: 6.00 Build 0)  -->
<svg xmlns="http://www.w3.org/2000/svg" xmlns:xlink="http://www.w3.org/1999/xlink" version="1.1" id="Layer_1" x="0px" y="0px" viewBox="0 0 512 512" style="enable-background:new 0 0 512 512;" xml:space="preserve">
<g>
	<g>
		<g>
			<path d="M275.807,166.612c-9.141-6.5-19.904-9.936-31.128-9.936c-11.221,0-21.984,3.436-31.125,9.936     c-11.82,8.408-19.849,21.404-22.029,35.66c-0.411,2.689-0.619,5.441-0.619,8.178c0,5.471,0.828,10.886,2.462,16.089     c1.337,4.259,5.876,6.634,10.133,5.291c4.26-1.337,6.629-5.873,5.291-10.133c-1.14-3.635-1.719-7.419-1.719-11.247     c0-1.922,0.147-3.852,0.433-5.737c1.521-9.953,7.14-19.039,15.416-24.924c6.389-4.543,13.911-6.944,21.756-6.944     c7.844,0,15.368,2.401,21.755,6.944c8.276,5.885,13.895,14.971,15.416,24.923c0.288,1.885,0.433,3.816,0.433,5.738     c0,4.609-0.831,9.121-2.471,13.41c-2.775,7.262-7.652,13.407-14.103,17.768c-0.006,0.004-0.012,0.009-0.018,0.012     c-0.446,0.302-0.903,0.592-1.375,0.881l-0.409,0.245c-0.346,0.207-0.697,0.409-1.067,0.612l-0.399,0.221     c-0.968,0.52-1.966,1.001-2.929,1.414l-0.469,0.195c-0.384,0.16-0.772,0.312-1.123,0.443l-0.48,0.18     c-1.047,0.376-2.117,0.709-3.139,0.978l-0.525,0.13c-0.398,0.1-0.798,0.192-1.213,0.28l-0.489,0.105     c-0.545,0.109-1.093,0.209-1.645,0.293c-0.04,0.006-0.079,0.013-0.117,0.019c-0.526,0.078-1.056,0.141-1.586,0.197l-0.514,0.048     c-0.422,0.039-0.844,0.071-1.281,0.097l-0.503,0.029c-1.143,0.052-2.33,0.054-3.505,0l-0.511-0.029     c-0.426-0.025-0.849-0.058-1.282-0.098l-0.497-0.046c-0.534-0.058-1.064-0.121-1.591-0.198c-0.039-0.006-0.078-0.013-0.117-0.019     c-0.553-0.084-1.101-0.185-1.68-0.301l-0.467-0.1c-0.403-0.085-0.803-0.177-1.237-0.286l-0.444-0.111     c-1.066-0.28-2.136-0.613-3.157-0.98l-0.472-0.177c-0.389-0.147-0.776-0.299-1.172-0.462l-0.417-0.172     c-1-0.429-1.998-0.91-2.981-1.437l-0.399-0.222c-0.352-0.195-0.701-0.393-1.067-0.613l-0.405-0.241     c-0.461-0.284-0.918-0.572-1.365-0.874c-0.001,0-0.003-0.001-0.004-0.002c-1.502-1.015-2.939-2.146-4.274-3.361     c-3.3-3.006-8.414-2.768-11.42,0.534c-3.006,3.302-2.767,8.414,0.534,11.42c1.907,1.735,3.959,3.351,6.103,4.801     c0.009,0.006,0.018,0.012,0.026,0.018c0.638,0.43,1.289,0.845,1.937,1.242l0.577,0.345c0.503,0.301,1.013,0.595,1.513,0.872     l0.106,0.059c0.172,0.096,0.346,0.193,0.507,0.278c1.382,0.743,2.81,1.429,4.265,2.053l0.608,0.252     c0.545,0.225,1.096,0.443,1.67,0.658l0.623,0.232c1.495,0.539,3.027,1.014,4.598,1.428l0.633,0.157     c0.581,0.144,1.168,0.28,1.745,0.402l0.137,0.029c0.197,0.043,0.395,0.085,0.559,0.116c0.748,0.151,1.501,0.289,2.26,0.406     c0.046,0.008,0.094,0.016,0.14,0.022c0.794,0.121,1.597,0.22,2.409,0.307l0.733,0.069c0.6,0.056,1.203,0.101,1.796,0.137     l0.751,0.042c0.82,0.037,1.645,0.063,2.49,0.063c0.83,0,1.655-0.025,2.473-0.063l0.743-0.041     c0.605-0.037,1.206-0.082,1.795-0.137l0.749-0.071c0.806-0.086,1.609-0.185,2.404-0.306c0.046-0.006,0.094-0.015,0.14-0.022     c0.759-0.117,1.509-0.255,2.218-0.398c0.203-0.039,0.402-0.082,0.602-0.125l0.125-0.026c0.589-0.125,1.176-0.261,1.72-0.397     l0.714-0.178c1.527-0.402,3.059-0.877,4.58-1.426l0.623-0.232c0.551-0.207,1.098-0.424,1.651-0.651l0.624-0.26     c1.434-0.614,2.861-1.302,4.226-2.036c0.175-0.093,0.348-0.19,0.521-0.286l0.091-0.051c0.513-0.285,1.02-0.576,1.525-0.877     l0.568-0.341c0.659-0.403,1.311-0.818,1.95-1.249c0.008-0.004,0.015-0.01,0.023-0.015c9.227-6.232,16.199-15.018,20.166-25.402     c2.347-6.138,3.535-12.592,3.535-19.182c0-2.737-0.208-5.489-0.619-8.179C295.657,188.017,287.628,175.02,275.807,166.612z"/>
			<path d="M503.916,99.765H464.37c-4.465,0-8.084,3.618-8.084,8.084c0,4.466,3.62,8.084,8.084,8.084h31.462v157.686h-63.534     c-4.466,0-8.084,3.619-8.084,8.084v44.221l-49.863-49.934c-1.516-1.518-3.573-2.371-5.72-2.371h-31.072     c1.643-3.061,1.177-6.955-1.407-9.538L325.77,253.7c2.818-5.269,5.104-10.783,6.839-16.493h14.672     c4.466,0,8.084-3.618,8.084-8.084v-37.346c0-4.466-3.618-8.084-8.084-8.084h-14.672c-1.734-5.709-4.021-11.223-6.839-16.493     l10.38-10.379c3.157-3.158,3.157-8.276,0-11.432l-26.406-26.408c-1.516-1.517-3.573-2.368-5.717-2.368     c-2.144,0-4.201,0.852-5.716,2.367l-10.381,10.381c-5.271-2.819-10.785-5.105-16.493-6.839v-6.588h163.83     c4.466,0,8.084-3.618,8.084-8.084c0-4.466-3.619-8.084-8.084-8.084H263.353h-0.004h-37.344c-4.466,0-8.084,3.618-8.084,8.084     v14.672c-5.707,1.733-11.221,4.019-16.492,6.839l-10.381-10.381c-1.516-1.516-3.571-2.367-5.716-2.367     c-2.144,0-4.202,0.852-5.717,2.368l-26.407,26.41c-3.157,3.157-3.157,8.276,0.001,11.432l1.632,1.632H8.084     c-4.465,0-8.084,3.618-8.084,8.084v173.854c0,4.466,3.62,8.084,8.084,8.084h63.534v55.675c0,3.27,1.97,6.219,4.994,7.47     c0.999,0.414,2.048,0.614,3.088,0.614c2.106,0,4.176-0.824,5.724-2.371l61.298-61.388h143.435c4.466,0,8.084-3.618,8.084-8.084     V301.85l0.069,0.069c3.158,3.156,8.275,3.156,11.432,0l12.133-12.133h43.401l61.299,61.386c1.547,1.549,3.615,2.371,5.723,2.371     c1.04,0,2.09-0.202,3.088-0.614c3.023-1.25,4.994-4.199,4.994-7.47v-55.673h63.535c4.466,0,8.084-3.618,8.084-8.084V107.849     C512,103.383,508.382,99.765,503.916,99.765z M282.073,332.306H143.371v0.001c-2.146,0-4.204,0.854-5.721,2.371l-49.862,49.936     v-44.223c0-4.466-3.618-8.084-8.084-8.084H16.168V174.622h143.887c-1.257,2.964-2.368,5.988-3.305,9.07h-14.672     c-4.466,0-8.084,3.618-8.084,8.084v37.346c0,4.466,3.618,8.084,8.084,8.084h14.672c1.732,5.705,4.02,11.22,6.839,16.493     l-10.38,10.381c-3.157,3.157-3.157,8.276,0.001,11.432l26.407,26.406c3.155,3.155,8.275,3.157,11.431,0l10.381-10.379     c5.27,2.818,10.783,5.104,16.492,6.839v14.67c0,4.466,3.618,8.084,8.084,8.084h37.347c4.466,0,8.084-3.618,8.084-8.084v-14.67     c3.63-1.103,7.173-2.454,10.636-4V332.306z M318.514,227.33c-1.89,8.297-5.151,16.164-9.697,23.385     c-2.009,3.194-1.544,7.353,1.125,10.022l9.059,9.061l-6.158,6.157c-0.024,0.023-0.045,0.046-0.068,0.068l-8.748,8.747     l-9.06-9.058c-2.668-2.668-6.827-3.136-10.021-1.125c-7.225,4.545-15.094,7.808-23.386,9.697c-3.679,0.836-6.29,4.108-6.29,7.883     v12.8h-21.178v-12.8c0-3.773-2.61-7.044-6.288-7.883c-8.294-1.89-16.162-5.151-23.386-9.697     c-3.194-2.009-7.352-1.542-10.021,1.125l-9.061,9.059l-14.976-14.974l9.059-9.06c2.668-2.668,3.135-6.826,1.126-10.02     c-4.551-7.234-7.813-15.102-9.695-23.385c-0.836-3.681-4.109-6.293-7.884-6.293h-12.804v-21.177h12.804     c3.775,0,7.046-2.612,7.884-6.293c1.882-8.283,5.144-16.149,9.695-23.385c2.008-3.194,1.541-7.352-1.127-10.021l-9.058-9.056     l14.975-14.976l9.061,9.06c2.668,2.668,6.827,3.137,10.022,1.125c7.223-4.547,15.091-7.808,23.383-9.695     c3.68-0.838,6.291-4.11,6.291-7.883v-12.803h21.179v12.803c0,3.774,2.612,7.046,6.292,7.883     c8.29,1.885,16.158,5.147,23.383,9.695c3.198,2.011,7.354,1.542,10.022-1.125l9.061-9.06l14.974,14.976l-9.059,9.058     c-2.669,2.669-3.135,6.828-1.125,10.022c4.545,7.224,7.807,15.093,9.697,23.387c0.838,3.679,4.109,6.289,7.883,6.289h12.802     v21.177h-12.802C322.623,221.041,319.352,223.651,318.514,227.33z"/>
			<path d="M461.135,139.587h-92.699c-4.466,0-8.084,3.618-8.084,8.084c0,4.466,3.619,8.084,8.084,8.084h92.699     c4.466,0,8.084-3.618,8.084-8.084C469.219,143.206,465.6,139.587,461.135,139.587z"/>
			<path d="M368.436,187.734h92.699c4.466,0,8.084-3.618,8.084-8.084c0-4.466-3.618-8.084-8.084-8.084h-92.699     c-4.466,0-8.084,3.618-8.084,8.084C360.352,184.115,363.971,187.734,368.436,187.734z"/>
			<path d="M368.436,219.71h92.699c4.466,0,8.084-3.618,8.084-8.084c0-4.466-3.618-8.084-8.084-8.084h-92.699     c-4.466,0-8.084,3.618-8.084,8.084C360.352,216.092,363.971,219.71,368.436,219.71z"/>
			<path d="M369.514,251.688h92.699c4.466,0,8.084-3.618,8.084-8.084c0-4.466-3.618-8.084-8.084-8.084h-92.699     c-4.466,0-8.084,3.618-8.084,8.084C361.43,248.07,365.048,251.688,369.514,251.688z"/>
		</g>
	</g>
</g>
<g>
</g>
<g>
</g>
<g>
</g>
<g>
</g>
<g>
</g>
<g>
</g>
<g>
</g>
<g>
</g>
<g>
</g>
<g>
</g>
<g>
</g>
<g>
</g>
<g>
</g>
<g>
</g>
<g>
</g>
</svg>
