<?xml version="1.0" encoding="iso-8859-1"?>
<!-- Generator: Adobe Illustrator 19.0.0, SVG Export Plug-In . SVG Version: 6.00 Build 0)  -->
<svg xmlns="http://www.w3.org/2000/svg" xmlns:xlink="http://www.w3.org/1999/xlink" version="1.1" id="Layer_1" x="0px" y="0px" viewBox="0 0 511.999 511.999" style="enable-background:new 0 0 511.999 511.999;" xml:space="preserve">
<g>
	<g>
		<path d="M502.348,104.56c-0.003-0.092-0.008-0.182-0.014-0.273c-0.024-0.347-0.061-0.691-0.128-1.029c0-0.003,0-0.008-0.001-0.011    c-0.069-0.343-0.167-0.679-0.278-1.011c-0.028-0.085-0.06-0.169-0.091-0.252c-0.116-0.312-0.247-0.618-0.401-0.913    c-0.01-0.018-0.017-0.037-0.026-0.055c-0.165-0.309-0.357-0.605-0.561-0.891c-0.052-0.074-0.106-0.146-0.16-0.218    c-0.218-0.286-0.449-0.563-0.704-0.819L403.275,2.379c-0.257-0.257-0.534-0.488-0.821-0.705c-0.07-0.054-0.142-0.107-0.213-0.158    c-0.288-0.205-0.583-0.397-0.893-0.562c-0.02-0.011-0.039-0.017-0.057-0.027c-0.295-0.153-0.599-0.283-0.909-0.399    c-0.086-0.033-0.172-0.064-0.259-0.093c-0.328-0.112-0.661-0.208-1.002-0.276c-0.014-0.003-0.028-0.004-0.043-0.006    c-0.326-0.064-0.658-0.101-0.99-0.124c-0.099-0.007-0.197-0.012-0.296-0.015C397.701,0.01,397.615,0,397.528,0H195.831    c-2.158,0-4.228,0.859-5.753,2.387c-1.524,1.528-2.378,3.599-2.373,5.758l0.096,42.139h-64.406c-2.158,0-4.228,0.859-5.753,2.387    c-1.524,1.528-2.378,3.599-2.373,5.757l0.374,164.351l-0.565,0.166c-0.369,0.108-0.739,0.217-1.13,0.337    c-0.523,0.16-1.042,0.328-1.56,0.494l-0.842,0.271c-0.376,0.119-0.751,0.239-1.125,0.364c-0.495,0.165-0.984,0.338-1.474,0.509    l-0.675,0.236c-0.46,0.158-0.921,0.318-1.354,0.476c-0.49,0.177-0.976,0.362-1.463,0.547l-1.013,0.384    c-0.33,0.122-0.661,0.247-1.014,0.384c-0.808,0.319-1.612,0.65-2.403,0.975c-0.764,0.314-1.516,0.636-2.291,0.969l-0.228,0.099    c-0.606,0.261-1.209,0.522-1.768,0.776c-0.452,0.203-0.898,0.412-1.345,0.621l-0.647,0.3c-0.458,0.211-0.918,0.424-1.384,0.649    c-0.412,0.199-0.822,0.403-1.233,0.608l-0.86,0.426c-0.39,0.194-0.78,0.387-1.182,0.592c-0.508,0.26-1.014,0.528-1.516,0.795    l-0.322,0.169c-0.468,0.246-0.935,0.493-1.401,0.745c-0.498,0.271-0.991,0.548-1.485,0.826l-0.115,0.065    c-0.53,0.295-1.061,0.592-1.606,0.905c-0.537,0.31-1.072,0.628-1.592,0.938c-0.526,0.31-1.053,0.621-1.527,0.913    c-0.536,0.325-1.067,0.657-1.585,0.983c-0.518,0.324-1.035,0.648-1.533,0.97c-0.52,0.336-1.039,0.676-1.545,1.011    c-0.499,0.33-0.994,0.662-1.496,1.002c-0.515,0.349-1.023,0.701-1.501,1.034c-0.498,0.345-0.994,0.697-1.518,1.071    c-0.494,0.356-0.987,0.713-1.491,1.083c-0.481,0.355-0.962,0.712-1.435,1.069c-0.487,0.367-0.966,0.734-1.456,1.111    c-0.482,0.372-0.963,0.751-1.419,1.115c-0.49,0.387-0.974,0.773-1.422,1.138c-0.488,0.393-0.972,0.797-1.424,1.179l-0.303,0.252    c-0.366,0.305-0.732,0.61-1.094,0.92c-0.474,0.404-0.939,0.815-1.378,1.203l-0.319,0.279c-0.346,0.303-0.692,0.607-1.041,0.92    c-0.39,0.35-0.777,0.706-1.161,1.063l-0.511,0.47c-0.344,0.316-0.688,0.632-1.002,0.931c-0.424,0.398-0.839,0.803-1.255,1.208    l-0.357,0.342c-0.291,0.279-0.582,0.558-0.869,0.841c-0.062,0.062-0.122,0.124-0.184,0.189    c-10.274,10.195-18.973,21.809-25.857,34.523c-0.044,0.077-0.089,0.156-0.131,0.234c-0.096,0.178-0.19,0.358-0.281,0.536    l-0.108,0.207c-0.422,0.792-0.84,1.59-1.247,2.39l-0.604,1.205c-0.363,0.737-0.726,1.476-1.068,2.196    c-0.208,0.435-0.412,0.87-0.624,1.326c-0.333,0.722-0.662,1.446-1.029,2.273c-0.19,0.426-0.379,0.853-0.542,1.235    c-0.32,0.735-0.63,1.475-0.925,2.191c-0.194,0.464-0.384,0.926-0.57,1.391c-0.307,0.762-0.604,1.529-0.878,2.25    c-0.178,0.459-0.353,0.916-0.511,1.343c-0.309,0.83-0.605,1.667-0.897,2.5l-0.408,1.154c-0.417,1.221-0.82,2.447-1.188,3.63    l-0.037,0.12c-0.009,0.024-0.016,0.05-0.023,0.074c-0.366,1.177-0.715,2.358-1.053,3.544c-0.087,0.304-0.169,0.612-0.253,0.921    l-0.113,0.422c-0.001,0.003-0.028,0.106-0.029,0.109c-0.208,0.764-0.415,1.527-0.61,2.291c-0.095,0.369-0.185,0.739-0.275,1.108    l-0.163,0.672c-0.162,0.677-0.326,1.354-0.477,2.025c-0.128,0.566-0.249,1.132-0.365,1.672c-0.156,0.714-0.305,1.43-0.454,2.174    c-0.113,0.574-0.224,1.152-0.34,1.773c-0.128,0.696-0.254,1.393-0.372,2.081c-0.102,0.589-0.199,1.18-0.302,1.817    c-0.11,0.699-0.213,1.401-0.32,2.133l-0.075,0.524c-0.061,0.416-0.119,0.834-0.179,1.274c-0.093,0.722-0.178,1.448-0.26,2.159    l-0.059,0.49c-0.053,0.433-0.105,0.868-0.153,1.331c-0.061,0.604-0.115,1.21-0.17,1.817l-0.094,1.039    c-0.034,0.37-0.068,0.739-0.095,1.091c-0.07,0.906-0.125,1.817-0.18,2.729l-0.04,0.646c-0.014,0.194-0.027,0.388-0.038,0.599    c-4.134,81.27,58.62,150.752,139.89,154.887c2.545,0.129,5.064,0.194,7.585,0.194c6.503-0.001,12.917-0.437,19.216-1.267h245.282    c4.489,0,8.126-3.637,8.126-8.126v-42.16c0.011,0,0.022,0.001,0.031,0.001h64.278c4.488,0,8.126-3.637,8.126-8.126V104.834    C502.362,104.742,502.351,104.651,502.348,104.56z M405.654,27.746l68.962,68.962h-68.962V27.746z M175.437,494.482h-22.743    c-1.405,0-2.727,0.356-3.88,0.984c-27.52-1.759-52.59-11.936-72.806-27.894c0.232-0.379,0.439-0.779,0.61-1.205    c5.847-14.579,18.825-19.306,19.318-19.482c0.125-0.041,0.249-0.087,0.373-0.135l36.241-14.194l19.439,18.934    c1.519,1.478,3.554,2.305,5.67,2.305c0.043,0,0.086,0,0.129-0.001c2.163-0.035,4.224-0.93,5.723-2.488l18.396-19.095    l36.193,14.514c0.143,0.059,0.232,0.092,0.379,0.142c0.591,0.208,14.267,5.206,19.848,20.758    C220.435,481.706,198.856,491.212,175.437,494.482z M207.834,324.549c-0.536,0.074-1.056,0.199-1.555,0.372    c-0.065-0.018-0.129-0.042-0.196-0.06c-15.239-3.791-20.126-25.902-20.17-26.102c-0.665-3.214-3.199-5.711-6.422-6.332    c-3.224-0.619-6.502,0.758-8.313,3.496c-18.788,28.398-60.08,28.697-60.594,28.697c-0.011,0-0.022,0-0.031,0    c-0.749,0-1.47,0.111-2.159,0.299c-0.555-0.193-1.133-0.332-1.736-0.399v-3.673c0-29.504,21.641-53.508,48.239-53.508h4.695    c26.6,0,48.24,24.003,48.24,53.508v3.701H207.834z M113.855,340.772c10.015-0.528,40.052-3.835,61.278-24.344    c4.479,9.149,12.413,19.946,25.685,23.817v14.649c0,23.591-17.24,42.784-38.431,42.784h-10.101    c-21.191,0-38.431-19.193-38.431-42.784V340.772z M169.199,413.456v8.291c0,0.009,0,0.018,0,0.018v0.21l-11.723,12.168    l-11.154-10.863v-9.707c1.96,0.232,3.948,0.359,5.964,0.359h10.101C164.695,413.931,166.966,413.758,169.199,413.456z     M413.683,494.477H226.852c44.025-23.67,75.029-69.11,77.75-122.576l0.037-0.949c0.043-0.997,0.082-1.996,0.11-3.045    c0.01-0.457,0.013-0.914,0.017-1.372l0.005-0.53c0.011-0.691,0.021-1.383,0.018-2.049c0-0.471-0.008-0.942-0.016-1.412    l-0.006-0.393c-0.01-0.74-0.021-1.476-0.042-2.197c-0.012-0.376-0.027-0.751-0.04-1.126l-0.028-0.736    c-0.031-0.704-0.065-1.41-0.103-2.09c-0.033-0.608-0.073-1.217-0.113-1.835c-0.049-0.709-0.105-1.416-0.166-2.172l-0.022-0.247    c-0.043-0.507-0.087-1.014-0.135-1.514c-0.068-0.722-0.144-1.438-0.224-2.176l-0.036-0.323c-0.051-0.468-0.103-0.935-0.159-1.391    c-0.091-0.753-0.194-1.503-0.299-2.273l-0.07-0.517c-0.05-0.363-0.1-0.725-0.149-1.054c-0.107-0.729-0.227-1.452-0.347-2.177    l-0.276-1.671c-0.215-1.222-0.445-2.437-0.69-3.645c-0.002-0.012-0.005-0.024-0.008-0.035c-0.008-0.039-0.018-0.091-0.023-0.113    c-0.256-1.266-0.533-2.521-0.828-3.801l-0.316-1.3c-0.196-0.812-0.391-1.621-0.604-2.44c-0.084-0.327-0.173-0.652-0.262-0.976    l-0.106-0.387c-0.213-0.792-0.429-1.583-0.648-2.334c-0.128-0.453-0.262-0.901-0.425-1.439c-0.228-0.764-0.46-1.526-0.698-2.274    l-0.458-1.428c-0.248-0.756-0.504-1.514-0.755-2.241c-0.159-0.467-0.324-0.932-0.478-1.36c-0.278-0.784-0.565-1.563-0.868-2.371    l-0.465-1.225c-0.323-0.831-0.653-1.654-0.971-2.437l-0.33-0.823c-0.03-0.073-0.063-0.147-0.096-0.222    c-2.245-5.395-4.84-10.714-7.712-15.81c-2.204-3.91-7.161-5.291-11.07-3.088c-3.909,2.205-5.292,7.161-3.088,11.07    c2.589,4.589,4.92,9.379,6.933,14.238c0.022,0.054,0.045,0.108,0.069,0.163l0.215,0.539c0.302,0.745,0.604,1.492,0.874,2.192    l0.43,1.131c0.258,0.69,0.514,1.38,0.773,2.111c0.138,0.384,0.274,0.769,0.414,1.178c0.234,0.676,0.464,1.357,0.659,1.949    l0.426,1.328c0.212,0.672,0.418,1.345,0.624,2.037l0.031,0.105c0.113,0.376,0.225,0.749,0.342,1.16    c0.199,0.692,0.388,1.387,0.579,2.092l0.324,1.195c0.187,0.724,0.363,1.453,0.539,2.182l0.282,1.155    c0.256,1.114,0.504,2.232,0.725,3.321c0.009,0.042,0.021,0.11,0.035,0.177c0.217,1.075,0.423,2.156,0.611,3.226l0.254,1.541    c0.104,0.62,0.207,1.238,0.302,1.893c0.043,0.288,0.082,0.576,0.122,0.866l0.077,0.565c0.092,0.664,0.182,1.329,0.265,2.008    c0.049,0.397,0.092,0.795,0.137,1.195l0.035,0.315c0.069,0.648,0.139,1.294,0.202,1.953c0.043,0.451,0.082,0.904,0.121,1.357    l0.018,0.204c0.051,0.637,0.103,1.276,0.145,1.906c0.036,0.54,0.072,1.08,0.102,1.644c0.037,0.646,0.066,1.29,0.092,1.851    l0.063,1.696c0.02,0.643,0.027,1.286,0.037,1.943l0.008,0.435c0.007,0.379,0.013,0.758,0.013,1.16    c0.002,0.594-0.008,1.191-0.016,1.786l-0.008,0.652c-0.003,0.388-0.005,0.776-0.012,1.108c-0.025,0.904-0.062,1.814-0.096,2.644    c-0.012,0.212-0.019,0.425-0.025,0.637l-0.011,0.281c-1.691,33.241-15.673,62.997-37.305,85.097    c-8.83-17.41-24.618-23.72-27.061-24.607l-38.551-15.46v-7.717c12.021-6.063,21.669-16.706,27.016-29.841    c0.749,0.226,1.542,0.351,2.364,0.351c13.469,0,24.426-11.504,24.426-25.645c0-10.703-6.279-19.89-15.171-23.727v-8.694    c0-38.466-28.932-69.761-64.493-69.761h-4.695c-35.561,0-64.492,31.295-64.492,69.761v8.721    c-8.858,3.853-15.105,13.024-15.105,23.701c0,14.141,10.955,25.645,24.422,25.645c0.861,0,1.69-0.137,2.469-0.384    c5.468,13.458,15.455,24.3,27.878,30.289v7.253l-39.571,15.495c-2.312,0.836-18.23,7.131-27.104,24.649    c-24.736-25.299-39.274-60.426-37.34-98.457l0.019-0.281c0.016-0.216,0.03-0.43,0.036-0.562l0.017-0.274    c0.049-0.813,0.096-1.623,0.161-2.447c0.021-0.282,0.048-0.562,0.074-0.842l0.097-1.075c0.05-0.555,0.1-1.109,0.153-1.636    c0.036-0.343,0.077-0.687,0.118-1.029l0.067-0.557c0.075-0.649,0.15-1.296,0.231-1.918c0.049-0.363,0.101-0.725,0.153-1.087    l0.076-0.532c0.092-0.64,0.187-1.28,0.28-1.871c0.088-0.541,0.177-1.078,0.272-1.63c0.109-0.637,0.224-1.272,0.333-1.864    c0.101-0.533,0.204-1.064,0.302-1.572c0.127-0.632,0.257-1.259,0.4-1.916c0.107-0.501,0.213-1.002,0.331-1.513    c0.136-0.604,0.281-1.201,0.426-1.799l0.159-0.661c0.072-0.297,0.144-0.594,0.221-0.894c0.177-0.691,0.364-1.377,0.574-2.153    l0.137-0.506c0.06-0.223,0.118-0.446,0.183-0.672c0.298-1.047,0.606-2.085,0.925-3.119c0.023-0.072,0.043-0.14,0.06-0.192    c0.339-1.093,0.697-2.177,1.051-3.217l0.369-1.041c0.261-0.742,0.523-1.485,0.809-2.256c0.138-0.373,0.282-0.742,0.443-1.159    c0.257-0.676,0.517-1.35,0.788-2.023c0.158-0.392,0.319-0.784,0.493-1.202c0.271-0.652,0.541-1.301,0.842-1.994    c0.155-0.362,0.315-0.723,0.516-1.177c0.293-0.656,0.588-1.309,0.881-1.938c0.177-0.381,0.354-0.761,0.546-1.161    c0.32-0.672,0.649-1.341,0.958-1.968l0.534-1.067c0.361-0.71,0.731-1.416,1.1-2.105l0.276-0.531    c0.031-0.055,0.062-0.111,0.092-0.166c6.176-11.454,14.007-21.908,23.271-31.07c0.057-0.057,0.114-0.115,0.17-0.174    c0.169-0.165,0.34-0.328,0.511-0.491l0.466-0.449c0.353-0.343,0.705-0.688,1.089-1.049c0.268-0.254,0.54-0.504,0.813-0.753    l0.566-0.52c0.327-0.302,0.653-0.606,0.975-0.894c0.295-0.263,0.593-0.524,0.892-0.787l0.359-0.314    c0.397-0.351,0.795-0.702,1.198-1.048c0.309-0.264,0.621-0.523,0.933-0.784l0.345-0.288c0.393-0.33,0.79-0.661,1.228-1.015    c0.418-0.341,0.839-0.676,1.283-1.027c0.41-0.326,0.822-0.653,1.23-0.968c0.444-0.341,0.885-0.678,1.335-1.017    c0.426-0.322,0.857-0.643,1.277-0.952c0.451-0.332,0.899-0.656,1.321-0.96c0.428-0.304,0.856-0.61,1.322-0.931    c0.451-0.315,0.903-0.627,1.349-0.931c0.443-0.3,0.886-0.597,1.346-0.9c0.457-0.303,0.917-0.605,1.388-0.909    c0.443-0.286,0.891-0.567,1.351-0.855c0.456-0.286,0.913-0.573,1.422-0.882c0.433-0.267,0.875-0.526,1.375-0.821    c0.468-0.28,0.936-0.558,1.389-0.82c0.467-0.268,0.934-0.528,1.427-0.803l0.141-0.079c0.428-0.241,0.854-0.479,1.284-0.713    c0.402-0.218,0.808-0.431,1.215-0.647l0.376-0.198c0.431-0.23,0.865-0.459,1.288-0.677c0.33-0.168,0.66-0.332,0.991-0.495    l0.891-0.442c0.355-0.177,0.712-0.354,1.057-0.521c0.376-0.18,0.753-0.354,1.131-0.528l0.745-0.347    c0.352-0.166,0.704-0.333,1.102-0.509c0.51-0.232,1.025-0.453,1.541-0.675l0.217-0.094c0.68-0.293,1.354-0.582,2.05-0.867    c0.722-0.298,1.445-0.596,2.15-0.874c0.255-0.1,0.514-0.196,0.77-0.293l1.107-0.418c0.399-0.153,0.8-0.306,1.228-0.461    c0.364-0.132,0.73-0.258,1.098-0.385l0.778-0.271c0.404-0.142,0.807-0.285,1.218-0.422c0.307-0.103,0.615-0.202,0.924-0.299    l0.882-0.283c0.453-0.146,0.905-0.293,1.337-0.426l1.845-0.545c0.012-0.003,0.024-0.007,0.036-0.011    c0.983,0.422,2.064,0.657,3.201,0.657c0.007,0,0.012,0,0.018,0c2.555-0.006,4.829-1.193,6.315-3.039    c0.503-0.106,1.004-0.21,1.489-0.306l0.199-0.039c0.467-0.09,0.932-0.18,1.405-0.267c0.57-0.106,1.139-0.208,1.759-0.312    c0.517-0.09,1.039-0.175,1.567-0.26c0.584-0.093,1.177-0.18,1.821-0.274c0.493-0.069,0.984-0.141,1.505-0.207    c0.599-0.078,1.196-0.153,1.776-0.221l0.148-0.017c0.476-0.056,0.953-0.113,1.461-0.165c0.601-0.065,1.202-0.12,1.82-0.177    c0.519-0.049,1.038-0.096,1.549-0.138c0.62-0.049,1.243-0.089,1.889-0.131l0.172-0.012c0.453-0.03,0.907-0.062,1.362-0.086    c0.438-0.025,0.875-0.041,1.313-0.058l1.164-0.047c0.317-0.013,0.634-0.026,0.952-0.035c0.58-0.016,1.163-0.022,1.743-0.028    l1.693-0.022c0.661,0,1.326,0.01,1.989,0.021l0.869,0.012c0.203,0.001,0.403,0.003,0.634,0.01c1.143,0.027,2.294,0.07,3.448,0.129    c0.028,0.003,0.057,0.002,0.083,0.004c1.156,0.06,2.305,0.133,3.455,0.221c0.211,0.016,0.423,0.036,0.633,0.056l0.922,0.082    c0.637,0.055,1.272,0.111,1.872,0.171l1.944,0.222c0.504,0.059,1.009,0.115,1.506,0.18c0.309,0.041,0.618,0.086,0.926,0.13    l0.953,0.135c0.509,0.071,1.016,0.143,1.511,0.221c0.394,0.063,0.79,0.129,1.184,0.196l0.554,0.093    c0.542,0.092,1.083,0.183,1.648,0.288c0.404,0.074,0.807,0.153,1.209,0.231l0.327,0.063c0.599,0.118,1.197,0.236,1.789,0.361    c0.522,0.111,1.049,0.226,1.562,0.34c0.589,0.132,1.177,0.266,1.751,0.401c0.504,0.119,1.004,0.244,1.558,0.38    c0.579,0.145,1.15,0.293,1.714,0.441c0.519,0.138,1.039,0.28,1.552,0.421c0.566,0.158,1.128,0.318,1.684,0.479    c0.518,0.153,1.033,0.303,1.534,0.458c0.557,0.17,1.114,0.347,1.665,0.523c0.52,0.167,1.041,0.335,1.512,0.49    c0.559,0.19,1.114,0.381,1.676,0.576c0.5,0.174,1.002,0.349,1.508,0.533c0.504,0.182,1.004,0.372,1.503,0.559l0.509,0.194    c0.367,0.14,0.735,0.278,1.112,0.427c0.376,0.146,0.75,0.298,1.124,0.451l0.987,0.402c0.315,0.129,0.631,0.257,0.948,0.391    c0.444,0.187,0.885,0.381,1.327,0.573l0.718,0.314c0.325,0.142,0.648,0.282,0.983,0.433c0.422,0.191,0.838,0.387,1.254,0.581    l0.886,0.415c0.278,0.13,0.558,0.259,0.852,0.402c0.418,0.202,0.832,0.411,1.247,0.618l0.91,0.454    c0.263,0.13,0.527,0.26,0.786,0.392c0.689,0.354,1.371,0.721,2.069,1.099c0.649,0.347,1.293,0.703,1.924,1.056l0.31,0.172    c0.462,0.257,0.925,0.516,1.4,0.791c0.339,0.196,0.674,0.398,1.01,0.6l0.768,0.458c0.347,0.206,0.695,0.41,1.026,0.613    c0.351,0.214,0.697,0.433,1.042,0.653l0.77,0.485c0.318,0.2,0.635,0.399,0.948,0.602c0.452,0.293,0.897,0.592,1.372,0.909    l0.192,0.127c0.384,0.254,0.766,0.509,1.17,0.786c0.391,0.265,0.778,0.539,1.161,0.808l0.477,0.335    c0.335,0.235,0.669,0.469,1.03,0.731c0.387,0.278,0.77,0.562,1.155,0.846l0.286,0.212c0.387,0.286,0.774,0.57,1.146,0.854    c0.442,0.337,0.883,0.678,1.32,1.018c0.418,0.325,0.836,0.652,1.274,1.001c0.423,0.337,0.842,0.679,1.272,1.033    c0.411,0.337,0.821,0.674,1.241,1.027c0.423,0.353,0.839,0.71,1.271,1.081c0.392,0.337,0.781,0.676,1.185,1.035    c0.415,0.365,0.828,0.732,1.223,1.09c0.397,0.36,0.79,0.722,1.176,1.079l0.118,0.111c0.362,0.337,0.724,0.673,1.099,1.031    c0.382,0.362,0.76,0.728,1.132,1.092l0.368,0.361c0.271,0.263,0.542,0.527,0.831,0.817c0.378,0.376,0.75,0.757,1.123,1.14    c0.38,0.388,0.761,0.779,1.137,1.172c0.296,0.31,0.586,0.623,0.878,0.937l0.231,0.248c3.056,3.285,8.198,3.475,11.485,0.417    c3.286-3.056,3.474-8.197,0.417-11.485l-0.221-0.238c-0.342-0.368-0.684-0.736-1.03-1.1c-0.42-0.44-0.843-0.875-1.268-1.309    c-0.428-0.438-0.855-0.875-1.264-1.284c-0.32-0.32-0.644-0.636-0.969-0.952l-0.343-0.337c-0.435-0.426-0.874-0.851-1.299-1.254    c-0.406-0.388-0.818-0.771-1.232-1.156l-0.124-0.116c-0.438-0.406-0.881-0.813-1.338-1.229c-0.457-0.412-0.917-0.821-1.359-1.211    c-0.459-0.407-0.922-0.813-1.375-1.199c-0.47-0.403-0.939-0.806-1.401-1.192c-0.459-0.387-0.925-0.771-1.379-1.143    c-0.484-0.399-0.971-0.794-1.437-1.166c-0.475-0.38-0.957-0.755-1.436-1.129c-0.479-0.373-0.962-0.747-1.457-1.125    c-0.442-0.336-0.886-0.664-1.333-0.994l-0.264-0.197c-0.455-0.337-0.909-0.673-1.336-0.979c-0.394-0.285-0.792-0.565-1.191-0.844    l-0.464-0.325c-0.455-0.321-0.913-0.643-1.351-0.939c-0.444-0.304-0.893-0.604-1.342-0.901l-0.159-0.106    c-0.517-0.347-1.034-0.693-1.558-1.033c-0.377-0.245-0.756-0.482-1.135-0.722l-0.724-0.456c-0.414-0.261-0.827-0.522-1.258-0.788    c-0.406-0.249-0.817-0.491-1.228-0.735l-0.666-0.397c-0.417-0.251-0.835-0.503-1.238-0.736c-0.541-0.313-1.088-0.619-1.633-0.923    l-0.311-0.173c-0.722-0.401-1.442-0.8-2.146-1.177c-0.77-0.416-1.545-0.831-2.332-1.236c-0.336-0.172-0.674-0.34-1.014-0.508    l-0.815-0.406c-0.495-0.249-0.991-0.498-1.471-0.73c-0.357-0.172-0.715-0.339-1.074-0.506l-0.834-0.39    c-0.487-0.229-0.973-0.456-1.453-0.673c-0.4-0.182-0.802-0.357-1.205-0.532l-0.675-0.294c-0.515-0.226-1.029-0.452-1.546-0.67    c-0.372-0.156-0.744-0.308-1.116-0.461l-1.005-0.41c-0.447-0.182-0.895-0.363-1.332-0.533c-0.416-0.162-0.835-0.323-1.255-0.481    l-0.549-0.209c-0.563-0.211-1.129-0.425-1.687-0.626c-0.563-0.205-1.137-0.405-1.719-0.608c-0.6-0.209-1.199-0.417-1.852-0.637    c-0.563-0.186-1.128-0.368-1.696-0.552c-0.618-0.199-1.242-0.394-1.872-0.589c-0.573-0.174-1.149-0.345-1.734-0.517    c-0.632-0.185-1.266-0.366-1.912-0.545c-0.573-0.158-1.148-0.315-1.729-0.47c-0.645-0.17-1.289-0.337-2.026-0.52    c-0.549-0.137-1.103-0.273-1.668-0.407c-0.646-0.153-1.294-0.299-1.956-0.448c-0.58-0.129-1.158-0.256-1.742-0.38    c-0.667-0.141-1.336-0.273-2.035-0.411l-0.344-0.067c-0.46-0.089-0.921-0.178-1.355-0.257c-0.627-0.117-1.261-0.224-1.894-0.332    l-0.546-0.092c-0.451-0.076-0.903-0.153-1.366-0.225c-0.588-0.093-1.178-0.177-1.769-0.259l-0.907-0.129    c-0.381-0.055-0.76-0.109-1.146-0.16c-0.583-0.075-1.167-0.143-1.751-0.21l-2.106-0.241c-0.716-0.073-1.435-0.137-2.154-0.199    l-0.817-0.073c-0.303-0.028-0.609-0.056-0.908-0.079c-1.238-0.094-2.479-0.174-3.726-0.239c-0.04-0.003-0.079-0.006-0.118-0.009    c-0.068-0.004-0.146-0.008-0.223-0.01c-1.258-0.063-2.512-0.109-3.733-0.139c-0.301-0.009-0.601-0.012-0.899-0.015l-0.787-0.011    c-1.059-0.016-2.144-0.028-3.246-0.01l-0.859,0.012c-0.67,0.008-1.342,0.015-2.012,0.034c-0.389,0.011-0.779,0.026-1.168,0.042    l-1.129,0.046c-0.521,0.02-1.04,0.041-1.559,0.068c-0.528,0.028-1.056,0.064-1.583,0.101l-0.144,0.01    c-0.696,0.044-1.397,0.091-2.102,0.146c-0.594,0.048-1.188,0.102-1.764,0.156c-0.687,0.064-1.368,0.128-2.022,0.198    c-0.55,0.057-1.101,0.12-1.648,0.185l-0.165,0.02c-0.66,0.079-1.321,0.16-1.956,0.244c-0.578,0.074-1.151,0.155-1.827,0.253    c-0.657,0.096-1.318,0.193-1.963,0.296c-0.6,0.094-1.198,0.195-1.748,0.29c-0.119,0.019-0.235,0.042-0.353,0.063l-0.347-152.465    h185.426v88.582c0,4.489,3.637,8.126,8.126,8.126h88.582V494.477z M216.609,362.433c0.294-2.47,0.462-4.983,0.462-7.538v-8.648    c0.843-0.116,1.644-0.36,2.384-0.713c2.142,1.695,3.55,4.529,3.55,7.737C223.004,357.748,220.263,361.498,216.609,362.433z     M98.068,362.468c-3.714-0.882-6.516-4.671-6.516-9.197c0-3.195,1.399-6.021,3.526-7.718c0.783,0.369,1.63,0.62,2.525,0.722v8.62    C97.603,357.463,97.772,359.986,98.068,362.468z M333.217,146.992V78.029l68.962,68.962H333.217z M486.109,444.196h-56.153    c-0.011,0-0.022,0.001-0.031,0.001V155.118c0-0.092-0.011-0.183-0.014-0.274c-0.003-0.092-0.008-0.182-0.014-0.273    c-0.023-0.347-0.061-0.691-0.128-1.029c0,0,0-0.008-0.001-0.011c-0.068-0.344-0.167-0.679-0.278-1.011    c-0.028-0.085-0.06-0.169-0.091-0.252c-0.116-0.312-0.248-0.618-0.401-0.913c-0.01-0.018-0.017-0.037-0.026-0.055    c-0.165-0.309-0.356-0.605-0.561-0.891c-0.052-0.074-0.106-0.146-0.16-0.218c-0.218-0.286-0.449-0.563-0.704-0.819l-96.708-96.708    c-0.257-0.257-0.534-0.488-0.82-0.705c-0.072-0.054-0.143-0.107-0.216-0.158c-0.287-0.206-0.582-0.397-0.892-0.562    c-0.018-0.011-0.039-0.018-0.06-0.027c-0.294-0.154-0.596-0.283-0.905-0.399c-0.088-0.032-0.174-0.065-0.262-0.094    c-0.328-0.109-0.659-0.207-1-0.275c-0.015-0.003-0.03-0.004-0.047-0.008c-0.325-0.063-0.654-0.1-0.987-0.122    c-0.1-0.006-0.198-0.012-0.297-0.015c-0.087-0.003-0.173-0.013-0.261-0.013H204.053l-0.077-34.031h185.425v88.582    c0,4.489,3.638,8.126,8.126,8.126h88.582V444.196z"/>
	</g>
</g>
<g>
</g>
<g>
</g>
<g>
</g>
<g>
</g>
<g>
</g>
<g>
</g>
<g>
</g>
<g>
</g>
<g>
</g>
<g>
</g>
<g>
</g>
<g>
</g>
<g>
</g>
<g>
</g>
<g>
</g>
</svg>
