<?xml version="1.0" encoding="iso-8859-1"?>
<!-- Generator: Adobe Illustrator 19.0.0, SVG Export Plug-In . SVG Version: 6.00 Build 0)  -->
<svg xmlns="http://www.w3.org/2000/svg" xmlns:xlink="http://www.w3.org/1999/xlink" version="1.1" id="Layer_1" x="0px" y="0px" viewBox="0 0 512 512" style="enable-background:new 0 0 512 512;" xml:space="preserve">
<g>
	<g>
		<path d="M503.916,275.402c4.466,0,8.084-3.618,8.084-8.084V197.27c0-4.466-3.618-8.084-8.084-8.084h-53.347    c-4.466,0-8.084,3.619-8.084,8.084v2.693h-18.547c-15.034-16.069-54.337-16.15-62.812-15.978h-33.74    c-10.937,0-19.836,8.898-19.836,19.835v0.476c0,1.254,0.116,2.481,0.34,3.67h-8.681v-28.986v-4.149    c3.984,3.542,8.607,6.441,13.705,7.542c1.531,0.332,3.054,0.495,4.563,0.495c4.982,0,9.797-1.79,14.128-5.29    c0.056-0.045,0.111-0.092,0.166-0.138c0.623-0.532,15.057-13.326-3.488-38.743c-5.906-8.094-6.949-13.815-8.156-20.441    c-1.973-10.818-4.012-21.988-24.188-38.179V69.513h1.218c4.466,0,8.084-3.618,8.084-8.084V8.084c0-4.465-3.619-8.084-8.084-8.084    s-8.084,3.62-8.084,8.084v45.262h-1.196c-0.008,0-0.014-0.001-0.022-0.001c-0.008,0-0.014,0.001-0.022,0.001H211.3    c-0.008,0-0.014-0.001-0.022-0.001c-0.006,0-0.014,0.001-0.022,0.001h-2.673V16.168h62.468c4.466,0,8.084-3.619,8.084-8.084    c0-4.465-3.618-8.084-8.084-8.084h-70.553c-4.465,0-8.084,3.62-8.084,8.084V61.43c0,4.466,3.62,8.084,8.084,8.084h2.694v18.549    c-16.068,15.032-16.154,54.331-15.977,62.81v33.74c0,10.937,8.899,19.836,19.837,19.836h0.474c1.254,0,2.481-0.116,3.671-0.34    v8.696c0,2.261,0.399,4.427,1.099,6.453h-33.316h-4.148c3.543-3.984,6.443-8.607,7.543-13.705    c1.422-6.585-0.236-13.048-4.797-18.69c-0.045-0.057-0.092-0.112-0.138-0.167c-0.532-0.623-13.329-15.055-38.743,3.489    c-8.094,5.906-13.816,6.949-20.441,8.156c-10.818,1.973-21.987,4.011-38.179,24.187H69.518v-1.217c0-4.466-3.62-8.084-8.084-8.084    H8.084C3.62,213.23,0,216.849,0,221.314c0,4.466,3.62,8.084,8.084,8.084h45.265v80.482H16.168v-62.709    c0-4.466-3.62-8.084-8.084-8.084S0,242.706,0,247.172v70.793c0,4.466,3.62,8.084,8.084,8.084h53.349    c4.465,0,8.084-3.618,8.084-8.084v-2.694h18.547c13.67,14.611,47.398,16.009,59.78,16.009c1.235,0,2.26-0.015,3.03-0.03h33.74    c1.265,0,2.5-0.131,3.702-0.359c-1.992,0.865-3.92,2.038-5.761,3.526c-0.056,0.045-0.112,0.092-0.166,0.138    c-0.623,0.532-15.057,13.326,3.488,38.743c5.906,8.094,6.949,13.815,8.158,20.441c1.973,10.818,4.011,21.988,24.188,38.179v10.567    h-1.218c-4.465,0-8.084,3.618-8.084,8.084v53.347c0,4.466,3.62,8.084,8.084,8.084s8.084-3.618,8.084-8.084v-45.262h80.484v37.178    H244.1c-4.465,0-8.084,3.62-8.084,8.084c0,4.466,3.62,8.084,8.084,8.084h69.558c4.466,0,8.084-3.618,8.084-8.084V450.57    c0-4.466-3.618-8.084-8.084-8.084h-2.694v-18.552c16.068-15.032,16.154-54.331,15.977-62.811v-33.74    c0-10.937-8.899-19.837-19.836-19.837h-0.474c-1.254,0-2.481,0.116-3.671,0.341v-8.696c0-1.097-0.112-2.167-0.286-3.215h30.346    h4.147c-3.542,3.984-6.442,8.606-7.542,13.704c-1.422,6.586,0.237,13.049,4.798,18.691c0.044,0.056,0.091,0.111,0.137,0.166    c0.327,0.382,5.244,5.938,14.84,5.937c6.083,0,14.043-2.231,23.901-9.425c8.095-5.906,13.815-6.949,20.442-8.156    c10.818-1.973,21.987-4.011,38.178-24.187h10.564v1.219c0,4.466,3.619,8.084,8.084,8.084h53.347c4.466,0,8.084-3.619,8.084-8.084    s-3.618-8.084-8.084-8.084h-45.263v-80.483h37.179v61.962C495.832,271.784,499.45,275.402,503.916,275.402z M211.204,155.998    v28.619c-0.003,2.02-1.65,3.666-3.676,3.666h-0.474c-2.022,0-3.668-1.645-3.668-3.668v-33.826c0-0.056-0.001-0.115-0.001-0.171    c-0.37-17.738,3.193-46.414,12.012-51.633c2.459-1.455,3.967-4.1,3.967-6.957V69.515h60.404v14.513    c0,2.531,1.186,4.916,3.202,6.445c18.161,13.758,19.523,21.228,21.249,30.688c1.299,7.122,2.916,15.986,11.002,27.07    c7.333,10.049,6.737,15.568,5.771,17.122c-2.052,1.504-3.501,1.468-4.655,1.223c-6.314-1.355-14.323-12.175-17.993-19.426    c-2.007-3.982-6.862-5.585-10.848-3.584c-2.994,1.505-4.649,4.62-4.439,7.766c-0.004,0.109-0.016,0.215-0.016,0.323v27.329v33.334    v0.493c0,2.023-1.646,3.668-3.67,3.668h-0.473c-2.023,0-3.668-1.645-3.668-3.668c0-0.083-0.01-0.164-0.013-0.247    c0.003-0.082,0.013-0.163,0.013-0.247v-56.32c0-4.466-3.618-8.084-8.084-8.084c-4.466,0-8.084,3.618-8.084,8.084v56.32    c0,0.083,0.01,0.164,0.013,0.247c-0.003,0.082-0.013,0.163-0.013,0.247v11.474c0,2.022-1.646,3.667-3.67,3.667h-0.477    c-2.02,0-3.664-1.645-3.664-3.667v-9.446c0.068-0.666,0.103-1.344,0.103-2.029V198.24c0-0.419-0.042-0.827-0.103-1.23v-41.013    c0-4.466-3.62-8.084-8.084-8.084c-4.465,0-8.084,3.618-8.084,8.084v45.543c0,0.415,0.041,0.818,0.101,1.216    c-0.06,0.398-0.101,0.801-0.101,1.216v9.668c-0.378,1.623-1.829,2.839-3.566,2.839h-0.476c-2.022,0-3.666-1.645-3.666-3.668    v-23.438v-4.756v-28.619c0-4.466-3.62-8.084-8.084-8.084C214.823,147.914,211.204,151.533,211.204,155.998z M280.049,270.45    c-0.453,1.661-0.695,3.408-0.695,5.212v0.472c0,1.185,0.123,2.338,0.323,3.465c-0.729,0.11-1.442,0.257-2.142,0.444    c-3.005-7.139-10.07-12.164-18.288-12.164h-0.477c-8.221,0-15.291,5.026-18.296,12.167c-1.373-0.374-2.808-0.595-4.281-0.664    c4.804-3.623,7.929-9.36,7.929-15.827v-0.475c0-8.221-5.027-15.291-12.168-18.296c0.453-1.661,0.695-3.408,0.695-5.212V239.1    c0-2.264-0.4-4.429-1.101-6.458c1.757-0.003,3.453-0.255,5.076-0.69c3.005,7.139,10.07,12.164,18.288,12.164h0.477    c8.222,0,15.292-5.026,18.297-12.167c1.661,0.453,3.408,0.694,5.211,0.694h0.473c0.162,0,0.32-0.019,0.481-0.024    c0.058,0.259,0.129,0.512,0.198,0.766c-7.139,3.006-12.165,10.073-12.165,18.292v0.475    C267.882,260.376,272.908,267.445,280.049,270.45z M184.614,291.097h-28.619c-4.465,0-8.084,3.618-8.084,8.084    c0,4.466,3.62,8.084,8.084,8.084h28.619c2.023,0,3.668,1.646,3.668,3.67v0.48h0.002c0,2.022-1.646,3.667-3.668,3.667H150.79    c-0.058,0-0.117,0.001-0.176,0.002c-17.716,0.399-46.393-3.167-51.629-12.013c-1.455-2.459-4.1-3.967-6.957-3.967H69.518v-60.403    h14.511c2.531,0,4.915-1.186,6.444-3.202c13.758-18.161,21.229-19.522,30.687-21.247c7.123-1.298,15.987-2.915,27.071-11.002    c10.05-7.334,15.567-6.738,17.123-5.769c1.505,2.052,1.469,3.5,1.222,4.653c-1.353,6.312-12.169,14.318-19.42,17.989    c-3.986,2.006-5.593,6.863-3.59,10.851c1.504,2.992,4.613,4.645,7.758,4.438c0.111,0.004,0.22,0.017,0.332,0.017h27.327h33.335    h0.493c2.023,0,3.668,1.646,3.668,3.67v0.473c0,2.023-1.646,3.669-3.668,3.669c-0.083,0-0.164,0.01-0.247,0.013    c-0.083-0.003-0.163-0.013-0.247-0.013h-56.321c-4.465,0-8.084,3.618-8.084,8.084c0,4.466,3.62,8.084,8.084,8.084h56.321    c0.083,0,0.164-0.01,0.247-0.013c0.083,0.003,0.163,0.013,0.247,0.013h11.474c2.022,0,3.668,1.646,3.668,3.669v0.475    c0,2.023-1.646,3.668-3.668,3.668h-9.438c-0.669-0.068-1.348-0.105-2.036-0.105h-14.57c-0.421,0-0.832,0.042-1.235,0.105h-41.007    c-4.465,0-8.084,3.619-8.084,8.084s3.62,8.084,8.084,8.084h45.544c0.415,0,0.818-0.041,1.216-0.101    c0.398,0.06,0.802,0.101,1.216,0.101h9.67c1.621,0.379,2.835,1.829,2.835,3.565v0.474c0,2.022-1.646,3.667-3.668,3.667h-23.438    H184.614z M204.112,307.269h8.699c0.723,0,1.437-0.044,2.141-0.12v25.868v4.148c-3.985-3.542-8.607-6.441-13.704-7.542    c-2.896-0.627-5.769-0.655-8.557-0.106c6.921-3.101,11.763-10.04,11.763-18.102v-0.476    C204.453,309.686,204.336,308.458,204.112,307.269z M302.955,356V327.38c0.002-2.02,1.65-3.666,3.674-3.666h0.474    c2.023,0,3.668,1.645,3.668,3.668v33.826c0,0.056,0.001,0.115,0.002,0.171c0.37,17.738-3.193,46.414-12.013,51.633    c-2.458,1.455-3.967,4.1-3.967,6.957v22.514H234.39v-14.515c0-2.531-1.186-4.915-3.202-6.444    c-18.16-13.758-19.523-21.228-21.247-30.688c-1.299-7.122-2.916-15.986-11.002-27.07c-7.333-10.049-6.737-15.568-5.771-17.122    c2.055-1.505,3.501-1.469,4.655-1.223c6.314,1.355,14.323,12.175,17.993,19.426c2.007,3.982,6.861,5.583,10.848,3.584    c2.994-1.505,4.649-4.619,4.439-7.765c0.004-0.109,0.016-0.214,0.016-0.324v-27.328V299.68v-0.493c0-2.023,1.647-3.668,3.67-3.668    h0.473c2.022,0,3.668,1.645,3.668,3.668c0,0.083,0.01,0.164,0.013,0.247c-0.003,0.082-0.013,0.163-0.013,0.246V356    c0,4.466,3.62,8.084,8.084,8.084c4.466,0,8.084-3.618,8.084-8.084v-56.32c0-0.083-0.01-0.164-0.013-0.246    c0.003-0.082,0.013-0.163,0.013-0.247v-11.474c0-2.022,1.646-3.667,3.67-3.667h0.477c2.02,0,3.664,1.645,3.664,3.667v9.446    c-0.069,0.666-0.103,1.344-0.103,2.029v14.571c0,0.419,0.042,0.828,0.103,1.23v41.013c0,4.466,3.619,8.084,8.084,8.084    c4.466,0,8.084-3.618,8.084-8.084v-45.543c0-0.415-0.041-0.818-0.101-1.216c0.06-0.398,0.101-0.801,0.101-1.216v-9.668    c0.378-1.623,1.828-2.839,3.566-2.839h0.476c2.022,0,3.666,1.645,3.666,3.668v23.438v4.756V356c0,4.466,3.618,8.084,8.084,8.084    C299.337,364.084,302.955,360.465,302.955,356z M442.48,276.538h-14.508v-0.004c-2.531,0-4.916,1.186-6.445,3.203    c-13.757,18.16-21.227,19.521-30.685,21.246c-7.123,1.298-15.988,2.915-27.072,11.002c-10.051,7.335-15.57,6.734-17.121,5.77    c-1.505-2.053-1.47-3.501-1.223-4.655c1.354-6.313,12.175-14.322,19.425-17.992c3.982-2.007,5.587-6.861,3.583-10.848    c-1.505-2.997-4.62-4.65-7.767-4.439c-0.108-0.004-0.213-0.016-0.322-0.016h-27.326h-33.335h-0.493    c-2.023,0-3.668-1.646-3.668-3.67v-0.472c0-2.023,1.645-3.669,3.668-3.669c0.083,0,0.164-0.01,0.246-0.013    c0.082,0.003,0.163,0.013,0.247,0.013h56.319c4.466,0,8.084-3.619,8.084-8.084s-3.618-8.084-8.084-8.084h-56.319    c-0.083,0-0.164,0.01-0.247,0.013c-0.082-0.003-0.163-0.013-0.246-0.013h-11.474c-2.023,0-3.668-1.646-3.668-3.669v-0.475    c0-2.023,1.645-3.668,3.668-3.668h9.438c0.669,0.068,1.348,0.105,2.036,0.105h14.571c0.421,0,0.832-0.042,1.235-0.105h41.005    c4.466,0,8.084-3.618,8.084-8.084c0-4.466-3.618-8.084-8.084-8.084h-45.54c-0.415,0-0.819,0.041-1.218,0.101    c-0.398-0.06-0.802-0.101-1.217-0.101h-9.671c-1.621-0.379-2.835-1.829-2.835-3.565v-0.474c0-2.022,1.645-3.667,3.668-3.667    h23.438h4.755H356c4.466,0,8.084-3.619,8.084-8.084c0-4.466-3.618-8.084-8.084-8.084H327.38c-2.023,0-3.668-1.646-3.668-3.67    v-0.476c0-2.022,1.645-3.667,3.668-3.667h33.826c0.059,0,0.116-0.001,0.176-0.002c17.716-0.387,46.395,3.167,51.631,12.014    c1.455,2.458,4.1,3.967,6.957,3.967h22.51V276.538z"/>
	</g>
</g>
<g>
</g>
<g>
</g>
<g>
</g>
<g>
</g>
<g>
</g>
<g>
</g>
<g>
</g>
<g>
</g>
<g>
</g>
<g>
</g>
<g>
</g>
<g>
</g>
<g>
</g>
<g>
</g>
<g>
</g>
</svg>
