<?xml version="1.0" encoding="iso-8859-1"?>
<!-- Generator: Adobe Illustrator 19.0.0, SVG Export Plug-In . SVG Version: 6.00 Build 0)  -->
<svg xmlns="http://www.w3.org/2000/svg" xmlns:xlink="http://www.w3.org/1999/xlink" version="1.1" id="Layer_1" x="0px" y="0px" viewBox="0 0 511.998 511.998" style="enable-background:new 0 0 511.998 511.998;" xml:space="preserve">
<g>
	<g>
		<g>
			<path d="M189.382,407.943l-27.371-11.406c-0.368-0.154-0.746-0.279-1.132-0.377l-16.554-4.172v-9.865     c11.317,1.88,21.647,4.825,29.918,8.556c1.077,0.485,2.205,0.716,3.315,0.716c2.664,0,5.219-1.329,6.732-3.623     c0.192-0.199,0.373-0.41,0.546-0.633c15.953-20.581,24.74-47.236,24.74-75.054c0-61.652-42.948-111.811-95.738-111.811     s-95.736,50.159-95.736,111.811c0,28.433,9.129,55.523,25.705,76.279c0.048,0.061,0.105,0.113,0.156,0.173     c0.069,0.082,0.142,0.159,0.214,0.239c0.185,0.202,0.379,0.393,0.58,0.573c0.063,0.056,0.124,0.112,0.187,0.166     c0.851,0.713,1.821,1.225,2.848,1.533c0.053,0.016,0.107,0.029,0.159,0.045c0.301,0.083,0.607,0.151,0.917,0.198     c0.055,0.01,0.108,0.019,0.161,0.027c0.362,0.049,0.724,0.082,1.089,0.082c0.047,0,0.095-0.011,0.142-0.012     c0.321-0.006,0.644-0.034,0.964-0.08c0.13-0.018,0.259-0.037,0.387-0.061c0.342-0.066,0.686-0.147,1.023-0.258     c0.121-0.04,0.239-0.093,0.358-0.139c0.146-0.056,0.293-0.105,0.438-0.17c8.248-3.721,18.544-6.656,29.838-8.541v9.77     l-17.664,4.228c-0.42,0.1-0.83,0.234-1.227,0.399l-27.371,11.406C24.037,412.44,0,429.938,0,464.866v38.678     c0,4.458,3.614,8.082,8.073,8.082h71.756h15.844c0.01,0,0.018,0.002,0.026,0.002c0.011,0,0.02-0.002,0.03-0.002h36.22     c0.01,0,0.02,0.002,0.03,0.002c0.009,0,0.017-0.002,0.017-0.002h14.568h71.756c4.459,0,8.073-3.69,8.073-8.148v-38.612     C226.392,429.938,202.355,412.44,189.382,407.943z M52.858,373.484c-12.028-17.212-18.612-38.766-18.612-61.398     c0-52.751,35.705-95.666,79.593-95.666c43.887,0,79.593,42.916,79.593,95.666c0,22.581-6.58,44.192-18.598,61.403     c-4.907-1.852-10.238-3.483-15.886-4.853c6.217-7.092,10.588-15.833,12.367-25.476c12.169-2.223,21.423-12.893,21.423-25.694     c0-12.686-9.087-23.284-21.095-25.637c-0.979-2.477-3.15-4.384-5.889-4.943c-31.388-6.397-44.811-24.373-45.338-25.095     c-1.387-1.952-3.569-3.187-5.956-3.371c-2.403-0.182-4.735,0.701-6.404,2.415c-18.047,18.521-46.274,26.075-46.548,26.146     c-2.549,0.661-4.528,2.505-5.457,4.843c-12.015,2.346-21.112,12.948-21.112,25.64c0,12.802,9.256,23.474,21.424,25.694     c1.778,9.643,6.149,18.383,12.366,25.474C63.083,370.002,57.76,371.634,52.858,373.484z M172.215,325.72v-16.511     c2.64,1.799,4.377,4.828,4.377,8.257C176.593,320.894,174.855,323.921,172.215,325.72z M55.461,309.209v16.512     c-2.64-1.799-4.378-4.826-4.378-8.255S52.821,311.006,55.461,309.209z M71.606,333.445v-32.689     c9.106-3.077,26.796-10.172,41.742-22.821c7.212,6.96,21.042,17.528,42.721,23.262v32.249c0,20.573-16.737,37.31-37.308,37.31     h-9.845C88.343,370.755,71.606,354.018,71.606,333.445z M93.221,406.129c3.633-0.87,6.194-4.116,6.194-7.851v-12.242     c3.086,0.556,6.257,0.863,9.501,0.863h9.845c3.214,0,6.358-0.301,9.418-0.848v12.227c0,3.698,2.513,6.924,6.1,7.827l15.512,3.91     l-1.368,4.888c-32.717,18.446-61.009,4.896-69.128,0.151l-1.468-5.241L93.221,406.129z M79.828,495.48H53.277v-32.373     c0-4.459-3.613-8.073-8.073-8.073s-8.073,3.613-8.073,8.073v32.374H16.145v-30.615c0-32.132,25.27-41.358,26.297-41.719     c0.181-0.061,0.358-0.127,0.534-0.2l19.489-8.121l2.099,7.493c0.003,0.012,0.006,0.023,0.01,0.032l20.484,73.128H79.828z      M125.853,495.482h-24.029v-0.001l-16.84-60.117c7.719,2.775,17.644,5.149,29.026,5.149c8.812,0,18.497-1.438,28.696-5.198     L125.853,495.482z M210.247,495.481h-20.988v-32.374c0-4.459-3.613-8.073-8.072-8.073c-4.459,0-8.073,3.613-8.073,8.073v32.374     h-26.55h-3.946l22.458-80.175l18.34,7.642c0.143,0.06,0.338,0.132,0.485,0.184c1.075,0.378,26.346,9.604,26.346,41.735V495.481z"/>
			<path d="M130.506,124.446h36.39v37.533c0,3.37,2.093,6.386,5.251,7.563c0.919,0.342,1.874,0.509,2.819,0.509     c2.297,0,4.539-0.981,6.103-2.786l16.935-19.54c1.087,3.173,4.089,5.457,7.631,5.457h87.442l37.111,42.82     c1.564,1.805,3.805,2.786,6.103,2.786c0.945,0,1.9-0.166,2.819-0.509c3.158-1.179,5.251-4.193,5.251-7.563v-37.533h36.391     c4.458,0,8.073-3.613,8.073-8.073V37.179c0-4.459-3.614-8.073-8.073-8.073h-67.057V8.442c0-4.458-3.613-8.073-8.072-8.073     H130.506c-4.459,0-8.072,3.614-8.072,8.073v107.931C122.434,120.833,126.047,124.446,130.506,124.446z M138.578,16.515h0.001     H297.55v12.592h-13.976c-4.458,0-8.073,3.613-8.073,8.073s3.613,8.073,8.073,8.073h89.105v91.786h-36.391     c-4.459,0-8.073,3.613-8.073,8.073v23.966l-25.352-29.253c-1.534-1.769-3.76-2.786-6.101-2.786h-83.056V45.252h42.961     c4.459,0,8.072-3.613,8.072-8.073s-3.613-8.073-8.072-8.073h-51.033c-4.459,0-8.072,3.613-8.072,8.073v86.404l-14.522,16.755     v-23.966c0-4.459-3.613-8.073-8.072-8.073h-36.39V16.515z"/>
			<path d="M474.99,407.405l-26.933-11.224l-18.123-11.959v-4.433c13.857-7.595,23.989-21.151,26.948-37.194     c12.169-2.222,21.423-12.893,21.423-25.694c0-6.711-2.544-12.837-6.717-17.469v-25.45c0-38.416-31.253-69.67-69.669-69.67h-5.136     c-38.413,0-69.667,31.253-69.667,69.67v25.571c-4.108,4.617-6.612,10.696-6.612,17.347c0,12.802,9.256,23.474,21.424,25.694     c2.959,16.042,13.091,29.599,26.949,37.194v3.96l-18.182,11.998c-0.238,0.074-0.474,0.157-0.708,0.254l-27.371,11.406     c-12.973,4.498-37.01,21.995-37.01,56.924v38.678c0,4.458,3.613,8.082,8.072,8.082h53.013c4.459,0,8.072-3.613,8.072-8.073     c0-4.459-3.613-8.072-8.072-8.072h-7.808v-32.374c0-4.459-3.613-8.073-8.072-8.073c-4.459,0-8.073,3.613-8.073,8.073v32.374     h-20.987v-30.617c0-32.132,25.269-41.358,26.297-41.719c0.181-0.061,0.358-0.127,0.534-0.2l19.489-8.122l22.651,80.863     c-3.593,0.818-6.276,4.025-6.276,7.866c0,4.459,3.613,8.072,8.072,8.072h8.759c0.01,0,0.018,0.002,0.026,0.002     c0,0,0.02-0.002,0.03-0.002h36.165h0.021h0.034c0.01,0,0.019,0.002,0.03,0.002c0.009,0,0.017-0.002,0.025-0.002h14.56h71.756     c4.459,0,8.072-3.69,8.072-8.148v-38.612C512,429.4,487.963,411.902,474.99,407.405z M457.782,308.644     c2.639,1.799,4.377,4.827,4.377,8.257c0.001,3.427-1.737,6.456-4.377,8.254V308.644z M341.028,325.156     c-2.639-1.799-4.379-4.827-4.379-8.255c0-3.429,1.738-6.459,4.379-8.257V325.156z M349.135,286.155h-0.003     c-0.01,0-0.02,0-0.029,0c-0.279,0-0.552,0.014-0.823,0.042c-0.085,0.009-0.168,0.026-0.252,0.038     c-0.183,0.024-0.368,0.047-0.548,0.084c-0.115,0.024-0.227,0.059-0.341,0.087c-0.144,0.035-0.291,0.068-0.431,0.111     c-0.13,0.041-0.256,0.094-0.384,0.141c-0.117,0.043-0.24,0.081-0.354,0.129c-0.147,0.062-0.288,0.136-0.429,0.206     c-0.09,0.045-0.185,0.084-0.274,0.132c-0.144,0.079-0.282,0.168-0.422,0.254c-0.08,0.051-0.164,0.096-0.243,0.149     c-0.131,0.088-0.253,0.186-0.379,0.282c-0.081,0.061-0.165,0.117-0.243,0.182c-0.113,0.093-0.219,0.196-0.326,0.294     c-0.083,0.075-0.169,0.146-0.248,0.225c-0.049,0.049-0.093,0.103-0.141,0.154v-14.685c-0.002-29.511,24.008-53.523,53.52-53.523     h5.136c29.514,0,53.524,24.012,53.524,53.525v14.567c-0.065-0.065-0.133-0.124-0.199-0.186c-0.104-0.099-0.208-0.196-0.318-0.29     c-0.087-0.073-0.178-0.143-0.267-0.212c-0.115-0.089-0.23-0.179-0.35-0.262c-0.098-0.068-0.2-0.13-0.3-0.195     c-0.116-0.073-0.234-0.147-0.354-0.215c-0.118-0.066-0.242-0.126-0.365-0.187c-0.11-0.055-0.216-0.11-0.329-0.158     c-0.146-0.066-0.297-0.121-0.448-0.177c-0.096-0.035-0.19-0.073-0.287-0.105c-0.167-0.056-0.34-0.1-0.512-0.144     c-0.071-0.019-0.14-0.043-0.212-0.06c-16.744-3.808-22.009-25.519-22.054-25.709c-0.7-3.094-3.148-5.491-6.255-6.125     c-3.11-0.639-6.3,0.606-8.159,3.177C394.654,285.874,349.739,286.155,349.135,286.155z M357.174,332.879v-30.999     c13.653-1.206,41.554-5.9,61.621-24.283c4.15,8.076,11.278,17.677,22.843,22.484v32.799c0,20.572-16.737,37.309-37.308,37.309     h-9.845C373.911,370.189,357.174,353.452,357.174,332.879z M392.638,437.318l6.407-4.716l6.603,4.86l-2.107,5.613h-8.492v0     L392.638,437.318z M399.106,410.956l-14.083-13.717v-9.064h0.001c0-0.002,0-0.005,0-0.009v-2.689     c3.073,0.552,6.231,0.856,9.46,0.856h9.845c3.229,0,6.387-0.304,9.459-0.856v10.238L399.106,410.956z M379.185,465.503     l-4.338-15.486c0.682-0.258,1.341-0.59,1.94-1.031l2.471-1.818l2.083,4.972L379.185,465.503z M375.023,430.239l-11.492-23.619     l5.669-3.741c0.376,1.305,1.077,2.533,2.119,3.548l15.52,15.117L375.023,430.239z M390.789,494.943l5.763-35.722h5.707     l5.763,35.722H390.789z M427.674,404.571c0.497-0.516,0.903-1.084,1.235-1.682l5.652,3.731l-11.491,23.62l-2.755-2.028     c-0.005-0.004-0.012-0.009-0.017-0.013l-9.002-6.625L427.674,404.571z M419.655,465.688l-2.212-13.708l1.717-4.571l2.145,1.577     c0.813,0.598,1.724,1.011,2.674,1.268L419.655,465.688z M495.855,494.943h-20.988v-32.374c0-4.459-3.613-8.072-8.072-8.072     c-4.459,0-8.073,3.613-8.073,8.072v32.374h-26.55h-3.946l22.459-80.176l18.339,7.643c0.143,0.06,0.338,0.132,0.485,0.184     c1.075,0.378,26.346,9.604,26.346,41.735V494.943z"/>
		</g>
	</g>
</g>
<g>
</g>
<g>
</g>
<g>
</g>
<g>
</g>
<g>
</g>
<g>
</g>
<g>
</g>
<g>
</g>
<g>
</g>
<g>
</g>
<g>
</g>
<g>
</g>
<g>
</g>
<g>
</g>
<g>
</g>
</svg>
