<?xml version="1.0" encoding="iso-8859-1"?>
<!-- Generator: Adobe Illustrator 19.0.0, SVG Export Plug-In . SVG Version: 6.00 Build 0)  -->
<svg xmlns="http://www.w3.org/2000/svg" xmlns:xlink="http://www.w3.org/1999/xlink" version="1.1" id="Layer_1" x="0px" y="0px" viewBox="0 0 512 512" style="enable-background:new 0 0 512 512;" xml:space="preserve">
<g>
	<g>
		<g>
			<path d="M176.368,234.811h26.015c4.466,0,8.084-3.619,8.084-8.084s-3.619-8.084-8.084-8.084h-17.931v-21.194     c0-22.837,17.859-29.452,18.555-29.701c0.125-0.042,0.249-0.087,0.373-0.136l30.861-12.086l16.409,15.983     c1.51,1.471,3.534,2.294,5.641,2.294c0.042,0,0.085,0,0.128-0.001c2.151-0.033,4.199-0.924,5.692-2.474l15.503-16.09     l30.795,12.349c0.142,0.058,0.288,0.111,0.433,0.159c0.185,0.063,18.556,6.504,18.556,29.701v21.194h-46.222H231.98h-3.465     c-4.466,0-8.084,3.619-8.084,8.084s3.618,8.084,8.084,8.084h3.465h49.197h54.307c4.466,0,8.084-3.677,8.084-8.141v-29.221     c0-33.239-26.044-43.747-29.284-44.926l-32.824-13.163v-4.751c8.917-5.218,15.77-13.59,19.01-23.582     c11.868-0.91,21.252-10.833,21.252-22.928c0-7.196-3.323-13.627-8.511-17.851V55.685c0-30.307-24.657-54.964-54.963-54.964     h-3.907c-30.307,0-54.964,24.657-54.964,54.964v14.498c-5.235,4.223-8.598,10.68-8.598,17.915     c0,12.186,9.526,22.163,21.52,22.941c3.242,9.985,10.091,18.352,19.005,23.567v4.705l-33.699,13.197     c-3.074,1.11-29.319,11.57-29.319,44.938v29.27C168.284,231.185,171.903,234.811,176.368,234.811z M302.535,83.084     c0.361,0.122,0.733,0.22,1.113,0.291c1.177,1.231,1.905,2.894,1.905,4.727c0,2.355-1.199,4.439-3.018,5.672V83.084z      M210.227,93.935c-1.964-1.206-3.282-3.366-3.282-5.835c0-1.738,0.655-3.322,1.727-4.531c0.538-0.081,1.057-0.213,1.555-0.396     V93.935z M265.293,144.726l-9.184,9.531l-8.638-8.415v-5.773c1.701,0.208,3.43,0.329,5.187,0.329h7.45     c1.756,0,3.484-0.12,5.185-0.329V144.726z M218.338,60.633c-0.009,0-0.018,0-0.027,0c-0.278,0-0.554,0.014-0.825,0.042     c-0.088,0.009-0.172,0.027-0.259,0.039c-0.182,0.025-0.364,0.046-0.542,0.082c-0.122,0.025-0.239,0.063-0.359,0.093     c-0.139,0.035-0.279,0.065-0.415,0.107c-0.125,0.039-0.246,0.089-0.369,0.135v-5.444c0-21.39,17.404-38.794,38.796-38.794h3.907     c21.392,0,38.794,17.404,38.794,38.796v5.372c-0.024-0.009-0.052-0.014-0.075-0.022c-0.163-0.054-0.331-0.097-0.498-0.14     c-0.074-0.021-0.148-0.046-0.223-0.064c-11.439-2.602-15.174-17.851-15.203-17.967c-0.701-3.098-3.152-5.498-6.264-6.134     c-3.111-0.637-6.309,0.608-8.17,3.182C251.786,60.405,218.758,60.633,218.338,60.633z M226.397,97.969V76.294h-0.001     c10.635-1.144,29.57-4.873,44.117-17.066c3.252,5.603,8.3,11.682,15.854,15.211v23.53c0,14.479-11.78,26.259-26.259,26.259h-7.45     C238.177,124.228,226.397,112.448,226.397,97.969z"/>
			<path d="M255.998,382.943c-35.381,0-64.166,28.785-64.166,64.167c0,35.383,28.785,64.169,64.166,64.169     c35.384,0,64.17-28.786,64.17-64.169C320.168,411.728,291.382,382.943,255.998,382.943z M255.998,495.112     c-26.467,0-47.998-21.533-47.998-48.001c0-26.467,21.532-47.999,47.998-47.999c26.469,0,48.002,21.533,48.002,47.999     C304,473.578,282.467,495.112,255.998,495.112z"/>
			<path d="M272.454,429.493l-22.072,21.268l-10.847-10.415c-3.221-3.092-8.338-2.988-11.431,0.233     c-3.091,3.22-2.988,8.337,0.233,11.431l16.455,15.8c1.564,1.503,3.581,2.253,5.599,2.253c2.022,0,4.044-0.755,5.609-2.264     l27.672-26.664c3.214-3.098,3.309-8.216,0.211-11.431C280.789,426.491,275.67,426.394,272.454,429.493z"/>
			<path d="M64.166,382.943C28.785,382.943,0,411.728,0,447.11c0,35.383,28.785,64.169,64.166,64.169     c35.384,0,64.17-28.786,64.17-64.169C128.337,411.728,99.55,382.943,64.166,382.943z M64.166,495.112     c-26.466,0-47.998-21.534-47.998-48.002c0-26.467,21.532-47.999,47.998-47.999c26.469,0,48.002,21.533,48.002,47.999     C112.169,473.578,90.635,495.112,64.166,495.112z"/>
			<path d="M80.622,429.493L58.55,450.761l-10.847-10.415c-3.22-3.092-8.339-2.988-11.43,0.233     c-3.091,3.22-2.988,8.337,0.233,11.431l16.455,15.8c1.564,1.503,3.581,2.253,5.599,2.253c2.022,0,4.044-0.755,5.609-2.264     l27.672-26.664c3.214-3.098,3.309-8.216,0.211-11.431C88.956,426.491,83.839,426.394,80.622,429.493z"/>
			<path d="M447.831,382.943c-35.381,0-64.166,28.785-64.166,64.167c0,35.383,28.785,64.169,64.166,64.169     c35.383,0,64.169-28.786,64.169-64.169C512,411.728,483.214,382.943,447.831,382.943z M447.831,495.112     c-26.467,0-47.998-21.533-47.998-48.001c0-26.467,21.532-47.999,47.998-47.999c26.468,0,48.001,21.533,48.001,47.999     C495.832,473.578,474.297,495.112,447.831,495.112z"/>
			<path d="M464.286,429.493l-22.073,21.268l-10.845-10.415c-3.221-3.092-8.338-2.988-11.431,0.233     c-3.091,3.22-2.988,8.337,0.233,11.431l16.454,15.8c1.564,1.503,3.581,2.253,5.599,2.253c2.022,0,4.044-0.755,5.609-2.264     l27.673-26.664c3.215-3.098,3.309-8.216,0.211-11.431C472.621,426.491,467.503,426.394,464.286,429.493z"/>
			<path d="M64.166,372.236c4.465,0,8.084-3.618,8.084-8.084v-55.67h175.666v55.67c0,4.466,3.619,8.084,8.084,8.084     c4.466,0,8.084-3.618,8.084-8.084v-55.67h175.664v55.67c0,4.466,3.618,8.084,8.084,8.084c4.466,0,8.084-3.618,8.084-8.084     v-63.754c0-4.466-3.618-8.084-8.084-8.084H264.084v-42.418c0-4.466-3.619-8.084-8.084-8.084c-4.466,0-8.084,3.618-8.084,8.084     v42.418H64.166c-4.466,0-8.084,3.618-8.084,8.084v63.754C56.082,368.618,59.701,372.236,64.166,372.236z"/>
		</g>
	</g>
</g>
<g>
</g>
<g>
</g>
<g>
</g>
<g>
</g>
<g>
</g>
<g>
</g>
<g>
</g>
<g>
</g>
<g>
</g>
<g>
</g>
<g>
</g>
<g>
</g>
<g>
</g>
<g>
</g>
<g>
</g>
</svg>
