<?xml version="1.0" encoding="iso-8859-1"?>
<!-- Generator: Adobe Illustrator 19.0.0, SVG Export Plug-In . SVG Version: 6.00 Build 0)  -->
<svg xmlns="http://www.w3.org/2000/svg" xmlns:xlink="http://www.w3.org/1999/xlink" version="1.1" id="Layer_1" x="0px" y="0px" viewBox="0 0 512 512" style="enable-background:new 0 0 512 512;" xml:space="preserve">
<g>
	<g>
		<path d="M486.878,403.675l-26.315-10.552v-2.229c7.09-4.356,12.581-11.067,15.386-19.034c10.102-1.228,17.957-9.838,17.957-20.265    c0-6.145-2.74-11.653-7.05-15.401v-11.441c0-25.854-21.033-46.887-46.887-46.887h-3.236c-11.307,0-21.69,4.022-29.796,10.711    c-5.043-4.294-9.791-6.21-11.109-6.687l-26.291-10.543v-2.23c7.091-4.356,12.581-11.066,15.387-19.034    c10.101-1.228,17.957-9.838,17.957-20.265c0-6.145-2.74-11.653-7.05-15.401v-11.442c0-25.854-21.032-46.887-46.887-46.887h-3.236    c-12.221,0-23.361,4.705-31.716,12.392c-4.284-3.22-8.047-4.733-9.183-5.144l-26.297-10.545v-2.23    c7.09-4.356,12.581-11.067,15.387-19.034c10.102-1.228,17.957-9.838,17.957-20.265c0-6.145-2.74-11.653-7.05-15.401V84.42    c0-25.854-21.034-46.887-46.887-46.887h-3.236c-25.854,0-46.887,21.034-46.887,46.887v11.376c-4.351,3.75-7.12,9.287-7.12,15.468    c0,10.506,7.974,19.179,18.187,20.3c2.809,7.952,8.296,14.648,15.375,18.998v2.181l-27.016,10.579    c-1.06,0.382-4.69,1.821-8.883,4.906c-8.322-7.54-19.356-12.139-31.445-12.139h-3.236c-25.854,0-46.887,21.033-46.887,46.887    v11.376c-4.351,3.75-7.12,9.287-7.12,15.468c0,10.506,7.974,19.179,18.187,20.3c2.809,7.952,8.295,14.648,15.375,18.998v2.181    l-27.012,10.578c-1.237,0.445-5.869,2.292-10.85,6.452c-8.06-6.537-18.319-10.463-29.481-10.463h-3.236    c-25.854,0-46.887,21.032-46.887,46.887v11.376c-4.351,3.75-7.121,9.287-7.121,15.468c0,10.506,7.974,19.179,18.187,20.3    c2.809,7.952,8.296,14.648,15.375,18.998v2.181l-27.035,10.587C22.29,404.708,0,413.758,0,442.156v24.241    c0,4.454,3.61,8.07,8.063,8.07h21.544c4.454,0,8.063-3.609,8.063-8.063s-3.609-8.063-8.063-8.063H16.127v-16.184    c0-17.59,13.026-22.792,14.433-23.301c0.125-0.042,0.248-0.087,0.371-0.135l24.738-9.688l12.956,12.621    c1.506,1.468,3.526,2.288,5.626,2.288c0.042,0,0.085,0,0.127-0.001c2.146-0.033,4.19-0.921,5.679-2.467l12.2-12.661l24.649,9.884    c0.142,0.058,0.287,0.111,0.432,0.159c0.144,0.048,14.435,5.062,14.435,23.301v16.184H94.862H54.119h-2.87    c-4.454,0-8.063,3.609-8.063,8.063s3.609,8.063,8.063,8.063h2.87h40.743h44.974c4.454,0,8.063-3.658,8.063-8.111v-24.2    c0-28.285-22.113-37.376-25.121-38.481l-26.315-10.552v-2.229c7.09-4.356,12.581-11.067,15.387-19.034    c9.744-1.185,17.372-9.245,17.901-19.172h15.391h40.745h14.846c0.533,10.007,8.277,18.124,18.131,19.207    c2.809,7.952,8.296,14.648,15.375,18.998v2.181l-27.035,10.587c-2.863,1.045-25.153,10.095-25.153,38.494v24.241    c0,4.454,3.609,8.07,8.063,8.07h21.544c4.454,0,8.063-3.609,8.063-8.063s-3.609-8.063-8.063-8.063h-13.483v-16.184    c0-17.59,13.026-22.792,14.433-23.301c0.125-0.042,0.249-0.087,0.371-0.135l24.738-9.688l12.956,12.621    c1.506,1.468,3.526,2.288,5.626,2.288c0.042,0,0.085,0,0.127-0.001c2.146-0.033,4.19-0.921,5.679-2.467l12.201-12.661    l24.649,9.884c0.142,0.058,0.287,0.111,0.432,0.159c0.144,0.048,14.435,5.062,14.435,23.301v16.184h-36.911h-40.744h-2.87    c-4.454,0-8.063,3.609-8.063,8.063s3.609,8.063,8.063,8.063h2.87h40.744h44.974c4.454,0,8.063-3.658,8.063-8.111v-24.2    c0-28.285-22.113-37.376-25.121-38.481l-26.315-10.552v-2.229c7.09-4.356,12.581-11.067,15.387-19.034    c9.744-1.185,17.372-9.245,17.901-19.172h15.391h40.743h14.846c0.533,10.007,8.277,18.124,18.131,19.207    c2.809,7.952,8.296,14.648,15.375,18.998v2.181l-27.035,10.587c-2.863,1.045-25.155,10.095-25.155,38.494v24.241    c0,4.454,3.609,8.07,8.063,8.07h21.544c4.453,0,8.063-3.609,8.063-8.063s-3.61-8.063-8.063-8.063h-13.481v-16.184    c0-17.59,13.026-22.793,14.433-23.301c0.125-0.042,0.249-0.087,0.371-0.135l24.738-9.688l12.956,12.621    c1.506,1.468,3.526,2.288,5.626,2.288c0.042,0,0.085,0,0.127-0.001c2.146-0.033,4.19-0.921,5.679-2.467l12.2-12.661l24.649,9.884    c0.142,0.058,0.287,0.111,0.432,0.159c0.144,0.048,14.435,5.062,14.435,23.301v16.184h-36.911H418.22h-2.869    c-4.454,0-8.063,3.609-8.063,8.063s3.609,8.063,8.063,8.063h2.869h40.743h44.974c4.454,0,8.063-3.658,8.063-8.111v-24.2    C512,413.872,489.886,404.781,486.878,403.675z M80.338,397.941l-6.267,6.504l-5.755-5.606v-2.693    c0.966,0.077,1.941,0.128,2.926,0.128h6.17c0.986,0,1.959-0.051,2.925-0.128V397.941z M97.793,359.769    c-0.001,11.237-9.143,20.379-20.38,20.379h-6.17c-11.237,0-20.38-9.142-20.38-20.378v-16.725    c8.839-1.082,23.232-4.225,34.818-13.32c2.688,4.239,6.588,8.615,12.112,11.419V359.769z M106.632,327.394    c-7.838-2.61-10.531-13.488-10.548-13.558c-0.699-3.09-3.145-5.485-6.249-6.118c-3.103-0.636-6.293,0.606-8.149,3.174    c-11.867,16.407-38.591,16.593-38.865,16.593c-0.009,0-0.016,0-0.023,0c-0.277,0-0.553,0.014-0.822,0.042    c-0.034,0.003-0.068,0.011-0.101,0.015v-2.787c0-16.962,13.799-30.761,30.761-30.761h3.236c16.961,0,30.76,13.799,30.76,30.76    V327.394z M370.867,237.993c-0.001,11.236-9.143,20.378-20.38,20.378h-6.17c-11.237,0-20.38-9.142-20.38-20.378v-16.748    c8.841-1.084,23.239-4.207,34.818-13.295c2.688,4.239,6.588,8.615,12.112,11.419V237.993z M353.413,274.37v1.794l-6.267,6.504    l-5.755-5.606v-2.693c0.966,0.077,1.941,0.128,2.926,0.128h6.17C351.473,274.498,352.446,274.447,353.413,274.37z     M314.949,202.977c0-16.962,13.799-30.761,30.761-30.761h3.236c16.961,0,30.76,13.799,30.76,30.76v2.64    c-7.838-2.61-10.531-13.488-10.547-13.558c-0.699-3.09-3.145-5.485-6.249-6.118c-3.103-0.634-6.292,0.606-8.149,3.174    c-11.867,16.407-38.591,16.593-38.866,16.593c-0.009,0-0.016,0-0.024,0c-0.277,0-0.553,0.014-0.823,0.042    c-0.033,0.003-0.068,0.011-0.101,0.015V202.977z M224.871,87.151c-0.009,0-0.016,0-0.023,0c-0.277,0-0.553,0.014-0.823,0.042    c-0.034,0.003-0.068,0.011-0.101,0.015v-2.787c0-16.962,13.799-30.761,30.761-30.761h3.236c16.961,0,30.76,13.799,30.76,30.76    v2.64c-7.838-2.61-10.531-13.488-10.548-13.558c-0.699-3.09-3.145-5.485-6.249-6.118c-3.104-0.636-6.292,0.605-8.149,3.174    C251.869,86.965,225.145,87.151,224.871,87.151z M232.914,119.437v-16.746h-0.001c8.839-1.082,23.232-4.204,34.818-13.297    c2.688,4.239,6.588,8.615,12.112,11.419v18.624c0,11.236-9.142,20.378-20.379,20.378h-6.17    C242.056,139.815,232.914,130.673,232.914,119.437z M262.388,155.814v1.794l-6.267,6.504l-5.755-5.606v-2.693    c0.967,0.077,1.941,0.128,2.927,0.128h6.17C260.448,155.942,261.421,155.891,262.388,155.814z M212.609,178.52    c0.126-0.04,0.249-0.085,0.372-0.133l24.738-9.688l12.956,12.621c1.506,1.468,3.526,2.288,5.626,2.288    c0.042,0,0.085,0,0.127-0.001c2.146-0.033,4.19-0.921,5.679-2.467l12.201-12.661l24.649,9.884    c0.143,0.058,0.288,0.112,0.433,0.159c0.025,0.01,2.177,0.818,4.78,2.747c-3.408,6.496-5.348,13.877-5.348,21.707v11.376    c-1.251,1.079-2.368,2.306-3.33,3.654h-18.581h-40.744h-19.128c-0.941-1.321-2.035-2.525-3.257-3.589v-11.443    c0-7.957-1.999-15.455-5.511-22.026C210.688,179.237,212.613,178.52,212.609,178.52z M133.847,205.707c-0.009,0-0.016,0-0.023,0    c-0.277,0-0.553,0.014-0.822,0.042c-0.033,0.003-0.068,0.011-0.101,0.015v-2.787c-0.001-16.962,13.798-30.761,30.76-30.761h3.236    c16.961,0,30.76,13.799,30.76,30.76v2.64c-7.838-2.61-10.531-13.488-10.548-13.558c-0.699-3.09-3.145-5.485-6.247-6.118    c-3.105-0.634-6.293,0.606-8.149,3.174C160.845,205.521,134.121,205.707,133.847,205.707z M141.889,237.993v-16.748h-0.001    c8.841-1.084,23.239-4.207,34.818-13.295c2.688,4.239,6.588,8.615,12.112,11.419v18.624c0,11.236-9.142,20.378-20.379,20.378    h-6.17C151.031,258.371,141.889,249.229,141.889,237.993z M159.342,274.37c0.965,0.077,1.94,0.128,2.925,0.128h6.17    c0.986,0,1.959-0.05,2.925-0.128v1.794l-6.267,6.504l-5.754-5.606V274.37z M207.8,324.753v11.376    c-0.162,0.141-0.318,0.289-0.476,0.433h-21.436h-40.744h-21.981c-0.134-0.123-0.267-0.247-0.404-0.368v-11.441    c0-8.88-2.482-17.192-6.787-24.278c2.983-2.415,5.617-3.396,5.614-3.396c0.125-0.042,0.248-0.087,0.371-0.135l24.738-9.688    l12.956,12.621c1.506,1.468,3.526,2.288,5.626,2.288c0.042,0,0.085,0,0.127-0.001c2.146-0.033,4.191-0.921,5.679-2.467    l12.2-12.661l24.649,9.884c0.142,0.058,0.208,0.083,0.353,0.132c0.035,0.013,2.942,1.083,6.108,3.762    C210.211,307.824,207.8,316.011,207.8,324.753z M262.388,397.941l-6.267,6.504l-5.755-5.606v-2.693    c0.967,0.077,1.941,0.128,2.927,0.128h6.17c0.986,0,1.959-0.051,2.925-0.128V397.941z M279.842,359.769    c-0.001,11.237-9.143,20.379-20.38,20.379h-6.17c-11.237,0-20.38-9.142-20.38-20.378v-16.725    c8.839-1.083,23.232-4.225,34.818-13.32c2.688,4.239,6.588,8.615,12.112,11.419V359.769z M288.681,327.394    c-7.838-2.61-10.531-13.488-10.548-13.558c-0.699-3.09-3.145-5.485-6.249-6.118c-3.104-0.636-6.292,0.606-8.149,3.174    c-11.866,16.406-38.589,16.592-38.864,16.592c-0.009,0-0.016,0-0.023,0c-0.277,0-0.553,0.014-0.823,0.042    c-0.034,0.003-0.068,0.011-0.101,0.015v-2.787c0-16.961,13.799-30.76,30.76-30.76h3.236c16.961,0,30.76,13.799,30.76,30.76    V327.394z M287.402,288.328c-8.06-6.536-18.319-10.462-29.481-10.462h-3.236c-11.305,0-21.687,4.021-29.793,10.708    c-5.044-4.296-9.795-6.207-11.111-6.684l-26.292-10.543v-2.23c7.091-4.356,12.581-11.066,15.387-19.034    c8.667-1.054,15.672-7.541,17.489-15.95h15.804h40.744h15.258c1.832,8.486,8.945,15.023,17.718,15.986    c2.809,7.952,8.294,14.648,15.375,18.998v2.181l-27.011,10.577C297.017,282.32,292.384,284.168,287.402,288.328z M389.847,324.753    v11.376c-0.162,0.141-0.318,0.289-0.476,0.433h-21.435h-40.743h-21.981c-0.134-0.123-0.267-0.247-0.404-0.368v-11.441    c0-8.88-2.482-17.192-6.788-24.278c2.983-2.415,5.619-3.396,5.614-3.396c0.125-0.042,0.248-0.087,0.371-0.135l24.738-9.688    l12.956,12.621c1.506,1.468,3.526,2.288,5.626,2.288c0.042,0,0.085,0,0.127-0.001c2.146-0.033,4.191-0.921,5.679-2.467    l12.2-12.661l24.649,9.884c0.142,0.058,0.287,0.111,0.432,0.159c0.033,0.012,2.882,1.064,6.027,3.735    C392.259,307.824,389.847,316.011,389.847,324.753z M406.921,327.484c-0.009,0-0.016,0-0.023,0c-0.277,0-0.553,0.014-0.822,0.042    c-0.034,0.003-0.068,0.011-0.101,0.015v-2.787c-0.001-16.962,13.798-30.761,30.76-30.761h3.236c16.961,0,30.76,13.799,30.76,30.76    v2.641c-7.838-2.61-10.531-13.488-10.547-13.558c-0.699-3.09-3.145-5.485-6.249-6.118c-3.104-0.636-6.293,0.606-8.149,3.174    C433.92,327.298,407.195,327.484,406.921,327.484z M444.438,397.941l-6.267,6.504l-5.755-5.606v-2.693    c0.966,0.077,1.941,0.128,2.926,0.128h6.17c0.986,0,1.959-0.051,2.925-0.128V397.941z M441.513,380.148h-6.17    c-11.237,0-20.38-9.142-20.38-20.378v-16.723h-0.001c8.839-1.083,23.233-4.226,34.818-13.32    c2.688,4.239,6.588,8.615,12.112,11.419v18.624C461.892,371.006,452.75,380.148,441.513,380.148z"/>
	</g>
</g>
<g>
</g>
<g>
</g>
<g>
</g>
<g>
</g>
<g>
</g>
<g>
</g>
<g>
</g>
<g>
</g>
<g>
</g>
<g>
</g>
<g>
</g>
<g>
</g>
<g>
</g>
<g>
</g>
<g>
</g>
</svg>
